solid ascii
  facet normal -9.994170e-001 3.414111e-002 0.000000e+000
    outer loop
      vertex   -4.751398e+000 3.250045e-001 2.540000e+000
      vertex   -4.751398e+000 3.250045e-001 0.000000e+000
      vertex   -4.762500e+000 -5.832380e-016 2.540000e+000
    endloop
  endfacet
  facet normal -9.947573e-001 1.022641e-001 0.000000e+000
    outer loop
      vertex   -4.751398e+000 3.250045e-001 2.540000e+000
      vertex   -4.718142e+000 6.484937e-001 0.000000e+000
      vertex   -4.751398e+000 3.250045e-001 0.000000e+000
    endloop
  endfacet
  facet normal -9.947573e-001 1.022641e-001 0.000000e+000
    outer loop
      vertex   -4.751398e+000 3.250045e-001 2.540000e+000
      vertex   -4.718142e+000 6.484937e-001 2.540000e+000
      vertex   -4.718142e+000 6.484937e-001 0.000000e+000
    endloop
  endfacet
  facet normal -9.854595e-001 1.699104e-001 0.000000e+000
    outer loop
      vertex   -4.718142e+000 6.484937e-001 0.000000e+000
      vertex   -4.718142e+000 6.484937e-001 2.540000e+000
      vertex   -4.662888e+000 9.689593e-001 0.000000e+000
    endloop
  endfacet
  facet normal -9.854595e-001 1.699104e-001 0.000000e+000
    outer loop
      vertex   -4.662888e+000 9.689593e-001 0.000000e+000
      vertex   -4.718142e+000 6.484937e-001 2.540000e+000
      vertex   -4.662888e+000 9.689593e-001 2.540000e+000
    endloop
  endfacet
  facet normal -9.715671e-001 2.367644e-001 0.000000e+000
    outer loop
      vertex   -4.585894e+000 1.284907e+000 0.000000e+000
      vertex   -4.662888e+000 9.689593e-001 2.540000e+000
      vertex   -4.585894e+000 1.284907e+000 2.540000e+000
    endloop
  endfacet
  facet normal -9.531448e-001 3.025146e-001 0.000000e+000
    outer loop
      vertex   -4.487518e+000 1.594864e+000 0.000000e+000
      vertex   -4.585894e+000 1.284907e+000 2.540000e+000
      vertex   -4.487518e+000 1.594864e+000 2.540000e+000
    endloop
  endfacet
  facet normal -9.302784e-001 3.668542e-001 0.000000e+000
    outer loop
      vertex   -4.368219e+000 1.897385e+000 0.000000e+000
      vertex   -4.487518e+000 1.594864e+000 2.540000e+000
      vertex   -4.368219e+000 1.897385e+000 2.540000e+000
    endloop
  endfacet
  facet normal -9.030747e-001 4.294834e-001 0.000000e+000
    outer loop
      vertex   -4.228553e+000 2.191060e+000 0.000000e+000
      vertex   -4.368219e+000 1.897385e+000 2.540000e+000
      vertex   -4.228553e+000 2.191060e+000 2.540000e+000
    endloop
  endfacet
  facet normal -8.716605e-001 4.901102e-001 0.000000e+000
    outer loop
      vertex   -4.069172e+000 2.474519e+000 0.000000e+000
      vertex   -4.228553e+000 2.191060e+000 2.540000e+000
      vertex   -4.069172e+000 2.474519e+000 2.540000e+000
    endloop
  endfacet
  facet normal -8.361821e-001 5.484519e-001 0.000000e+000
    outer loop
      vertex   -3.890819e+000 2.746440e+000 0.000000e+000
      vertex   -4.069172e+000 2.474519e+000 2.540000e+000
      vertex   -3.890819e+000 2.746440e+000 2.540000e+000
    endloop
  endfacet
  facet normal -7.968051e-001 6.042364e-001 0.000000e+000
    outer loop
      vertex   -3.694325e+000 3.005556e+000 0.000000e+000
      vertex   -3.890819e+000 2.746440e+000 2.540000e+000
      vertex   -3.694325e+000 3.005556e+000 2.540000e+000
    endloop
  endfacet
  facet normal -7.537130e-001 6.572037e-001 0.000000e+000
    outer loop
      vertex   -3.480606e+000 3.250659e+000 0.000000e+000
      vertex   -3.694325e+000 3.005556e+000 2.540000e+000
      vertex   -3.480606e+000 3.250659e+000 2.540000e+000
    endloop
  endfacet
  facet normal -7.071068e-001 7.071068e-001 0.000000e+000
    outer loop
      vertex   -3.250659e+000 3.480606e+000 0.000000e+000
      vertex   -3.480606e+000 3.250659e+000 2.540000e+000
      vertex   -3.250659e+000 3.480606e+000 2.540000e+000
    endloop
  endfacet
  facet normal -6.572037e-001 7.537130e-001 0.000000e+000
    outer loop
      vertex   -3.005556e+000 3.694325e+000 0.000000e+000
      vertex   -3.250659e+000 3.480606e+000 2.540000e+000
      vertex   -3.005556e+000 3.694325e+000 2.540000e+000
    endloop
  endfacet
  facet normal -6.042364e-001 7.968051e-001 0.000000e+000
    outer loop
      vertex   -2.746440e+000 3.890819e+000 0.000000e+000
      vertex   -3.005556e+000 3.694325e+000 2.540000e+000
      vertex   -2.746440e+000 3.890819e+000 2.540000e+000
    endloop
  endfacet
  facet normal -5.484519e-001 8.361821e-001 0.000000e+000
    outer loop
      vertex   -2.474519e+000 4.069172e+000 0.000000e+000
      vertex   -2.746440e+000 3.890819e+000 2.540000e+000
      vertex   -2.474519e+000 4.069172e+000 2.540000e+000
    endloop
  endfacet
  facet normal -4.901102e-001 8.716605e-001 0.000000e+000
    outer loop
      vertex   -2.191060e+000 4.228553e+000 0.000000e+000
      vertex   -2.474519e+000 4.069172e+000 2.540000e+000
      vertex   -2.191060e+000 4.228553e+000 2.540000e+000
    endloop
  endfacet
  facet normal -4.294834e-001 9.030747e-001 0.000000e+000
    outer loop
      vertex   -1.897385e+000 4.368219e+000 0.000000e+000
      vertex   -2.191060e+000 4.228553e+000 2.540000e+000
      vertex   -1.897385e+000 4.368219e+000 2.540000e+000
    endloop
  endfacet
  facet normal -3.668542e-001 9.302784e-001 0.000000e+000
    outer loop
      vertex   -1.594864e+000 4.487518e+000 0.000000e+000
      vertex   -1.897385e+000 4.368219e+000 2.540000e+000
      vertex   -1.594864e+000 4.487518e+000 2.540000e+000
    endloop
  endfacet
  facet normal -3.025146e-001 9.531448e-001 0.000000e+000
    outer loop
      vertex   -1.284907e+000 4.585894e+000 0.000000e+000
      vertex   -1.594864e+000 4.487518e+000 2.540000e+000
      vertex   -1.284907e+000 4.585894e+000 2.540000e+000
    endloop
  endfacet
  facet normal -2.367644e-001 9.715671e-001 0.000000e+000
    outer loop
      vertex   -9.689593e-001 4.662888e+000 0.000000e+000
      vertex   -1.284907e+000 4.585894e+000 2.540000e+000
      vertex   -9.689593e-001 4.662888e+000 2.540000e+000
    endloop
  endfacet
  facet normal -1.699104e-001 9.854595e-001 0.000000e+000
    outer loop
      vertex   -6.484937e-001 4.718142e+000 0.000000e+000
      vertex   -9.689593e-001 4.662888e+000 2.540000e+000
      vertex   -6.484937e-001 4.718142e+000 2.540000e+000
    endloop
  endfacet
  facet normal -1.022641e-001 9.947573e-001 0.000000e+000
    outer loop
      vertex   -3.250045e-001 4.751398e+000 0.000000e+000
      vertex   -6.484937e-001 4.718142e+000 2.540000e+000
      vertex   -3.250045e-001 4.751398e+000 2.540000e+000
    endloop
  endfacet
  facet normal -3.414111e-002 9.994170e-001 0.000000e+000
    outer loop
      vertex   2.916190e-016 4.762500e+000 0.000000e+000
      vertex   -3.250045e-001 4.751398e+000 2.540000e+000
      vertex   2.916190e-016 4.762500e+000 2.540000e+000
    endloop
  endfacet
  facet normal 3.414111e-002 9.994170e-001 0.000000e+000
    outer loop
      vertex   3.250045e-001 4.751398e+000 0.000000e+000
      vertex   2.916190e-016 4.762500e+000 2.540000e+000
      vertex   3.250045e-001 4.751398e+000 2.540000e+000
    endloop
  endfacet
  facet normal 1.022641e-001 9.947573e-001 0.000000e+000
    outer loop
      vertex   6.484937e-001 4.718142e+000 0.000000e+000
      vertex   3.250045e-001 4.751398e+000 2.540000e+000
      vertex   6.484937e-001 4.718142e+000 2.540000e+000
    endloop
  endfacet
  facet normal 1.699104e-001 9.854595e-001 0.000000e+000
    outer loop
      vertex   9.689593e-001 4.662888e+000 0.000000e+000
      vertex   6.484937e-001 4.718142e+000 2.540000e+000
      vertex   9.689593e-001 4.662888e+000 2.540000e+000
    endloop
  endfacet
  facet normal 2.367644e-001 9.715671e-001 0.000000e+000
    outer loop
      vertex   1.284907e+000 4.585894e+000 0.000000e+000
      vertex   9.689593e-001 4.662888e+000 2.540000e+000
      vertex   1.284907e+000 4.585894e+000 2.540000e+000
    endloop
  endfacet
  facet normal 3.025146e-001 9.531448e-001 0.000000e+000
    outer loop
      vertex   1.594864e+000 4.487518e+000 0.000000e+000
      vertex   1.284907e+000 4.585894e+000 2.540000e+000
      vertex   1.594864e+000 4.487518e+000 2.540000e+000
    endloop
  endfacet
  facet normal 3.668542e-001 9.302784e-001 0.000000e+000
    outer loop
      vertex   1.897385e+000 4.368219e+000 0.000000e+000
      vertex   1.594864e+000 4.487518e+000 2.540000e+000
      vertex   1.897385e+000 4.368219e+000 2.540000e+000
    endloop
  endfacet
  facet normal 4.294834e-001 9.030747e-001 0.000000e+000
    outer loop
      vertex   2.191060e+000 4.228553e+000 0.000000e+000
      vertex   1.897385e+000 4.368219e+000 2.540000e+000
      vertex   2.191060e+000 4.228553e+000 2.540000e+000
    endloop
  endfacet
  facet normal 4.901102e-001 8.716605e-001 0.000000e+000
    outer loop
      vertex   2.474519e+000 4.069172e+000 0.000000e+000
      vertex   2.191060e+000 4.228553e+000 2.540000e+000
      vertex   2.474519e+000 4.069172e+000 2.540000e+000
    endloop
  endfacet
  facet normal 5.484519e-001 8.361821e-001 0.000000e+000
    outer loop
      vertex   2.746440e+000 3.890819e+000 0.000000e+000
      vertex   2.474519e+000 4.069172e+000 2.540000e+000
      vertex   2.746440e+000 3.890819e+000 2.540000e+000
    endloop
  endfacet
  facet normal 6.042364e-001 7.968051e-001 0.000000e+000
    outer loop
      vertex   3.005556e+000 3.694325e+000 0.000000e+000
      vertex   2.746440e+000 3.890819e+000 2.540000e+000
      vertex   3.005556e+000 3.694325e+000 2.540000e+000
    endloop
  endfacet
  facet normal 6.572037e-001 7.537130e-001 0.000000e+000
    outer loop
      vertex   3.250659e+000 3.480606e+000 0.000000e+000
      vertex   3.005556e+000 3.694325e+000 2.540000e+000
      vertex   3.250659e+000 3.480606e+000 2.540000e+000
    endloop
  endfacet
  facet normal 7.071068e-001 7.071068e-001 0.000000e+000
    outer loop
      vertex   3.480606e+000 3.250659e+000 0.000000e+000
      vertex   3.250659e+000 3.480606e+000 2.540000e+000
      vertex   3.480606e+000 3.250659e+000 2.540000e+000
    endloop
  endfacet
  facet normal 7.537130e-001 6.572037e-001 0.000000e+000
    outer loop
      vertex   3.694325e+000 3.005556e+000 0.000000e+000
      vertex   3.480606e+000 3.250659e+000 2.540000e+000
      vertex   3.694325e+000 3.005556e+000 2.540000e+000
    endloop
  endfacet
  facet normal 7.968051e-001 6.042364e-001 0.000000e+000
    outer loop
      vertex   3.890819e+000 2.746440e+000 0.000000e+000
      vertex   3.694325e+000 3.005556e+000 2.540000e+000
      vertex   3.890819e+000 2.746440e+000 2.540000e+000
    endloop
  endfacet
  facet normal 8.361821e-001 5.484519e-001 0.000000e+000
    outer loop
      vertex   4.069172e+000 2.474519e+000 0.000000e+000
      vertex   3.890819e+000 2.746440e+000 2.540000e+000
      vertex   4.069172e+000 2.474519e+000 2.540000e+000
    endloop
  endfacet
  facet normal 8.716605e-001 4.901102e-001 0.000000e+000
    outer loop
      vertex   4.228553e+000 2.191060e+000 0.000000e+000
      vertex   4.069172e+000 2.474519e+000 2.540000e+000
      vertex   4.228553e+000 2.191060e+000 2.540000e+000
    endloop
  endfacet
  facet normal 9.030747e-001 4.294834e-001 0.000000e+000
    outer loop
      vertex   4.368219e+000 1.897385e+000 0.000000e+000
      vertex   4.228553e+000 2.191060e+000 2.540000e+000
      vertex   4.368219e+000 1.897385e+000 2.540000e+000
    endloop
  endfacet
  facet normal 9.302784e-001 3.668542e-001 0.000000e+000
    outer loop
      vertex   4.487518e+000 1.594864e+000 0.000000e+000
      vertex   4.368219e+000 1.897385e+000 2.540000e+000
      vertex   4.487518e+000 1.594864e+000 2.540000e+000
    endloop
  endfacet
  facet normal 9.531448e-001 3.025146e-001 0.000000e+000
    outer loop
      vertex   4.585894e+000 1.284907e+000 0.000000e+000
      vertex   4.487518e+000 1.594864e+000 2.540000e+000
      vertex   4.585894e+000 1.284907e+000 2.540000e+000
    endloop
  endfacet
  facet normal 9.715671e-001 2.367644e-001 0.000000e+000
    outer loop
      vertex   4.662888e+000 9.689593e-001 0.000000e+000
      vertex   4.585894e+000 1.284907e+000 2.540000e+000
      vertex   4.662888e+000 9.689593e-001 2.540000e+000
    endloop
  endfacet
  facet normal 9.854595e-001 1.699104e-001 0.000000e+000
    outer loop
      vertex   4.718142e+000 6.484937e-001 0.000000e+000
      vertex   4.662888e+000 9.689593e-001 2.540000e+000
      vertex   4.718142e+000 6.484937e-001 2.540000e+000
    endloop
  endfacet
  facet normal 9.947573e-001 1.022641e-001 0.000000e+000
    outer loop
      vertex   4.751398e+000 3.250045e-001 0.000000e+000
      vertex   4.718142e+000 6.484937e-001 2.540000e+000
      vertex   4.751398e+000 3.250045e-001 2.540000e+000
    endloop
  endfacet
  facet normal 9.994170e-001 3.414111e-002 0.000000e+000
    outer loop
      vertex   4.762500e+000 0.000000e+000 0.000000e+000
      vertex   4.751398e+000 3.250045e-001 2.540000e+000
      vertex   4.762500e+000 0.000000e+000 2.540000e+000
    endloop
  endfacet
  facet normal 9.994170e-001 -3.414111e-002 0.000000e+000
    outer loop
      vertex   4.751398e+000 -3.250045e-001 0.000000e+000
      vertex   4.762500e+000 0.000000e+000 2.540000e+000
      vertex   4.751398e+000 -3.250045e-001 2.540000e+000
    endloop
  endfacet
  facet normal 9.947573e-001 -1.022641e-001 0.000000e+000
    outer loop
      vertex   4.718142e+000 -6.484937e-001 0.000000e+000
      vertex   4.751398e+000 -3.250045e-001 2.540000e+000
      vertex   4.718142e+000 -6.484937e-001 2.540000e+000
    endloop
  endfacet
  facet normal 9.854595e-001 -1.699104e-001 0.000000e+000
    outer loop
      vertex   4.662888e+000 -9.689593e-001 0.000000e+000
      vertex   4.718142e+000 -6.484937e-001 2.540000e+000
      vertex   4.662888e+000 -9.689593e-001 2.540000e+000
    endloop
  endfacet
  facet normal 9.715671e-001 -2.367644e-001 0.000000e+000
    outer loop
      vertex   4.585894e+000 -1.284907e+000 0.000000e+000
      vertex   4.662888e+000 -9.689593e-001 2.540000e+000
      vertex   4.585894e+000 -1.284907e+000 2.540000e+000
    endloop
  endfacet
  facet normal 9.531448e-001 -3.025146e-001 0.000000e+000
    outer loop
      vertex   4.487518e+000 -1.594864e+000 0.000000e+000
      vertex   4.585894e+000 -1.284907e+000 2.540000e+000
      vertex   4.487518e+000 -1.594864e+000 2.540000e+000
    endloop
  endfacet
  facet normal 9.302784e-001 -3.668542e-001 0.000000e+000
    outer loop
      vertex   4.368219e+000 -1.897385e+000 0.000000e+000
      vertex   4.487518e+000 -1.594864e+000 2.540000e+000
      vertex   4.368219e+000 -1.897385e+000 2.540000e+000
    endloop
  endfacet
  facet normal 9.030747e-001 -4.294834e-001 0.000000e+000
    outer loop
      vertex   4.228553e+000 -2.191060e+000 0.000000e+000
      vertex   4.368219e+000 -1.897385e+000 2.540000e+000
      vertex   4.228553e+000 -2.191060e+000 2.540000e+000
    endloop
  endfacet
  facet normal 8.716605e-001 -4.901102e-001 0.000000e+000
    outer loop
      vertex   4.069172e+000 -2.474519e+000 0.000000e+000
      vertex   4.228553e+000 -2.191060e+000 2.540000e+000
      vertex   4.069172e+000 -2.474519e+000 2.540000e+000
    endloop
  endfacet
  facet normal 8.361821e-001 -5.484519e-001 0.000000e+000
    outer loop
      vertex   3.890819e+000 -2.746440e+000 0.000000e+000
      vertex   4.069172e+000 -2.474519e+000 2.540000e+000
      vertex   3.890819e+000 -2.746440e+000 2.540000e+000
    endloop
  endfacet
  facet normal 7.968051e-001 -6.042364e-001 0.000000e+000
    outer loop
      vertex   3.694325e+000 -3.005556e+000 0.000000e+000
      vertex   3.890819e+000 -2.746440e+000 2.540000e+000
      vertex   3.694325e+000 -3.005556e+000 2.540000e+000
    endloop
  endfacet
  facet normal 7.537130e-001 -6.572037e-001 0.000000e+000
    outer loop
      vertex   3.480606e+000 -3.250659e+000 0.000000e+000
      vertex   3.694325e+000 -3.005556e+000 2.540000e+000
      vertex   3.480606e+000 -3.250659e+000 2.540000e+000
    endloop
  endfacet
  facet normal 7.071068e-001 -7.071068e-001 0.000000e+000
    outer loop
      vertex   3.250659e+000 -3.480606e+000 0.000000e+000
      vertex   3.480606e+000 -3.250659e+000 2.540000e+000
      vertex   3.250659e+000 -3.480606e+000 2.540000e+000
    endloop
  endfacet
  facet normal 6.572037e-001 -7.537130e-001 0.000000e+000
    outer loop
      vertex   3.005556e+000 -3.694325e+000 0.000000e+000
      vertex   3.250659e+000 -3.480606e+000 2.540000e+000
      vertex   3.005556e+000 -3.694325e+000 2.540000e+000
    endloop
  endfacet
  facet normal 6.042364e-001 -7.968051e-001 0.000000e+000
    outer loop
      vertex   2.746440e+000 -3.890819e+000 0.000000e+000
      vertex   3.005556e+000 -3.694325e+000 2.540000e+000
      vertex   2.746440e+000 -3.890819e+000 2.540000e+000
    endloop
  endfacet
  facet normal 5.484519e-001 -8.361821e-001 0.000000e+000
    outer loop
      vertex   2.474519e+000 -4.069172e+000 0.000000e+000
      vertex   2.746440e+000 -3.890819e+000 2.540000e+000
      vertex   2.474519e+000 -4.069172e+000 2.540000e+000
    endloop
  endfacet
  facet normal 4.901102e-001 -8.716605e-001 0.000000e+000
    outer loop
      vertex   2.191060e+000 -4.228553e+000 0.000000e+000
      vertex   2.474519e+000 -4.069172e+000 2.540000e+000
      vertex   2.191060e+000 -4.228553e+000 2.540000e+000
    endloop
  endfacet
  facet normal 4.294834e-001 -9.030747e-001 0.000000e+000
    outer loop
      vertex   1.897385e+000 -4.368219e+000 0.000000e+000
      vertex   2.191060e+000 -4.228553e+000 2.540000e+000
      vertex   1.897385e+000 -4.368219e+000 2.540000e+000
    endloop
  endfacet
  facet normal 3.668542e-001 -9.302784e-001 0.000000e+000
    outer loop
      vertex   1.594864e+000 -4.487518e+000 0.000000e+000
      vertex   1.897385e+000 -4.368219e+000 2.540000e+000
      vertex   1.594864e+000 -4.487518e+000 2.540000e+000
    endloop
  endfacet
  facet normal 3.025146e-001 -9.531448e-001 0.000000e+000
    outer loop
      vertex   1.284907e+000 -4.585894e+000 0.000000e+000
      vertex   1.594864e+000 -4.487518e+000 2.540000e+000
      vertex   1.284907e+000 -4.585894e+000 2.540000e+000
    endloop
  endfacet
  facet normal 2.367644e-001 -9.715671e-001 0.000000e+000
    outer loop
      vertex   9.689593e-001 -4.662888e+000 0.000000e+000
      vertex   1.284907e+000 -4.585894e+000 2.540000e+000
      vertex   9.689593e-001 -4.662888e+000 2.540000e+000
    endloop
  endfacet
  facet normal 1.699104e-001 -9.854595e-001 0.000000e+000
    outer loop
      vertex   6.484937e-001 -4.718142e+000 0.000000e+000
      vertex   9.689593e-001 -4.662888e+000 2.540000e+000
      vertex   6.484937e-001 -4.718142e+000 2.540000e+000
    endloop
  endfacet
  facet normal 1.022641e-001 -9.947573e-001 0.000000e+000
    outer loop
      vertex   3.250045e-001 -4.751398e+000 0.000000e+000
      vertex   6.484937e-001 -4.718142e+000 2.540000e+000
      vertex   3.250045e-001 -4.751398e+000 2.540000e+000
    endloop
  endfacet
  facet normal 3.414111e-002 -9.994170e-001 0.000000e+000
    outer loop
      vertex   2.916190e-016 -4.762500e+000 0.000000e+000
      vertex   3.250045e-001 -4.751398e+000 2.540000e+000
      vertex   2.916190e-016 -4.762500e+000 2.540000e+000
    endloop
  endfacet
  facet normal -3.414111e-002 -9.994170e-001 0.000000e+000
    outer loop
      vertex   -3.250045e-001 -4.751398e+000 0.000000e+000
      vertex   2.916190e-016 -4.762500e+000 2.540000e+000
      vertex   -3.250045e-001 -4.751398e+000 2.540000e+000
    endloop
  endfacet
  facet normal -1.022641e-001 -9.947573e-001 0.000000e+000
    outer loop
      vertex   -6.484937e-001 -4.718142e+000 0.000000e+000
      vertex   -3.250045e-001 -4.751398e+000 2.540000e+000
      vertex   -6.484937e-001 -4.718142e+000 2.540000e+000
    endloop
  endfacet
  facet normal -1.699104e-001 -9.854595e-001 0.000000e+000
    outer loop
      vertex   -9.689593e-001 -4.662888e+000 0.000000e+000
      vertex   -6.484937e-001 -4.718142e+000 2.540000e+000
      vertex   -9.689593e-001 -4.662888e+000 2.540000e+000
    endloop
  endfacet
  facet normal -2.367644e-001 -9.715671e-001 0.000000e+000
    outer loop
      vertex   -1.284907e+000 -4.585894e+000 0.000000e+000
      vertex   -9.689593e-001 -4.662888e+000 2.540000e+000
      vertex   -1.284907e+000 -4.585894e+000 2.540000e+000
    endloop
  endfacet
  facet normal -3.025146e-001 -9.531448e-001 0.000000e+000
    outer loop
      vertex   -1.594864e+000 -4.487518e+000 0.000000e+000
      vertex   -1.284907e+000 -4.585894e+000 2.540000e+000
      vertex   -1.594864e+000 -4.487518e+000 2.540000e+000
    endloop
  endfacet
  facet normal -3.668542e-001 -9.302784e-001 0.000000e+000
    outer loop
      vertex   -1.897385e+000 -4.368219e+000 0.000000e+000
      vertex   -1.594864e+000 -4.487518e+000 2.540000e+000
      vertex   -1.897385e+000 -4.368219e+000 2.540000e+000
    endloop
  endfacet
  facet normal -4.294834e-001 -9.030747e-001 0.000000e+000
    outer loop
      vertex   -2.191060e+000 -4.228553e+000 0.000000e+000
      vertex   -1.897385e+000 -4.368219e+000 2.540000e+000
      vertex   -2.191060e+000 -4.228553e+000 2.540000e+000
    endloop
  endfacet
  facet normal -4.901102e-001 -8.716605e-001 0.000000e+000
    outer loop
      vertex   -2.474519e+000 -4.069172e+000 0.000000e+000
      vertex   -2.191060e+000 -4.228553e+000 2.540000e+000
      vertex   -2.474519e+000 -4.069172e+000 2.540000e+000
    endloop
  endfacet
  facet normal -5.484519e-001 -8.361821e-001 0.000000e+000
    outer loop
      vertex   -2.746440e+000 -3.890819e+000 0.000000e+000
      vertex   -2.474519e+000 -4.069172e+000 2.540000e+000
      vertex   -2.746440e+000 -3.890819e+000 2.540000e+000
    endloop
  endfacet
  facet normal -6.042364e-001 -7.968051e-001 0.000000e+000
    outer loop
      vertex   -3.005556e+000 -3.694325e+000 0.000000e+000
      vertex   -2.746440e+000 -3.890819e+000 2.540000e+000
      vertex   -3.005556e+000 -3.694325e+000 2.540000e+000
    endloop
  endfacet
  facet normal -6.572037e-001 -7.537130e-001 0.000000e+000
    outer loop
      vertex   -3.250659e+000 -3.480606e+000 0.000000e+000
      vertex   -3.005556e+000 -3.694325e+000 2.540000e+000
      vertex   -3.250659e+000 -3.480606e+000 2.540000e+000
    endloop
  endfacet
  facet normal -7.071068e-001 -7.071068e-001 0.000000e+000
    outer loop
      vertex   -3.480606e+000 -3.250659e+000 0.000000e+000
      vertex   -3.250659e+000 -3.480606e+000 2.540000e+000
      vertex   -3.480606e+000 -3.250659e+000 2.540000e+000
    endloop
  endfacet
  facet normal -7.537130e-001 -6.572037e-001 0.000000e+000
    outer loop
      vertex   -3.694325e+000 -3.005556e+000 0.000000e+000
      vertex   -3.480606e+000 -3.250659e+000 2.540000e+000
      vertex   -3.694325e+000 -3.005556e+000 2.540000e+000
    endloop
  endfacet
  facet normal -7.968051e-001 -6.042364e-001 0.000000e+000
    outer loop
      vertex   -3.890819e+000 -2.746440e+000 0.000000e+000
      vertex   -3.694325e+000 -3.005556e+000 2.540000e+000
      vertex   -3.890819e+000 -2.746440e+000 2.540000e+000
    endloop
  endfacet
  facet normal -8.361821e-001 -5.484519e-001 0.000000e+000
    outer loop
      vertex   -4.069172e+000 -2.474519e+000 0.000000e+000
      vertex   -3.890819e+000 -2.746440e+000 2.540000e+000
      vertex   -4.069172e+000 -2.474519e+000 2.540000e+000
    endloop
  endfacet
  facet normal -8.716605e-001 -4.901102e-001 0.000000e+000
    outer loop
      vertex   -4.228553e+000 -2.191060e+000 0.000000e+000
      vertex   -4.069172e+000 -2.474519e+000 2.540000e+000
      vertex   -4.228553e+000 -2.191060e+000 2.540000e+000
    endloop
  endfacet
  facet normal -9.030747e-001 -4.294834e-001 0.000000e+000
    outer loop
      vertex   -4.368219e+000 -1.897385e+000 0.000000e+000
      vertex   -4.228553e+000 -2.191060e+000 2.540000e+000
      vertex   -4.368219e+000 -1.897385e+000 2.540000e+000
    endloop
  endfacet
  facet normal -9.302784e-001 -3.668542e-001 0.000000e+000
    outer loop
      vertex   -4.487518e+000 -1.594864e+000 0.000000e+000
      vertex   -4.368219e+000 -1.897385e+000 2.540000e+000
      vertex   -4.487518e+000 -1.594864e+000 2.540000e+000
    endloop
  endfacet
  facet normal -9.531448e-001 -3.025146e-001 0.000000e+000
    outer loop
      vertex   -4.585894e+000 -1.284907e+000 0.000000e+000
      vertex   -4.487518e+000 -1.594864e+000 2.540000e+000
      vertex   -4.585894e+000 -1.284907e+000 2.540000e+000
    endloop
  endfacet
  facet normal -9.715671e-001 -2.367644e-001 0.000000e+000
    outer loop
      vertex   -4.662888e+000 -9.689593e-001 0.000000e+000
      vertex   -4.585894e+000 -1.284907e+000 2.540000e+000
      vertex   -4.662888e+000 -9.689593e-001 2.540000e+000
    endloop
  endfacet
  facet normal -9.854595e-001 -1.699104e-001 0.000000e+000
    outer loop
      vertex   -4.718142e+000 -6.484937e-001 0.000000e+000
      vertex   -4.662888e+000 -9.689593e-001 2.540000e+000
      vertex   -4.718142e+000 -6.484937e-001 2.540000e+000
    endloop
  endfacet
  facet normal -9.947573e-001 -1.022641e-001 0.000000e+000
    outer loop
      vertex   -4.751398e+000 -3.250045e-001 0.000000e+000
      vertex   -4.718142e+000 -6.484937e-001 2.540000e+000
      vertex   -4.751398e+000 -3.250045e-001 2.540000e+000
    endloop
  endfacet
  facet normal -9.994170e-001 -3.414111e-002 0.000000e+000
    outer loop
      vertex   -4.762500e+000 -5.832380e-016 0.000000e+000
      vertex   -4.751398e+000 -3.250045e-001 2.540000e+000
      vertex   -4.762500e+000 -5.832380e-016 2.540000e+000
    endloop
  endfacet
  facet normal -9.994170e-001 3.414111e-002 0.000000e+000
    outer loop
      vertex   -4.751398e+000 3.250045e-001 0.000000e+000
      vertex   -4.762500e+000 -5.832380e-016 0.000000e+000
      vertex   -4.762500e+000 -5.832380e-016 2.540000e+000
    endloop
  endfacet
  facet normal -9.715671e-001 2.367644e-001 0.000000e+000
    outer loop
      vertex   -4.662888e+000 9.689593e-001 0.000000e+000
      vertex   -4.662888e+000 9.689593e-001 2.540000e+000
      vertex   -4.585894e+000 1.284907e+000 0.000000e+000
    endloop
  endfacet
  facet normal -9.531448e-001 3.025146e-001 0.000000e+000
    outer loop
      vertex   -4.585894e+000 1.284907e+000 0.000000e+000
      vertex   -4.585894e+000 1.284907e+000 2.540000e+000
      vertex   -4.487518e+000 1.594864e+000 0.000000e+000
    endloop
  endfacet
  facet normal -9.302784e-001 3.668542e-001 0.000000e+000
    outer loop
      vertex   -4.487518e+000 1.594864e+000 0.000000e+000
      vertex   -4.487518e+000 1.594864e+000 2.540000e+000
      vertex   -4.368219e+000 1.897385e+000 0.000000e+000
    endloop
  endfacet
  facet normal -9.030747e-001 4.294834e-001 0.000000e+000
    outer loop
      vertex   -4.368219e+000 1.897385e+000 0.000000e+000
      vertex   -4.368219e+000 1.897385e+000 2.540000e+000
      vertex   -4.228553e+000 2.191060e+000 0.000000e+000
    endloop
  endfacet
  facet normal -8.716605e-001 4.901102e-001 0.000000e+000
    outer loop
      vertex   -4.228553e+000 2.191060e+000 0.000000e+000
      vertex   -4.228553e+000 2.191060e+000 2.540000e+000
      vertex   -4.069172e+000 2.474519e+000 0.000000e+000
    endloop
  endfacet
  facet normal -8.361821e-001 5.484519e-001 0.000000e+000
    outer loop
      vertex   -4.069172e+000 2.474519e+000 0.000000e+000
      vertex   -4.069172e+000 2.474519e+000 2.540000e+000
      vertex   -3.890819e+000 2.746440e+000 0.000000e+000
    endloop
  endfacet
  facet normal -7.968051e-001 6.042364e-001 0.000000e+000
    outer loop
      vertex   -3.890819e+000 2.746440e+000 0.000000e+000
      vertex   -3.890819e+000 2.746440e+000 2.540000e+000
      vertex   -3.694325e+000 3.005556e+000 0.000000e+000
    endloop
  endfacet
  facet normal -7.537130e-001 6.572037e-001 0.000000e+000
    outer loop
      vertex   -3.694325e+000 3.005556e+000 0.000000e+000
      vertex   -3.694325e+000 3.005556e+000 2.540000e+000
      vertex   -3.480606e+000 3.250659e+000 0.000000e+000
    endloop
  endfacet
  facet normal -7.071068e-001 7.071068e-001 0.000000e+000
    outer loop
      vertex   -3.480606e+000 3.250659e+000 0.000000e+000
      vertex   -3.480606e+000 3.250659e+000 2.540000e+000
      vertex   -3.250659e+000 3.480606e+000 0.000000e+000
    endloop
  endfacet
  facet normal -6.572037e-001 7.537130e-001 0.000000e+000
    outer loop
      vertex   -3.250659e+000 3.480606e+000 0.000000e+000
      vertex   -3.250659e+000 3.480606e+000 2.540000e+000
      vertex   -3.005556e+000 3.694325e+000 0.000000e+000
    endloop
  endfacet
  facet normal -6.042364e-001 7.968051e-001 0.000000e+000
    outer loop
      vertex   -3.005556e+000 3.694325e+000 0.000000e+000
      vertex   -3.005556e+000 3.694325e+000 2.540000e+000
      vertex   -2.746440e+000 3.890819e+000 0.000000e+000
    endloop
  endfacet
  facet normal -5.484519e-001 8.361821e-001 0.000000e+000
    outer loop
      vertex   -2.746440e+000 3.890819e+000 0.000000e+000
      vertex   -2.746440e+000 3.890819e+000 2.540000e+000
      vertex   -2.474519e+000 4.069172e+000 0.000000e+000
    endloop
  endfacet
  facet normal -4.901102e-001 8.716605e-001 0.000000e+000
    outer loop
      vertex   -2.474519e+000 4.069172e+000 0.000000e+000
      vertex   -2.474519e+000 4.069172e+000 2.540000e+000
      vertex   -2.191060e+000 4.228553e+000 0.000000e+000
    endloop
  endfacet
  facet normal -4.294834e-001 9.030747e-001 0.000000e+000
    outer loop
      vertex   -2.191060e+000 4.228553e+000 0.000000e+000
      vertex   -2.191060e+000 4.228553e+000 2.540000e+000
      vertex   -1.897385e+000 4.368219e+000 0.000000e+000
    endloop
  endfacet
  facet normal -3.668542e-001 9.302784e-001 0.000000e+000
    outer loop
      vertex   -1.897385e+000 4.368219e+000 0.000000e+000
      vertex   -1.897385e+000 4.368219e+000 2.540000e+000
      vertex   -1.594864e+000 4.487518e+000 0.000000e+000
    endloop
  endfacet
  facet normal -3.025146e-001 9.531448e-001 0.000000e+000
    outer loop
      vertex   -1.594864e+000 4.487518e+000 0.000000e+000
      vertex   -1.594864e+000 4.487518e+000 2.540000e+000
      vertex   -1.284907e+000 4.585894e+000 0.000000e+000
    endloop
  endfacet
  facet normal -2.367644e-001 9.715671e-001 0.000000e+000
    outer loop
      vertex   -1.284907e+000 4.585894e+000 0.000000e+000
      vertex   -1.284907e+000 4.585894e+000 2.540000e+000
      vertex   -9.689593e-001 4.662888e+000 0.000000e+000
    endloop
  endfacet
  facet normal -1.699104e-001 9.854595e-001 0.000000e+000
    outer loop
      vertex   -9.689593e-001 4.662888e+000 0.000000e+000
      vertex   -9.689593e-001 4.662888e+000 2.540000e+000
      vertex   -6.484937e-001 4.718142e+000 0.000000e+000
    endloop
  endfacet
  facet normal -1.022641e-001 9.947573e-001 0.000000e+000
    outer loop
      vertex   -6.484937e-001 4.718142e+000 0.000000e+000
      vertex   -6.484937e-001 4.718142e+000 2.540000e+000
      vertex   -3.250045e-001 4.751398e+000 0.000000e+000
    endloop
  endfacet
  facet normal -3.414111e-002 9.994170e-001 0.000000e+000
    outer loop
      vertex   -3.250045e-001 4.751398e+000 0.000000e+000
      vertex   -3.250045e-001 4.751398e+000 2.540000e+000
      vertex   2.916190e-016 4.762500e+000 0.000000e+000
    endloop
  endfacet
  facet normal 3.414111e-002 9.994170e-001 -0.000000e+000
    outer loop
      vertex   2.916190e-016 4.762500e+000 0.000000e+000
      vertex   2.916190e-016 4.762500e+000 2.540000e+000
      vertex   3.250045e-001 4.751398e+000 0.000000e+000
    endloop
  endfacet
  facet normal 1.022641e-001 9.947573e-001 -0.000000e+000
    outer loop
      vertex   3.250045e-001 4.751398e+000 0.000000e+000
      vertex   3.250045e-001 4.751398e+000 2.540000e+000
      vertex   6.484937e-001 4.718142e+000 0.000000e+000
    endloop
  endfacet
  facet normal 1.699104e-001 9.854595e-001 -0.000000e+000
    outer loop
      vertex   6.484937e-001 4.718142e+000 0.000000e+000
      vertex   6.484937e-001 4.718142e+000 2.540000e+000
      vertex   9.689593e-001 4.662888e+000 0.000000e+000
    endloop
  endfacet
  facet normal 2.367644e-001 9.715671e-001 -0.000000e+000
    outer loop
      vertex   9.689593e-001 4.662888e+000 0.000000e+000
      vertex   9.689593e-001 4.662888e+000 2.540000e+000
      vertex   1.284907e+000 4.585894e+000 0.000000e+000
    endloop
  endfacet
  facet normal 3.025146e-001 9.531448e-001 -0.000000e+000
    outer loop
      vertex   1.284907e+000 4.585894e+000 0.000000e+000
      vertex   1.284907e+000 4.585894e+000 2.540000e+000
      vertex   1.594864e+000 4.487518e+000 0.000000e+000
    endloop
  endfacet
  facet normal 3.668542e-001 9.302784e-001 -0.000000e+000
    outer loop
      vertex   1.594864e+000 4.487518e+000 0.000000e+000
      vertex   1.594864e+000 4.487518e+000 2.540000e+000
      vertex   1.897385e+000 4.368219e+000 0.000000e+000
    endloop
  endfacet
  facet normal 4.294834e-001 9.030747e-001 -0.000000e+000
    outer loop
      vertex   1.897385e+000 4.368219e+000 0.000000e+000
      vertex   1.897385e+000 4.368219e+000 2.540000e+000
      vertex   2.191060e+000 4.228553e+000 0.000000e+000
    endloop
  endfacet
  facet normal 4.901102e-001 8.716605e-001 -0.000000e+000
    outer loop
      vertex   2.191060e+000 4.228553e+000 0.000000e+000
      vertex   2.191060e+000 4.228553e+000 2.540000e+000
      vertex   2.474519e+000 4.069172e+000 0.000000e+000
    endloop
  endfacet
  facet normal 5.484519e-001 8.361821e-001 -0.000000e+000
    outer loop
      vertex   2.474519e+000 4.069172e+000 0.000000e+000
      vertex   2.474519e+000 4.069172e+000 2.540000e+000
      vertex   2.746440e+000 3.890819e+000 0.000000e+000
    endloop
  endfacet
  facet normal 6.042364e-001 7.968051e-001 -0.000000e+000
    outer loop
      vertex   2.746440e+000 3.890819e+000 0.000000e+000
      vertex   2.746440e+000 3.890819e+000 2.540000e+000
      vertex   3.005556e+000 3.694325e+000 0.000000e+000
    endloop
  endfacet
  facet normal 6.572037e-001 7.537130e-001 -0.000000e+000
    outer loop
      vertex   3.005556e+000 3.694325e+000 0.000000e+000
      vertex   3.005556e+000 3.694325e+000 2.540000e+000
      vertex   3.250659e+000 3.480606e+000 0.000000e+000
    endloop
  endfacet
  facet normal 7.071068e-001 7.071068e-001 -0.000000e+000
    outer loop
      vertex   3.250659e+000 3.480606e+000 0.000000e+000
      vertex   3.250659e+000 3.480606e+000 2.540000e+000
      vertex   3.480606e+000 3.250659e+000 0.000000e+000
    endloop
  endfacet
  facet normal 7.537130e-001 6.572037e-001 -0.000000e+000
    outer loop
      vertex   3.480606e+000 3.250659e+000 0.000000e+000
      vertex   3.480606e+000 3.250659e+000 2.540000e+000
      vertex   3.694325e+000 3.005556e+000 0.000000e+000
    endloop
  endfacet
  facet normal 7.968051e-001 6.042364e-001 -0.000000e+000
    outer loop
      vertex   3.694325e+000 3.005556e+000 0.000000e+000
      vertex   3.694325e+000 3.005556e+000 2.540000e+000
      vertex   3.890819e+000 2.746440e+000 0.000000e+000
    endloop
  endfacet
  facet normal 8.361821e-001 5.484519e-001 -0.000000e+000
    outer loop
      vertex   3.890819e+000 2.746440e+000 0.000000e+000
      vertex   3.890819e+000 2.746440e+000 2.540000e+000
      vertex   4.069172e+000 2.474519e+000 0.000000e+000
    endloop
  endfacet
  facet normal 8.716605e-001 4.901102e-001 -0.000000e+000
    outer loop
      vertex   4.069172e+000 2.474519e+000 0.000000e+000
      vertex   4.069172e+000 2.474519e+000 2.540000e+000
      vertex   4.228553e+000 2.191060e+000 0.000000e+000
    endloop
  endfacet
  facet normal 9.030747e-001 4.294834e-001 -0.000000e+000
    outer loop
      vertex   4.228553e+000 2.191060e+000 0.000000e+000
      vertex   4.228553e+000 2.191060e+000 2.540000e+000
      vertex   4.368219e+000 1.897385e+000 0.000000e+000
    endloop
  endfacet
  facet normal 9.302784e-001 3.668542e-001 -0.000000e+000
    outer loop
      vertex   4.368219e+000 1.897385e+000 0.000000e+000
      vertex   4.368219e+000 1.897385e+000 2.540000e+000
      vertex   4.487518e+000 1.594864e+000 0.000000e+000
    endloop
  endfacet
  facet normal 9.531448e-001 3.025146e-001 -0.000000e+000
    outer loop
      vertex   4.487518e+000 1.594864e+000 0.000000e+000
      vertex   4.487518e+000 1.594864e+000 2.540000e+000
      vertex   4.585894e+000 1.284907e+000 0.000000e+000
    endloop
  endfacet
  facet normal 9.715671e-001 2.367644e-001 -0.000000e+000
    outer loop
      vertex   4.585894e+000 1.284907e+000 0.000000e+000
      vertex   4.585894e+000 1.284907e+000 2.540000e+000
      vertex   4.662888e+000 9.689593e-001 0.000000e+000
    endloop
  endfacet
  facet normal 9.854595e-001 1.699104e-001 -0.000000e+000
    outer loop
      vertex   4.662888e+000 9.689593e-001 0.000000e+000
      vertex   4.662888e+000 9.689593e-001 2.540000e+000
      vertex   4.718142e+000 6.484937e-001 0.000000e+000
    endloop
  endfacet
  facet normal 9.947573e-001 1.022641e-001 -0.000000e+000
    outer loop
      vertex   4.718142e+000 6.484937e-001 0.000000e+000
      vertex   4.718142e+000 6.484937e-001 2.540000e+000
      vertex   4.751398e+000 3.250045e-001 0.000000e+000
    endloop
  endfacet
  facet normal 9.994170e-001 3.414111e-002 -0.000000e+000
    outer loop
      vertex   4.751398e+000 3.250045e-001 0.000000e+000
      vertex   4.751398e+000 3.250045e-001 2.540000e+000
      vertex   4.762500e+000 0.000000e+000 0.000000e+000
    endloop
  endfacet
  facet normal 9.994170e-001 -3.414111e-002 0.000000e+000
    outer loop
      vertex   4.762500e+000 0.000000e+000 0.000000e+000
      vertex   4.762500e+000 0.000000e+000 2.540000e+000
      vertex   4.751398e+000 -3.250045e-001 0.000000e+000
    endloop
  endfacet
  facet normal 9.947573e-001 -1.022641e-001 0.000000e+000
    outer loop
      vertex   4.751398e+000 -3.250045e-001 0.000000e+000
      vertex   4.751398e+000 -3.250045e-001 2.540000e+000
      vertex   4.718142e+000 -6.484937e-001 0.000000e+000
    endloop
  endfacet
  facet normal 9.854595e-001 -1.699104e-001 0.000000e+000
    outer loop
      vertex   4.718142e+000 -6.484937e-001 0.000000e+000
      vertex   4.718142e+000 -6.484937e-001 2.540000e+000
      vertex   4.662888e+000 -9.689593e-001 0.000000e+000
    endloop
  endfacet
  facet normal 9.715671e-001 -2.367644e-001 0.000000e+000
    outer loop
      vertex   4.662888e+000 -9.689593e-001 0.000000e+000
      vertex   4.662888e+000 -9.689593e-001 2.540000e+000
      vertex   4.585894e+000 -1.284907e+000 0.000000e+000
    endloop
  endfacet
  facet normal 9.531448e-001 -3.025146e-001 0.000000e+000
    outer loop
      vertex   4.585894e+000 -1.284907e+000 0.000000e+000
      vertex   4.585894e+000 -1.284907e+000 2.540000e+000
      vertex   4.487518e+000 -1.594864e+000 0.000000e+000
    endloop
  endfacet
  facet normal 9.302784e-001 -3.668542e-001 0.000000e+000
    outer loop
      vertex   4.487518e+000 -1.594864e+000 0.000000e+000
      vertex   4.487518e+000 -1.594864e+000 2.540000e+000
      vertex   4.368219e+000 -1.897385e+000 0.000000e+000
    endloop
  endfacet
  facet normal 9.030747e-001 -4.294834e-001 0.000000e+000
    outer loop
      vertex   4.368219e+000 -1.897385e+000 0.000000e+000
      vertex   4.368219e+000 -1.897385e+000 2.540000e+000
      vertex   4.228553e+000 -2.191060e+000 0.000000e+000
    endloop
  endfacet
  facet normal 8.716605e-001 -4.901102e-001 0.000000e+000
    outer loop
      vertex   4.228553e+000 -2.191060e+000 0.000000e+000
      vertex   4.228553e+000 -2.191060e+000 2.540000e+000
      vertex   4.069172e+000 -2.474519e+000 0.000000e+000
    endloop
  endfacet
  facet normal 8.361821e-001 -5.484519e-001 0.000000e+000
    outer loop
      vertex   4.069172e+000 -2.474519e+000 0.000000e+000
      vertex   4.069172e+000 -2.474519e+000 2.540000e+000
      vertex   3.890819e+000 -2.746440e+000 0.000000e+000
    endloop
  endfacet
  facet normal 7.968051e-001 -6.042364e-001 0.000000e+000
    outer loop
      vertex   3.890819e+000 -2.746440e+000 0.000000e+000
      vertex   3.890819e+000 -2.746440e+000 2.540000e+000
      vertex   3.694325e+000 -3.005556e+000 0.000000e+000
    endloop
  endfacet
  facet normal 7.537130e-001 -6.572037e-001 0.000000e+000
    outer loop
      vertex   3.694325e+000 -3.005556e+000 0.000000e+000
      vertex   3.694325e+000 -3.005556e+000 2.540000e+000
      vertex   3.480606e+000 -3.250659e+000 0.000000e+000
    endloop
  endfacet
  facet normal 7.071068e-001 -7.071068e-001 0.000000e+000
    outer loop
      vertex   3.480606e+000 -3.250659e+000 0.000000e+000
      vertex   3.480606e+000 -3.250659e+000 2.540000e+000
      vertex   3.250659e+000 -3.480606e+000 0.000000e+000
    endloop
  endfacet
  facet normal 6.572037e-001 -7.537130e-001 0.000000e+000
    outer loop
      vertex   3.250659e+000 -3.480606e+000 0.000000e+000
      vertex   3.250659e+000 -3.480606e+000 2.540000e+000
      vertex   3.005556e+000 -3.694325e+000 0.000000e+000
    endloop
  endfacet
  facet normal 6.042364e-001 -7.968051e-001 0.000000e+000
    outer loop
      vertex   3.005556e+000 -3.694325e+000 0.000000e+000
      vertex   3.005556e+000 -3.694325e+000 2.540000e+000
      vertex   2.746440e+000 -3.890819e+000 0.000000e+000
    endloop
  endfacet
  facet normal 5.484519e-001 -8.361821e-001 0.000000e+000
    outer loop
      vertex   2.746440e+000 -3.890819e+000 0.000000e+000
      vertex   2.746440e+000 -3.890819e+000 2.540000e+000
      vertex   2.474519e+000 -4.069172e+000 0.000000e+000
    endloop
  endfacet
  facet normal 4.901102e-001 -8.716605e-001 0.000000e+000
    outer loop
      vertex   2.474519e+000 -4.069172e+000 0.000000e+000
      vertex   2.474519e+000 -4.069172e+000 2.540000e+000
      vertex   2.191060e+000 -4.228553e+000 0.000000e+000
    endloop
  endfacet
  facet normal 4.294834e-001 -9.030747e-001 0.000000e+000
    outer loop
      vertex   2.191060e+000 -4.228553e+000 0.000000e+000
      vertex   2.191060e+000 -4.228553e+000 2.540000e+000
      vertex   1.897385e+000 -4.368219e+000 0.000000e+000
    endloop
  endfacet
  facet normal 3.668542e-001 -9.302784e-001 0.000000e+000
    outer loop
      vertex   1.897385e+000 -4.368219e+000 0.000000e+000
      vertex   1.897385e+000 -4.368219e+000 2.540000e+000
      vertex   1.594864e+000 -4.487518e+000 0.000000e+000
    endloop
  endfacet
  facet normal 3.025146e-001 -9.531448e-001 0.000000e+000
    outer loop
      vertex   1.594864e+000 -4.487518e+000 0.000000e+000
      vertex   1.594864e+000 -4.487518e+000 2.540000e+000
      vertex   1.284907e+000 -4.585894e+000 0.000000e+000
    endloop
  endfacet
  facet normal 2.367644e-001 -9.715671e-001 0.000000e+000
    outer loop
      vertex   1.284907e+000 -4.585894e+000 0.000000e+000
      vertex   1.284907e+000 -4.585894e+000 2.540000e+000
      vertex   9.689593e-001 -4.662888e+000 0.000000e+000
    endloop
  endfacet
  facet normal 1.699104e-001 -9.854595e-001 0.000000e+000
    outer loop
      vertex   9.689593e-001 -4.662888e+000 0.000000e+000
      vertex   9.689593e-001 -4.662888e+000 2.540000e+000
      vertex   6.484937e-001 -4.718142e+000 0.000000e+000
    endloop
  endfacet
  facet normal 1.022641e-001 -9.947573e-001 0.000000e+000
    outer loop
      vertex   6.484937e-001 -4.718142e+000 0.000000e+000
      vertex   6.484937e-001 -4.718142e+000 2.540000e+000
      vertex   3.250045e-001 -4.751398e+000 0.000000e+000
    endloop
  endfacet
  facet normal 3.414111e-002 -9.994170e-001 0.000000e+000
    outer loop
      vertex   3.250045e-001 -4.751398e+000 0.000000e+000
      vertex   3.250045e-001 -4.751398e+000 2.540000e+000
      vertex   2.916190e-016 -4.762500e+000 0.000000e+000
    endloop
  endfacet
  facet normal -3.414111e-002 -9.994170e-001 0.000000e+000
    outer loop
      vertex   2.916190e-016 -4.762500e+000 0.000000e+000
      vertex   2.916190e-016 -4.762500e+000 2.540000e+000
      vertex   -3.250045e-001 -4.751398e+000 0.000000e+000
    endloop
  endfacet
  facet normal -1.022641e-001 -9.947573e-001 0.000000e+000
    outer loop
      vertex   -3.250045e-001 -4.751398e+000 0.000000e+000
      vertex   -3.250045e-001 -4.751398e+000 2.540000e+000
      vertex   -6.484937e-001 -4.718142e+000 0.000000e+000
    endloop
  endfacet
  facet normal -1.699104e-001 -9.854595e-001 0.000000e+000
    outer loop
      vertex   -6.484937e-001 -4.718142e+000 0.000000e+000
      vertex   -6.484937e-001 -4.718142e+000 2.540000e+000
      vertex   -9.689593e-001 -4.662888e+000 0.000000e+000
    endloop
  endfacet
  facet normal -2.367644e-001 -9.715671e-001 0.000000e+000
    outer loop
      vertex   -9.689593e-001 -4.662888e+000 0.000000e+000
      vertex   -9.689593e-001 -4.662888e+000 2.540000e+000
      vertex   -1.284907e+000 -4.585894e+000 0.000000e+000
    endloop
  endfacet
  facet normal -3.025146e-001 -9.531448e-001 0.000000e+000
    outer loop
      vertex   -1.284907e+000 -4.585894e+000 0.000000e+000
      vertex   -1.284907e+000 -4.585894e+000 2.540000e+000
      vertex   -1.594864e+000 -4.487518e+000 0.000000e+000
    endloop
  endfacet
  facet normal -3.668542e-001 -9.302784e-001 0.000000e+000
    outer loop
      vertex   -1.594864e+000 -4.487518e+000 0.000000e+000
      vertex   -1.594864e+000 -4.487518e+000 2.540000e+000
      vertex   -1.897385e+000 -4.368219e+000 0.000000e+000
    endloop
  endfacet
  facet normal -4.294834e-001 -9.030747e-001 0.000000e+000
    outer loop
      vertex   -1.897385e+000 -4.368219e+000 0.000000e+000
      vertex   -1.897385e+000 -4.368219e+000 2.540000e+000
      vertex   -2.191060e+000 -4.228553e+000 0.000000e+000
    endloop
  endfacet
  facet normal -4.901102e-001 -8.716605e-001 0.000000e+000
    outer loop
      vertex   -2.191060e+000 -4.228553e+000 0.000000e+000
      vertex   -2.191060e+000 -4.228553e+000 2.540000e+000
      vertex   -2.474519e+000 -4.069172e+000 0.000000e+000
    endloop
  endfacet
  facet normal -5.484519e-001 -8.361821e-001 0.000000e+000
    outer loop
      vertex   -2.474519e+000 -4.069172e+000 0.000000e+000
      vertex   -2.474519e+000 -4.069172e+000 2.540000e+000
      vertex   -2.746440e+000 -3.890819e+000 0.000000e+000
    endloop
  endfacet
  facet normal -6.042364e-001 -7.968051e-001 0.000000e+000
    outer loop
      vertex   -2.746440e+000 -3.890819e+000 0.000000e+000
      vertex   -2.746440e+000 -3.890819e+000 2.540000e+000
      vertex   -3.005556e+000 -3.694325e+000 0.000000e+000
    endloop
  endfacet
  facet normal -6.572037e-001 -7.537130e-001 0.000000e+000
    outer loop
      vertex   -3.005556e+000 -3.694325e+000 0.000000e+000
      vertex   -3.005556e+000 -3.694325e+000 2.540000e+000
      vertex   -3.250659e+000 -3.480606e+000 0.000000e+000
    endloop
  endfacet
  facet normal -7.071068e-001 -7.071068e-001 0.000000e+000
    outer loop
      vertex   -3.250659e+000 -3.480606e+000 0.000000e+000
      vertex   -3.250659e+000 -3.480606e+000 2.540000e+000
      vertex   -3.480606e+000 -3.250659e+000 0.000000e+000
    endloop
  endfacet
  facet normal -7.537130e-001 -6.572037e-001 0.000000e+000
    outer loop
      vertex   -3.480606e+000 -3.250659e+000 0.000000e+000
      vertex   -3.480606e+000 -3.250659e+000 2.540000e+000
      vertex   -3.694325e+000 -3.005556e+000 0.000000e+000
    endloop
  endfacet
  facet normal -7.968051e-001 -6.042364e-001 0.000000e+000
    outer loop
      vertex   -3.694325e+000 -3.005556e+000 0.000000e+000
      vertex   -3.694325e+000 -3.005556e+000 2.540000e+000
      vertex   -3.890819e+000 -2.746440e+000 0.000000e+000
    endloop
  endfacet
  facet normal -8.361821e-001 -5.484519e-001 0.000000e+000
    outer loop
      vertex   -3.890819e+000 -2.746440e+000 0.000000e+000
      vertex   -3.890819e+000 -2.746440e+000 2.540000e+000
      vertex   -4.069172e+000 -2.474519e+000 0.000000e+000
    endloop
  endfacet
  facet normal -8.716605e-001 -4.901102e-001 0.000000e+000
    outer loop
      vertex   -4.069172e+000 -2.474519e+000 0.000000e+000
      vertex   -4.069172e+000 -2.474519e+000 2.540000e+000
      vertex   -4.228553e+000 -2.191060e+000 0.000000e+000
    endloop
  endfacet
  facet normal -9.030747e-001 -4.294834e-001 0.000000e+000
    outer loop
      vertex   -4.228553e+000 -2.191060e+000 0.000000e+000
      vertex   -4.228553e+000 -2.191060e+000 2.540000e+000
      vertex   -4.368219e+000 -1.897385e+000 0.000000e+000
    endloop
  endfacet
  facet normal -9.302784e-001 -3.668542e-001 0.000000e+000
    outer loop
      vertex   -4.368219e+000 -1.897385e+000 0.000000e+000
      vertex   -4.368219e+000 -1.897385e+000 2.540000e+000
      vertex   -4.487518e+000 -1.594864e+000 0.000000e+000
    endloop
  endfacet
  facet normal -9.531448e-001 -3.025146e-001 0.000000e+000
    outer loop
      vertex   -4.487518e+000 -1.594864e+000 0.000000e+000
      vertex   -4.487518e+000 -1.594864e+000 2.540000e+000
      vertex   -4.585894e+000 -1.284907e+000 0.000000e+000
    endloop
  endfacet
  facet normal -9.715671e-001 -2.367644e-001 0.000000e+000
    outer loop
      vertex   -4.585894e+000 -1.284907e+000 0.000000e+000
      vertex   -4.585894e+000 -1.284907e+000 2.540000e+000
      vertex   -4.662888e+000 -9.689593e-001 0.000000e+000
    endloop
  endfacet
  facet normal -9.854595e-001 -1.699104e-001 0.000000e+000
    outer loop
      vertex   -4.662888e+000 -9.689593e-001 0.000000e+000
      vertex   -4.662888e+000 -9.689593e-001 2.540000e+000
      vertex   -4.718142e+000 -6.484937e-001 0.000000e+000
    endloop
  endfacet
  facet normal -9.947573e-001 -1.022641e-001 0.000000e+000
    outer loop
      vertex   -4.718142e+000 -6.484937e-001 0.000000e+000
      vertex   -4.718142e+000 -6.484937e-001 2.540000e+000
      vertex   -4.751398e+000 -3.250045e-001 0.000000e+000
    endloop
  endfacet
  facet normal -9.994170e-001 -3.414111e-002 0.000000e+000
    outer loop
      vertex   -4.751398e+000 -3.250045e-001 0.000000e+000
      vertex   -4.751398e+000 -3.250045e-001 2.540000e+000
      vertex   -4.762500e+000 -5.832380e-016 0.000000e+000
    endloop
  endfacet
  facet normal 0.000000e+000 -0.000000e+000 1.000000e+000
    outer loop
      vertex   -4.751398e+000 -3.250045e-001 2.540000e+000
      vertex   4.751398e+000 -3.250045e-001 2.540000e+000
      vertex   -4.762500e+000 -5.832380e-016 2.540000e+000
    endloop
  endfacet
  facet normal -0.000000e+000 0.000000e+000 1.000000e+000
    outer loop
      vertex   -4.751398e+000 -3.250045e-001 2.540000e+000
      vertex   4.718142e+000 -6.484937e-001 2.540000e+000
      vertex   4.751398e+000 -3.250045e-001 2.540000e+000
    endloop
  endfacet
  facet normal -0.000000e+000 0.000000e+000 1.000000e+000
    outer loop
      vertex   -4.751398e+000 -3.250045e-001 2.540000e+000
      vertex   -4.718142e+000 -6.484937e-001 2.540000e+000
      vertex   4.718142e+000 -6.484937e-001 2.540000e+000
    endloop
  endfacet
  facet normal 0.000000e+000 0.000000e+000 1.000000e+000
    outer loop
      vertex   4.718142e+000 -6.484937e-001 2.540000e+000
      vertex   -4.718142e+000 -6.484937e-001 2.540000e+000
      vertex   4.662888e+000 -9.689593e-001 2.540000e+000
    endloop
  endfacet
  facet normal 0.000000e+000 0.000000e+000 1.000000e+000
    outer loop
      vertex   4.662888e+000 -9.689593e-001 2.540000e+000
      vertex   -4.718142e+000 -6.484937e-001 2.540000e+000
      vertex   -4.662888e+000 -9.689593e-001 2.540000e+000
    endloop
  endfacet
  facet normal 0.000000e+000 0.000000e+000 1.000000e+000
    outer loop
      vertex   4.585894e+000 -1.284907e+000 2.540000e+000
      vertex   -4.662888e+000 -9.689593e-001 2.540000e+000
      vertex   -4.585894e+000 -1.284907e+000 2.540000e+000
    endloop
  endfacet
  facet normal 0.000000e+000 0.000000e+000 1.000000e+000
    outer loop
      vertex   4.487518e+000 -1.594864e+000 2.540000e+000
      vertex   -4.585894e+000 -1.284907e+000 2.540000e+000
      vertex   -4.487518e+000 -1.594864e+000 2.540000e+000
    endloop
  endfacet
  facet normal 0.000000e+000 0.000000e+000 1.000000e+000
    outer loop
      vertex   4.368219e+000 -1.897385e+000 2.540000e+000
      vertex   -4.487518e+000 -1.594864e+000 2.540000e+000
      vertex   -4.368219e+000 -1.897385e+000 2.540000e+000
    endloop
  endfacet
  facet normal 0.000000e+000 0.000000e+000 1.000000e+000
    outer loop
      vertex   4.228553e+000 -2.191060e+000 2.540000e+000
      vertex   -4.368219e+000 -1.897385e+000 2.540000e+000
      vertex   -4.228553e+000 -2.191060e+000 2.540000e+000
    endloop
  endfacet
  facet normal 0.000000e+000 0.000000e+000 1.000000e+000
    outer loop
      vertex   4.069172e+000 -2.474519e+000 2.540000e+000
      vertex   -4.228553e+000 -2.191060e+000 2.540000e+000
      vertex   -4.069172e+000 -2.474519e+000 2.540000e+000
    endloop
  endfacet
  facet normal 0.000000e+000 0.000000e+000 1.000000e+000
    outer loop
      vertex   3.890819e+000 -2.746440e+000 2.540000e+000
      vertex   -4.069172e+000 -2.474519e+000 2.540000e+000
      vertex   -3.890819e+000 -2.746440e+000 2.540000e+000
    endloop
  endfacet
  facet normal 0.000000e+000 0.000000e+000 1.000000e+000
    outer loop
      vertex   3.694325e+000 -3.005556e+000 2.540000e+000
      vertex   -3.890819e+000 -2.746440e+000 2.540000e+000
      vertex   -3.694325e+000 -3.005556e+000 2.540000e+000
    endloop
  endfacet
  facet normal 0.000000e+000 0.000000e+000 1.000000e+000
    outer loop
      vertex   3.480606e+000 -3.250659e+000 2.540000e+000
      vertex   -3.694325e+000 -3.005556e+000 2.540000e+000
      vertex   -3.480606e+000 -3.250659e+000 2.540000e+000
    endloop
  endfacet
  facet normal 0.000000e+000 0.000000e+000 1.000000e+000
    outer loop
      vertex   3.250659e+000 -3.480606e+000 2.540000e+000
      vertex   -3.480606e+000 -3.250659e+000 2.540000e+000
      vertex   -3.250659e+000 -3.480606e+000 2.540000e+000
    endloop
  endfacet
  facet normal 0.000000e+000 0.000000e+000 1.000000e+000
    outer loop
      vertex   3.005556e+000 -3.694325e+000 2.540000e+000
      vertex   -3.250659e+000 -3.480606e+000 2.540000e+000
      vertex   -3.005556e+000 -3.694325e+000 2.540000e+000
    endloop
  endfacet
  facet normal 0.000000e+000 0.000000e+000 1.000000e+000
    outer loop
      vertex   2.746440e+000 -3.890819e+000 2.540000e+000
      vertex   -3.005556e+000 -3.694325e+000 2.540000e+000
      vertex   -2.746440e+000 -3.890819e+000 2.540000e+000
    endloop
  endfacet
  facet normal 0.000000e+000 0.000000e+000 1.000000e+000
    outer loop
      vertex   2.474519e+000 -4.069172e+000 2.540000e+000
      vertex   -2.746440e+000 -3.890819e+000 2.540000e+000
      vertex   -2.474519e+000 -4.069172e+000 2.540000e+000
    endloop
  endfacet
  facet normal 0.000000e+000 0.000000e+000 1.000000e+000
    outer loop
      vertex   2.191060e+000 -4.228553e+000 2.540000e+000
      vertex   -2.474519e+000 -4.069172e+000 2.540000e+000
      vertex   -2.191060e+000 -4.228553e+000 2.540000e+000
    endloop
  endfacet
  facet normal 0.000000e+000 0.000000e+000 1.000000e+000
    outer loop
      vertex   1.897385e+000 -4.368219e+000 2.540000e+000
      vertex   -2.191060e+000 -4.228553e+000 2.540000e+000
      vertex   -1.897385e+000 -4.368219e+000 2.540000e+000
    endloop
  endfacet
  facet normal 0.000000e+000 0.000000e+000 1.000000e+000
    outer loop
      vertex   1.594864e+000 -4.487518e+000 2.540000e+000
      vertex   -1.897385e+000 -4.368219e+000 2.540000e+000
      vertex   -1.594864e+000 -4.487518e+000 2.540000e+000
    endloop
  endfacet
  facet normal 0.000000e+000 0.000000e+000 1.000000e+000
    outer loop
      vertex   1.284907e+000 -4.585894e+000 2.540000e+000
      vertex   -1.594864e+000 -4.487518e+000 2.540000e+000
      vertex   -1.284907e+000 -4.585894e+000 2.540000e+000
    endloop
  endfacet
  facet normal 0.000000e+000 0.000000e+000 1.000000e+000
    outer loop
      vertex   9.689593e-001 -4.662888e+000 2.540000e+000
      vertex   -1.284907e+000 -4.585894e+000 2.540000e+000
      vertex   -9.689593e-001 -4.662888e+000 2.540000e+000
    endloop
  endfacet
  facet normal 0.000000e+000 0.000000e+000 1.000000e+000
    outer loop
      vertex   6.484937e-001 -4.718142e+000 2.540000e+000
      vertex   -9.689593e-001 -4.662888e+000 2.540000e+000
      vertex   -6.484937e-001 -4.718142e+000 2.540000e+000
    endloop
  endfacet
  facet normal 0.000000e+000 0.000000e+000 1.000000e+000
    outer loop
      vertex   3.250045e-001 -4.751398e+000 2.540000e+000
      vertex   -6.484937e-001 -4.718142e+000 2.540000e+000
      vertex   -3.250045e-001 -4.751398e+000 2.540000e+000
    endloop
  endfacet
  facet normal 0.000000e+000 -0.000000e+000 1.000000e+000
    outer loop
      vertex   2.916190e-016 -4.762500e+000 2.540000e+000
      vertex   3.250045e-001 -4.751398e+000 2.540000e+000
      vertex   -3.250045e-001 -4.751398e+000 2.540000e+000
    endloop
  endfacet
  facet normal 0.000000e+000 0.000000e+000 1.000000e+000
    outer loop
      vertex   4.662888e+000 -9.689593e-001 2.540000e+000
      vertex   -4.662888e+000 -9.689593e-001 2.540000e+000
      vertex   4.585894e+000 -1.284907e+000 2.540000e+000
    endloop
  endfacet
  facet normal 0.000000e+000 0.000000e+000 1.000000e+000
    outer loop
      vertex   4.585894e+000 -1.284907e+000 2.540000e+000
      vertex   -4.585894e+000 -1.284907e+000 2.540000e+000
      vertex   4.487518e+000 -1.594864e+000 2.540000e+000
    endloop
  endfacet
  facet normal 0.000000e+000 0.000000e+000 1.000000e+000
    outer loop
      vertex   4.487518e+000 -1.594864e+000 2.540000e+000
      vertex   -4.487518e+000 -1.594864e+000 2.540000e+000
      vertex   4.368219e+000 -1.897385e+000 2.540000e+000
    endloop
  endfacet
  facet normal 0.000000e+000 0.000000e+000 1.000000e+000
    outer loop
      vertex   4.368219e+000 -1.897385e+000 2.540000e+000
      vertex   -4.368219e+000 -1.897385e+000 2.540000e+000
      vertex   4.228553e+000 -2.191060e+000 2.540000e+000
    endloop
  endfacet
  facet normal 0.000000e+000 0.000000e+000 1.000000e+000
    outer loop
      vertex   4.228553e+000 -2.191060e+000 2.540000e+000
      vertex   -4.228553e+000 -2.191060e+000 2.540000e+000
      vertex   4.069172e+000 -2.474519e+000 2.540000e+000
    endloop
  endfacet
  facet normal 0.000000e+000 0.000000e+000 1.000000e+000
    outer loop
      vertex   4.069172e+000 -2.474519e+000 2.540000e+000
      vertex   -4.069172e+000 -2.474519e+000 2.540000e+000
      vertex   3.890819e+000 -2.746440e+000 2.540000e+000
    endloop
  endfacet
  facet normal 0.000000e+000 0.000000e+000 1.000000e+000
    outer loop
      vertex   3.890819e+000 -2.746440e+000 2.540000e+000
      vertex   -3.890819e+000 -2.746440e+000 2.540000e+000
      vertex   3.694325e+000 -3.005556e+000 2.540000e+000
    endloop
  endfacet
  facet normal 0.000000e+000 0.000000e+000 1.000000e+000
    outer loop
      vertex   3.694325e+000 -3.005556e+000 2.540000e+000
      vertex   -3.694325e+000 -3.005556e+000 2.540000e+000
      vertex   3.480606e+000 -3.250659e+000 2.540000e+000
    endloop
  endfacet
  facet normal 0.000000e+000 0.000000e+000 1.000000e+000
    outer loop
      vertex   3.480606e+000 -3.250659e+000 2.540000e+000
      vertex   -3.480606e+000 -3.250659e+000 2.540000e+000
      vertex   3.250659e+000 -3.480606e+000 2.540000e+000
    endloop
  endfacet
  facet normal 0.000000e+000 0.000000e+000 1.000000e+000
    outer loop
      vertex   3.250659e+000 -3.480606e+000 2.540000e+000
      vertex   -3.250659e+000 -3.480606e+000 2.540000e+000
      vertex   3.005556e+000 -3.694325e+000 2.540000e+000
    endloop
  endfacet
  facet normal 0.000000e+000 0.000000e+000 1.000000e+000
    outer loop
      vertex   3.005556e+000 -3.694325e+000 2.540000e+000
      vertex   -3.005556e+000 -3.694325e+000 2.540000e+000
      vertex   2.746440e+000 -3.890819e+000 2.540000e+000
    endloop
  endfacet
  facet normal 0.000000e+000 0.000000e+000 1.000000e+000
    outer loop
      vertex   2.746440e+000 -3.890819e+000 2.540000e+000
      vertex   -2.746440e+000 -3.890819e+000 2.540000e+000
      vertex   2.474519e+000 -4.069172e+000 2.540000e+000
    endloop
  endfacet
  facet normal 0.000000e+000 0.000000e+000 1.000000e+000
    outer loop
      vertex   2.474519e+000 -4.069172e+000 2.540000e+000
      vertex   -2.474519e+000 -4.069172e+000 2.540000e+000
      vertex   2.191060e+000 -4.228553e+000 2.540000e+000
    endloop
  endfacet
  facet normal 0.000000e+000 0.000000e+000 1.000000e+000
    outer loop
      vertex   2.191060e+000 -4.228553e+000 2.540000e+000
      vertex   -2.191060e+000 -4.228553e+000 2.540000e+000
      vertex   1.897385e+000 -4.368219e+000 2.540000e+000
    endloop
  endfacet
  facet normal 0.000000e+000 0.000000e+000 1.000000e+000
    outer loop
      vertex   1.897385e+000 -4.368219e+000 2.540000e+000
      vertex   -1.897385e+000 -4.368219e+000 2.540000e+000
      vertex   1.594864e+000 -4.487518e+000 2.540000e+000
    endloop
  endfacet
  facet normal 0.000000e+000 0.000000e+000 1.000000e+000
    outer loop
      vertex   1.594864e+000 -4.487518e+000 2.540000e+000
      vertex   -1.594864e+000 -4.487518e+000 2.540000e+000
      vertex   1.284907e+000 -4.585894e+000 2.540000e+000
    endloop
  endfacet
  facet normal 0.000000e+000 0.000000e+000 1.000000e+000
    outer loop
      vertex   1.284907e+000 -4.585894e+000 2.540000e+000
      vertex   -1.284907e+000 -4.585894e+000 2.540000e+000
      vertex   9.689593e-001 -4.662888e+000 2.540000e+000
    endloop
  endfacet
  facet normal 0.000000e+000 0.000000e+000 1.000000e+000
    outer loop
      vertex   9.689593e-001 -4.662888e+000 2.540000e+000
      vertex   -9.689593e-001 -4.662888e+000 2.540000e+000
      vertex   6.484937e-001 -4.718142e+000 2.540000e+000
    endloop
  endfacet
  facet normal 0.000000e+000 0.000000e+000 1.000000e+000
    outer loop
      vertex   6.484937e-001 -4.718142e+000 2.540000e+000
      vertex   -6.484937e-001 -4.718142e+000 2.540000e+000
      vertex   3.250045e-001 -4.751398e+000 2.540000e+000
    endloop
  endfacet
  facet normal 0.000000e+000 -0.000000e+000 1.000000e+000
    outer loop
      vertex   4.751398e+000 -3.250045e-001 2.540000e+000
      vertex   4.762500e+000 0.000000e+000 2.540000e+000
      vertex   -4.762500e+000 -5.832380e-016 2.540000e+000
    endloop
  endfacet
  facet normal 0.000000e+000 -0.000000e+000 1.000000e+000
    outer loop
      vertex   -4.762500e+000 -5.832380e-016 2.540000e+000
      vertex   4.762500e+000 0.000000e+000 2.540000e+000
      vertex   -4.751398e+000 3.250045e-001 2.540000e+000
    endloop
  endfacet
  facet normal -0.000000e+000 -0.000000e+000 1.000000e+000
    outer loop
      vertex   -4.751398e+000 3.250045e-001 2.540000e+000
      vertex   4.762500e+000 0.000000e+000 2.540000e+000
      vertex   4.751398e+000 3.250045e-001 2.540000e+000
    endloop
  endfacet
  facet normal -0.000000e+000 -0.000000e+000 1.000000e+000
    outer loop
      vertex   -4.718142e+000 6.484937e-001 2.540000e+000
      vertex   4.751398e+000 3.250045e-001 2.540000e+000
      vertex   4.718142e+000 6.484937e-001 2.540000e+000
    endloop
  endfacet
  facet normal -0.000000e+000 -0.000000e+000 1.000000e+000
    outer loop
      vertex   -4.662888e+000 9.689593e-001 2.540000e+000
      vertex   4.718142e+000 6.484937e-001 2.540000e+000
      vertex   4.662888e+000 9.689593e-001 2.540000e+000
    endloop
  endfacet
  facet normal -0.000000e+000 -0.000000e+000 1.000000e+000
    outer loop
      vertex   -4.585894e+000 1.284907e+000 2.540000e+000
      vertex   4.662888e+000 9.689593e-001 2.540000e+000
      vertex   4.585894e+000 1.284907e+000 2.540000e+000
    endloop
  endfacet
  facet normal -0.000000e+000 -0.000000e+000 1.000000e+000
    outer loop
      vertex   -4.487518e+000 1.594864e+000 2.540000e+000
      vertex   4.585894e+000 1.284907e+000 2.540000e+000
      vertex   4.487518e+000 1.594864e+000 2.540000e+000
    endloop
  endfacet
  facet normal -0.000000e+000 -0.000000e+000 1.000000e+000
    outer loop
      vertex   -4.368219e+000 1.897385e+000 2.540000e+000
      vertex   4.487518e+000 1.594864e+000 2.540000e+000
      vertex   4.368219e+000 1.897385e+000 2.540000e+000
    endloop
  endfacet
  facet normal -0.000000e+000 -0.000000e+000 1.000000e+000
    outer loop
      vertex   -4.228553e+000 2.191060e+000 2.540000e+000
      vertex   4.368219e+000 1.897385e+000 2.540000e+000
      vertex   4.228553e+000 2.191060e+000 2.540000e+000
    endloop
  endfacet
  facet normal -0.000000e+000 -0.000000e+000 1.000000e+000
    outer loop
      vertex   -4.069172e+000 2.474519e+000 2.540000e+000
      vertex   4.228553e+000 2.191060e+000 2.540000e+000
      vertex   4.069172e+000 2.474519e+000 2.540000e+000
    endloop
  endfacet
  facet normal -0.000000e+000 -0.000000e+000 1.000000e+000
    outer loop
      vertex   -3.890819e+000 2.746440e+000 2.540000e+000
      vertex   4.069172e+000 2.474519e+000 2.540000e+000
      vertex   3.890819e+000 2.746440e+000 2.540000e+000
    endloop
  endfacet
  facet normal -0.000000e+000 -0.000000e+000 1.000000e+000
    outer loop
      vertex   -3.694325e+000 3.005556e+000 2.540000e+000
      vertex   3.890819e+000 2.746440e+000 2.540000e+000
      vertex   3.694325e+000 3.005556e+000 2.540000e+000
    endloop
  endfacet
  facet normal -0.000000e+000 -0.000000e+000 1.000000e+000
    outer loop
      vertex   -3.480606e+000 3.250659e+000 2.540000e+000
      vertex   3.694325e+000 3.005556e+000 2.540000e+000
      vertex   3.480606e+000 3.250659e+000 2.540000e+000
    endloop
  endfacet
  facet normal -0.000000e+000 -0.000000e+000 1.000000e+000
    outer loop
      vertex   -3.250659e+000 3.480606e+000 2.540000e+000
      vertex   3.480606e+000 3.250659e+000 2.540000e+000
      vertex   3.250659e+000 3.480606e+000 2.540000e+000
    endloop
  endfacet
  facet normal -0.000000e+000 -0.000000e+000 1.000000e+000
    outer loop
      vertex   -3.005556e+000 3.694325e+000 2.540000e+000
      vertex   3.250659e+000 3.480606e+000 2.540000e+000
      vertex   3.005556e+000 3.694325e+000 2.540000e+000
    endloop
  endfacet
  facet normal -0.000000e+000 -0.000000e+000 1.000000e+000
    outer loop
      vertex   -2.746440e+000 3.890819e+000 2.540000e+000
      vertex   3.005556e+000 3.694325e+000 2.540000e+000
      vertex   2.746440e+000 3.890819e+000 2.540000e+000
    endloop
  endfacet
  facet normal -0.000000e+000 -0.000000e+000 1.000000e+000
    outer loop
      vertex   -2.474519e+000 4.069172e+000 2.540000e+000
      vertex   2.746440e+000 3.890819e+000 2.540000e+000
      vertex   2.474519e+000 4.069172e+000 2.540000e+000
    endloop
  endfacet
  facet normal -0.000000e+000 -0.000000e+000 1.000000e+000
    outer loop
      vertex   -2.191060e+000 4.228553e+000 2.540000e+000
      vertex   2.474519e+000 4.069172e+000 2.540000e+000
      vertex   2.191060e+000 4.228553e+000 2.540000e+000
    endloop
  endfacet
  facet normal -0.000000e+000 -0.000000e+000 1.000000e+000
    outer loop
      vertex   -1.897385e+000 4.368219e+000 2.540000e+000
      vertex   2.191060e+000 4.228553e+000 2.540000e+000
      vertex   1.897385e+000 4.368219e+000 2.540000e+000
    endloop
  endfacet
  facet normal -0.000000e+000 -0.000000e+000 1.000000e+000
    outer loop
      vertex   -1.594864e+000 4.487518e+000 2.540000e+000
      vertex   1.897385e+000 4.368219e+000 2.540000e+000
      vertex   1.594864e+000 4.487518e+000 2.540000e+000
    endloop
  endfacet
  facet normal -0.000000e+000 -0.000000e+000 1.000000e+000
    outer loop
      vertex   -1.284907e+000 4.585894e+000 2.540000e+000
      vertex   1.594864e+000 4.487518e+000 2.540000e+000
      vertex   1.284907e+000 4.585894e+000 2.540000e+000
    endloop
  endfacet
  facet normal -0.000000e+000 -0.000000e+000 1.000000e+000
    outer loop
      vertex   -9.689593e-001 4.662888e+000 2.540000e+000
      vertex   1.284907e+000 4.585894e+000 2.540000e+000
      vertex   9.689593e-001 4.662888e+000 2.540000e+000
    endloop
  endfacet
  facet normal -0.000000e+000 -0.000000e+000 1.000000e+000
    outer loop
      vertex   -6.484937e-001 4.718142e+000 2.540000e+000
      vertex   9.689593e-001 4.662888e+000 2.540000e+000
      vertex   6.484937e-001 4.718142e+000 2.540000e+000
    endloop
  endfacet
  facet normal -0.000000e+000 -0.000000e+000 1.000000e+000
    outer loop
      vertex   -3.250045e-001 4.751398e+000 2.540000e+000
      vertex   6.484937e-001 4.718142e+000 2.540000e+000
      vertex   3.250045e-001 4.751398e+000 2.540000e+000
    endloop
  endfacet
  facet normal -0.000000e+000 0.000000e+000 1.000000e+000
    outer loop
      vertex   2.916190e-016 4.762500e+000 2.540000e+000
      vertex   -3.250045e-001 4.751398e+000 2.540000e+000
      vertex   3.250045e-001 4.751398e+000 2.540000e+000
    endloop
  endfacet
  facet normal -0.000000e+000 -0.000000e+000 1.000000e+000
    outer loop
      vertex   -4.751398e+000 3.250045e-001 2.540000e+000
      vertex   4.751398e+000 3.250045e-001 2.540000e+000
      vertex   -4.718142e+000 6.484937e-001 2.540000e+000
    endloop
  endfacet
  facet normal -0.000000e+000 -0.000000e+000 1.000000e+000
    outer loop
      vertex   -4.718142e+000 6.484937e-001 2.540000e+000
      vertex   4.718142e+000 6.484937e-001 2.540000e+000
      vertex   -4.662888e+000 9.689593e-001 2.540000e+000
    endloop
  endfacet
  facet normal 0.000000e+000 -0.000000e+000 1.000000e+000
    outer loop
      vertex   -4.662888e+000 9.689593e-001 2.540000e+000
      vertex   4.662888e+000 9.689593e-001 2.540000e+000
      vertex   -4.585894e+000 1.284907e+000 2.540000e+000
    endloop
  endfacet
  facet normal -0.000000e+000 -0.000000e+000 1.000000e+000
    outer loop
      vertex   -4.585894e+000 1.284907e+000 2.540000e+000
      vertex   4.585894e+000 1.284907e+000 2.540000e+000
      vertex   -4.487518e+000 1.594864e+000 2.540000e+000
    endloop
  endfacet
  facet normal -0.000000e+000 -0.000000e+000 1.000000e+000
    outer loop
      vertex   -4.487518e+000 1.594864e+000 2.540000e+000
      vertex   4.487518e+000 1.594864e+000 2.540000e+000
      vertex   -4.368219e+000 1.897385e+000 2.540000e+000
    endloop
  endfacet
  facet normal -0.000000e+000 -0.000000e+000 1.000000e+000
    outer loop
      vertex   -4.368219e+000 1.897385e+000 2.540000e+000
      vertex   4.368219e+000 1.897385e+000 2.540000e+000
      vertex   -4.228553e+000 2.191060e+000 2.540000e+000
    endloop
  endfacet
  facet normal -0.000000e+000 -0.000000e+000 1.000000e+000
    outer loop
      vertex   -4.228553e+000 2.191060e+000 2.540000e+000
      vertex   4.228553e+000 2.191060e+000 2.540000e+000
      vertex   -4.069172e+000 2.474519e+000 2.540000e+000
    endloop
  endfacet
  facet normal -0.000000e+000 -0.000000e+000 1.000000e+000
    outer loop
      vertex   -4.069172e+000 2.474519e+000 2.540000e+000
      vertex   4.069172e+000 2.474519e+000 2.540000e+000
      vertex   -3.890819e+000 2.746440e+000 2.540000e+000
    endloop
  endfacet
  facet normal -0.000000e+000 -0.000000e+000 1.000000e+000
    outer loop
      vertex   -3.890819e+000 2.746440e+000 2.540000e+000
      vertex   3.890819e+000 2.746440e+000 2.540000e+000
      vertex   -3.694325e+000 3.005556e+000 2.540000e+000
    endloop
  endfacet
  facet normal -0.000000e+000 -0.000000e+000 1.000000e+000
    outer loop
      vertex   -3.694325e+000 3.005556e+000 2.540000e+000
      vertex   3.694325e+000 3.005556e+000 2.540000e+000
      vertex   -3.480606e+000 3.250659e+000 2.540000e+000
    endloop
  endfacet
  facet normal -0.000000e+000 -0.000000e+000 1.000000e+000
    outer loop
      vertex   -3.480606e+000 3.250659e+000 2.540000e+000
      vertex   3.480606e+000 3.250659e+000 2.540000e+000
      vertex   -3.250659e+000 3.480606e+000 2.540000e+000
    endloop
  endfacet
  facet normal -0.000000e+000 -0.000000e+000 1.000000e+000
    outer loop
      vertex   -3.250659e+000 3.480606e+000 2.540000e+000
      vertex   3.250659e+000 3.480606e+000 2.540000e+000
      vertex   -3.005556e+000 3.694325e+000 2.540000e+000
    endloop
  endfacet
  facet normal -0.000000e+000 -0.000000e+000 1.000000e+000
    outer loop
      vertex   -3.005556e+000 3.694325e+000 2.540000e+000
      vertex   3.005556e+000 3.694325e+000 2.540000e+000
      vertex   -2.746440e+000 3.890819e+000 2.540000e+000
    endloop
  endfacet
  facet normal -0.000000e+000 -0.000000e+000 1.000000e+000
    outer loop
      vertex   -2.746440e+000 3.890819e+000 2.540000e+000
      vertex   2.746440e+000 3.890819e+000 2.540000e+000
      vertex   -2.474519e+000 4.069172e+000 2.540000e+000
    endloop
  endfacet
  facet normal 0.000000e+000 -0.000000e+000 1.000000e+000
    outer loop
      vertex   -2.474519e+000 4.069172e+000 2.540000e+000
      vertex   2.474519e+000 4.069172e+000 2.540000e+000
      vertex   -2.191060e+000 4.228553e+000 2.540000e+000
    endloop
  endfacet
  facet normal -0.000000e+000 -0.000000e+000 1.000000e+000
    outer loop
      vertex   -2.191060e+000 4.228553e+000 2.540000e+000
      vertex   2.191060e+000 4.228553e+000 2.540000e+000
      vertex   -1.897385e+000 4.368219e+000 2.540000e+000
    endloop
  endfacet
  facet normal 0.000000e+000 -0.000000e+000 1.000000e+000
    outer loop
      vertex   -1.897385e+000 4.368219e+000 2.540000e+000
      vertex   1.897385e+000 4.368219e+000 2.540000e+000
      vertex   -1.594864e+000 4.487518e+000 2.540000e+000
    endloop
  endfacet
  facet normal -0.000000e+000 -0.000000e+000 1.000000e+000
    outer loop
      vertex   -1.594864e+000 4.487518e+000 2.540000e+000
      vertex   1.594864e+000 4.487518e+000 2.540000e+000
      vertex   -1.284907e+000 4.585894e+000 2.540000e+000
    endloop
  endfacet
  facet normal 0.000000e+000 -0.000000e+000 1.000000e+000
    outer loop
      vertex   -1.284907e+000 4.585894e+000 2.540000e+000
      vertex   1.284907e+000 4.585894e+000 2.540000e+000
      vertex   -9.689593e-001 4.662888e+000 2.540000e+000
    endloop
  endfacet
  facet normal 0.000000e+000 -0.000000e+000 1.000000e+000
    outer loop
      vertex   -9.689593e-001 4.662888e+000 2.540000e+000
      vertex   9.689593e-001 4.662888e+000 2.540000e+000
      vertex   -6.484937e-001 4.718142e+000 2.540000e+000
    endloop
  endfacet
  facet normal -0.000000e+000 -0.000000e+000 1.000000e+000
    outer loop
      vertex   -6.484937e-001 4.718142e+000 2.540000e+000
      vertex   6.484937e-001 4.718142e+000 2.540000e+000
      vertex   -3.250045e-001 4.751398e+000 2.540000e+000
    endloop
  endfacet
  facet normal 0.000000e+000 -0.000000e+000 -1.000000e+000
    outer loop
      vertex   -4.751398e+000 3.250045e-001 0.000000e+000
      vertex   4.751398e+000 3.250045e-001 0.000000e+000
      vertex   -4.762500e+000 -5.832380e-016 0.000000e+000
    endloop
  endfacet
  facet normal 0.000000e+000 0.000000e+000 -1.000000e+000
    outer loop
      vertex   -4.751398e+000 3.250045e-001 0.000000e+000
      vertex   4.718142e+000 6.484937e-001 0.000000e+000
      vertex   4.751398e+000 3.250045e-001 0.000000e+000
    endloop
  endfacet
  facet normal 0.000000e+000 0.000000e+000 -1.000000e+000
    outer loop
      vertex   -4.751398e+000 3.250045e-001 0.000000e+000
      vertex   -4.718142e+000 6.484937e-001 0.000000e+000
      vertex   4.718142e+000 6.484937e-001 0.000000e+000
    endloop
  endfacet
  facet normal 0.000000e+000 0.000000e+000 -1.000000e+000
    outer loop
      vertex   4.718142e+000 6.484937e-001 0.000000e+000
      vertex   -4.718142e+000 6.484937e-001 0.000000e+000
      vertex   4.662888e+000 9.689593e-001 0.000000e+000
    endloop
  endfacet
  facet normal -0.000000e+000 0.000000e+000 -1.000000e+000
    outer loop
      vertex   4.662888e+000 9.689593e-001 0.000000e+000
      vertex   -4.718142e+000 6.484937e-001 0.000000e+000
      vertex   -4.662888e+000 9.689593e-001 0.000000e+000
    endloop
  endfacet
  facet normal -0.000000e+000 0.000000e+000 -1.000000e+000
    outer loop
      vertex   4.585894e+000 1.284907e+000 0.000000e+000
      vertex   -4.662888e+000 9.689593e-001 0.000000e+000
      vertex   -4.585894e+000 1.284907e+000 0.000000e+000
    endloop
  endfacet
  facet normal -0.000000e+000 0.000000e+000 -1.000000e+000
    outer loop
      vertex   4.487518e+000 1.594864e+000 0.000000e+000
      vertex   -4.585894e+000 1.284907e+000 0.000000e+000
      vertex   -4.487518e+000 1.594864e+000 0.000000e+000
    endloop
  endfacet
  facet normal -0.000000e+000 0.000000e+000 -1.000000e+000
    outer loop
      vertex   4.368219e+000 1.897385e+000 0.000000e+000
      vertex   -4.487518e+000 1.594864e+000 0.000000e+000
      vertex   -4.368219e+000 1.897385e+000 0.000000e+000
    endloop
  endfacet
  facet normal -0.000000e+000 0.000000e+000 -1.000000e+000
    outer loop
      vertex   4.228553e+000 2.191060e+000 0.000000e+000
      vertex   -4.368219e+000 1.897385e+000 0.000000e+000
      vertex   -4.228553e+000 2.191060e+000 0.000000e+000
    endloop
  endfacet
  facet normal -0.000000e+000 0.000000e+000 -1.000000e+000
    outer loop
      vertex   4.069172e+000 2.474519e+000 0.000000e+000
      vertex   -4.228553e+000 2.191060e+000 0.000000e+000
      vertex   -4.069172e+000 2.474519e+000 0.000000e+000
    endloop
  endfacet
  facet normal -0.000000e+000 0.000000e+000 -1.000000e+000
    outer loop
      vertex   3.890819e+000 2.746440e+000 0.000000e+000
      vertex   -4.069172e+000 2.474519e+000 0.000000e+000
      vertex   -3.890819e+000 2.746440e+000 0.000000e+000
    endloop
  endfacet
  facet normal -0.000000e+000 0.000000e+000 -1.000000e+000
    outer loop
      vertex   3.694325e+000 3.005556e+000 0.000000e+000
      vertex   -3.890819e+000 2.746440e+000 0.000000e+000
      vertex   -3.694325e+000 3.005556e+000 0.000000e+000
    endloop
  endfacet
  facet normal -0.000000e+000 0.000000e+000 -1.000000e+000
    outer loop
      vertex   3.480606e+000 3.250659e+000 0.000000e+000
      vertex   -3.694325e+000 3.005556e+000 0.000000e+000
      vertex   -3.480606e+000 3.250659e+000 0.000000e+000
    endloop
  endfacet
  facet normal -0.000000e+000 0.000000e+000 -1.000000e+000
    outer loop
      vertex   3.250659e+000 3.480606e+000 0.000000e+000
      vertex   -3.480606e+000 3.250659e+000 0.000000e+000
      vertex   -3.250659e+000 3.480606e+000 0.000000e+000
    endloop
  endfacet
  facet normal -0.000000e+000 0.000000e+000 -1.000000e+000
    outer loop
      vertex   3.005556e+000 3.694325e+000 0.000000e+000
      vertex   -3.250659e+000 3.480606e+000 0.000000e+000
      vertex   -3.005556e+000 3.694325e+000 0.000000e+000
    endloop
  endfacet
  facet normal -0.000000e+000 0.000000e+000 -1.000000e+000
    outer loop
      vertex   2.746440e+000 3.890819e+000 0.000000e+000
      vertex   -3.005556e+000 3.694325e+000 0.000000e+000
      vertex   -2.746440e+000 3.890819e+000 0.000000e+000
    endloop
  endfacet
  facet normal -0.000000e+000 0.000000e+000 -1.000000e+000
    outer loop
      vertex   2.474519e+000 4.069172e+000 0.000000e+000
      vertex   -2.746440e+000 3.890819e+000 0.000000e+000
      vertex   -2.474519e+000 4.069172e+000 0.000000e+000
    endloop
  endfacet
  facet normal -0.000000e+000 0.000000e+000 -1.000000e+000
    outer loop
      vertex   2.191060e+000 4.228553e+000 0.000000e+000
      vertex   -2.474519e+000 4.069172e+000 0.000000e+000
      vertex   -2.191060e+000 4.228553e+000 0.000000e+000
    endloop
  endfacet
  facet normal -0.000000e+000 0.000000e+000 -1.000000e+000
    outer loop
      vertex   1.897385e+000 4.368219e+000 0.000000e+000
      vertex   -2.191060e+000 4.228553e+000 0.000000e+000
      vertex   -1.897385e+000 4.368219e+000 0.000000e+000
    endloop
  endfacet
  facet normal -0.000000e+000 0.000000e+000 -1.000000e+000
    outer loop
      vertex   1.594864e+000 4.487518e+000 0.000000e+000
      vertex   -1.897385e+000 4.368219e+000 0.000000e+000
      vertex   -1.594864e+000 4.487518e+000 0.000000e+000
    endloop
  endfacet
  facet normal -0.000000e+000 0.000000e+000 -1.000000e+000
    outer loop
      vertex   1.284907e+000 4.585894e+000 0.000000e+000
      vertex   -1.594864e+000 4.487518e+000 0.000000e+000
      vertex   -1.284907e+000 4.585894e+000 0.000000e+000
    endloop
  endfacet
  facet normal -0.000000e+000 0.000000e+000 -1.000000e+000
    outer loop
      vertex   9.689593e-001 4.662888e+000 0.000000e+000
      vertex   -1.284907e+000 4.585894e+000 0.000000e+000
      vertex   -9.689593e-001 4.662888e+000 0.000000e+000
    endloop
  endfacet
  facet normal -0.000000e+000 0.000000e+000 -1.000000e+000
    outer loop
      vertex   6.484937e-001 4.718142e+000 0.000000e+000
      vertex   -9.689593e-001 4.662888e+000 0.000000e+000
      vertex   -6.484937e-001 4.718142e+000 0.000000e+000
    endloop
  endfacet
  facet normal -0.000000e+000 0.000000e+000 -1.000000e+000
    outer loop
      vertex   3.250045e-001 4.751398e+000 0.000000e+000
      vertex   -6.484937e-001 4.718142e+000 0.000000e+000
      vertex   -3.250045e-001 4.751398e+000 0.000000e+000
    endloop
  endfacet
  facet normal -0.000000e+000 -0.000000e+000 -1.000000e+000
    outer loop
      vertex   2.916190e-016 4.762500e+000 0.000000e+000
      vertex   3.250045e-001 4.751398e+000 0.000000e+000
      vertex   -3.250045e-001 4.751398e+000 0.000000e+000
    endloop
  endfacet
  facet normal -0.000000e+000 0.000000e+000 -1.000000e+000
    outer loop
      vertex   4.662888e+000 9.689593e-001 0.000000e+000
      vertex   -4.662888e+000 9.689593e-001 0.000000e+000
      vertex   4.585894e+000 1.284907e+000 0.000000e+000
    endloop
  endfacet
  facet normal 0.000000e+000 0.000000e+000 -1.000000e+000
    outer loop
      vertex   4.585894e+000 1.284907e+000 0.000000e+000
      vertex   -4.585894e+000 1.284907e+000 0.000000e+000
      vertex   4.487518e+000 1.594864e+000 0.000000e+000
    endloop
  endfacet
  facet normal 0.000000e+000 0.000000e+000 -1.000000e+000
    outer loop
      vertex   4.487518e+000 1.594864e+000 0.000000e+000
      vertex   -4.487518e+000 1.594864e+000 0.000000e+000
      vertex   4.368219e+000 1.897385e+000 0.000000e+000
    endloop
  endfacet
  facet normal 0.000000e+000 0.000000e+000 -1.000000e+000
    outer loop
      vertex   4.368219e+000 1.897385e+000 0.000000e+000
      vertex   -4.368219e+000 1.897385e+000 0.000000e+000
      vertex   4.228553e+000 2.191060e+000 0.000000e+000
    endloop
  endfacet
  facet normal 0.000000e+000 0.000000e+000 -1.000000e+000
    outer loop
      vertex   4.228553e+000 2.191060e+000 0.000000e+000
      vertex   -4.228553e+000 2.191060e+000 0.000000e+000
      vertex   4.069172e+000 2.474519e+000 0.000000e+000
    endloop
  endfacet
  facet normal 0.000000e+000 0.000000e+000 -1.000000e+000
    outer loop
      vertex   4.069172e+000 2.474519e+000 0.000000e+000
      vertex   -4.069172e+000 2.474519e+000 0.000000e+000
      vertex   3.890819e+000 2.746440e+000 0.000000e+000
    endloop
  endfacet
  facet normal 0.000000e+000 0.000000e+000 -1.000000e+000
    outer loop
      vertex   3.890819e+000 2.746440e+000 0.000000e+000
      vertex   -3.890819e+000 2.746440e+000 0.000000e+000
      vertex   3.694325e+000 3.005556e+000 0.000000e+000
    endloop
  endfacet
  facet normal 0.000000e+000 0.000000e+000 -1.000000e+000
    outer loop
      vertex   3.694325e+000 3.005556e+000 0.000000e+000
      vertex   -3.694325e+000 3.005556e+000 0.000000e+000
      vertex   3.480606e+000 3.250659e+000 0.000000e+000
    endloop
  endfacet
  facet normal 0.000000e+000 0.000000e+000 -1.000000e+000
    outer loop
      vertex   3.480606e+000 3.250659e+000 0.000000e+000
      vertex   -3.480606e+000 3.250659e+000 0.000000e+000
      vertex   3.250659e+000 3.480606e+000 0.000000e+000
    endloop
  endfacet
  facet normal 0.000000e+000 0.000000e+000 -1.000000e+000
    outer loop
      vertex   3.250659e+000 3.480606e+000 0.000000e+000
      vertex   -3.250659e+000 3.480606e+000 0.000000e+000
      vertex   3.005556e+000 3.694325e+000 0.000000e+000
    endloop
  endfacet
  facet normal 0.000000e+000 0.000000e+000 -1.000000e+000
    outer loop
      vertex   3.005556e+000 3.694325e+000 0.000000e+000
      vertex   -3.005556e+000 3.694325e+000 0.000000e+000
      vertex   2.746440e+000 3.890819e+000 0.000000e+000
    endloop
  endfacet
  facet normal 0.000000e+000 0.000000e+000 -1.000000e+000
    outer loop
      vertex   2.746440e+000 3.890819e+000 0.000000e+000
      vertex   -2.746440e+000 3.890819e+000 0.000000e+000
      vertex   2.474519e+000 4.069172e+000 0.000000e+000
    endloop
  endfacet
  facet normal 0.000000e+000 0.000000e+000 -1.000000e+000
    outer loop
      vertex   2.474519e+000 4.069172e+000 0.000000e+000
      vertex   -2.474519e+000 4.069172e+000 0.000000e+000
      vertex   2.191060e+000 4.228553e+000 0.000000e+000
    endloop
  endfacet
  facet normal 0.000000e+000 0.000000e+000 -1.000000e+000
    outer loop
      vertex   2.191060e+000 4.228553e+000 0.000000e+000
      vertex   -2.191060e+000 4.228553e+000 0.000000e+000
      vertex   1.897385e+000 4.368219e+000 0.000000e+000
    endloop
  endfacet
  facet normal 0.000000e+000 0.000000e+000 -1.000000e+000
    outer loop
      vertex   1.897385e+000 4.368219e+000 0.000000e+000
      vertex   -1.897385e+000 4.368219e+000 0.000000e+000
      vertex   1.594864e+000 4.487518e+000 0.000000e+000
    endloop
  endfacet
  facet normal 0.000000e+000 0.000000e+000 -1.000000e+000
    outer loop
      vertex   1.594864e+000 4.487518e+000 0.000000e+000
      vertex   -1.594864e+000 4.487518e+000 0.000000e+000
      vertex   1.284907e+000 4.585894e+000 0.000000e+000
    endloop
  endfacet
  facet normal 0.000000e+000 0.000000e+000 -1.000000e+000
    outer loop
      vertex   1.284907e+000 4.585894e+000 0.000000e+000
      vertex   -1.284907e+000 4.585894e+000 0.000000e+000
      vertex   9.689593e-001 4.662888e+000 0.000000e+000
    endloop
  endfacet
  facet normal 0.000000e+000 0.000000e+000 -1.000000e+000
    outer loop
      vertex   9.689593e-001 4.662888e+000 0.000000e+000
      vertex   -9.689593e-001 4.662888e+000 0.000000e+000
      vertex   6.484937e-001 4.718142e+000 0.000000e+000
    endloop
  endfacet
  facet normal 0.000000e+000 0.000000e+000 -1.000000e+000
    outer loop
      vertex   6.484937e-001 4.718142e+000 0.000000e+000
      vertex   -6.484937e-001 4.718142e+000 0.000000e+000
      vertex   3.250045e-001 4.751398e+000 0.000000e+000
    endloop
  endfacet
  facet normal 0.000000e+000 -0.000000e+000 -1.000000e+000
    outer loop
      vertex   4.751398e+000 3.250045e-001 0.000000e+000
      vertex   4.762500e+000 0.000000e+000 0.000000e+000
      vertex   -4.762500e+000 -5.832380e-016 0.000000e+000
    endloop
  endfacet
  facet normal 0.000000e+000 -0.000000e+000 -1.000000e+000
    outer loop
      vertex   -4.762500e+000 -5.832380e-016 0.000000e+000
      vertex   4.762500e+000 0.000000e+000 0.000000e+000
      vertex   -4.751398e+000 -3.250045e-001 0.000000e+000
    endloop
  endfacet
  facet normal 0.000000e+000 -0.000000e+000 -1.000000e+000
    outer loop
      vertex   -4.751398e+000 -3.250045e-001 0.000000e+000
      vertex   4.762500e+000 0.000000e+000 0.000000e+000
      vertex   4.751398e+000 -3.250045e-001 0.000000e+000
    endloop
  endfacet
  facet normal 0.000000e+000 -0.000000e+000 -1.000000e+000
    outer loop
      vertex   -4.718142e+000 -6.484937e-001 0.000000e+000
      vertex   4.751398e+000 -3.250045e-001 0.000000e+000
      vertex   4.718142e+000 -6.484937e-001 0.000000e+000
    endloop
  endfacet
  facet normal 0.000000e+000 -0.000000e+000 -1.000000e+000
    outer loop
      vertex   -4.662888e+000 -9.689593e-001 0.000000e+000
      vertex   4.718142e+000 -6.484937e-001 0.000000e+000
      vertex   4.662888e+000 -9.689593e-001 0.000000e+000
    endloop
  endfacet
  facet normal 0.000000e+000 -0.000000e+000 -1.000000e+000
    outer loop
      vertex   -4.585894e+000 -1.284907e+000 0.000000e+000
      vertex   4.662888e+000 -9.689593e-001 0.000000e+000
      vertex   4.585894e+000 -1.284907e+000 0.000000e+000
    endloop
  endfacet
  facet normal 0.000000e+000 -0.000000e+000 -1.000000e+000
    outer loop
      vertex   -4.487518e+000 -1.594864e+000 0.000000e+000
      vertex   4.585894e+000 -1.284907e+000 0.000000e+000
      vertex   4.487518e+000 -1.594864e+000 0.000000e+000
    endloop
  endfacet
  facet normal 0.000000e+000 -0.000000e+000 -1.000000e+000
    outer loop
      vertex   -4.368219e+000 -1.897385e+000 0.000000e+000
      vertex   4.487518e+000 -1.594864e+000 0.000000e+000
      vertex   4.368219e+000 -1.897385e+000 0.000000e+000
    endloop
  endfacet
  facet normal 0.000000e+000 -0.000000e+000 -1.000000e+000
    outer loop
      vertex   -4.228553e+000 -2.191060e+000 0.000000e+000
      vertex   4.368219e+000 -1.897385e+000 0.000000e+000
      vertex   4.228553e+000 -2.191060e+000 0.000000e+000
    endloop
  endfacet
  facet normal 0.000000e+000 -0.000000e+000 -1.000000e+000
    outer loop
      vertex   -4.069172e+000 -2.474519e+000 0.000000e+000
      vertex   4.228553e+000 -2.191060e+000 0.000000e+000
      vertex   4.069172e+000 -2.474519e+000 0.000000e+000
    endloop
  endfacet
  facet normal 0.000000e+000 -0.000000e+000 -1.000000e+000
    outer loop
      vertex   -3.890819e+000 -2.746440e+000 0.000000e+000
      vertex   4.069172e+000 -2.474519e+000 0.000000e+000
      vertex   3.890819e+000 -2.746440e+000 0.000000e+000
    endloop
  endfacet
  facet normal 0.000000e+000 -0.000000e+000 -1.000000e+000
    outer loop
      vertex   -3.694325e+000 -3.005556e+000 0.000000e+000
      vertex   3.890819e+000 -2.746440e+000 0.000000e+000
      vertex   3.694325e+000 -3.005556e+000 0.000000e+000
    endloop
  endfacet
  facet normal 0.000000e+000 -0.000000e+000 -1.000000e+000
    outer loop
      vertex   -3.480606e+000 -3.250659e+000 0.000000e+000
      vertex   3.694325e+000 -3.005556e+000 0.000000e+000
      vertex   3.480606e+000 -3.250659e+000 0.000000e+000
    endloop
  endfacet
  facet normal 0.000000e+000 -0.000000e+000 -1.000000e+000
    outer loop
      vertex   -3.250659e+000 -3.480606e+000 0.000000e+000
      vertex   3.480606e+000 -3.250659e+000 0.000000e+000
      vertex   3.250659e+000 -3.480606e+000 0.000000e+000
    endloop
  endfacet
  facet normal 0.000000e+000 -0.000000e+000 -1.000000e+000
    outer loop
      vertex   -3.005556e+000 -3.694325e+000 0.000000e+000
      vertex   3.250659e+000 -3.480606e+000 0.000000e+000
      vertex   3.005556e+000 -3.694325e+000 0.000000e+000
    endloop
  endfacet
  facet normal 0.000000e+000 -0.000000e+000 -1.000000e+000
    outer loop
      vertex   -2.746440e+000 -3.890819e+000 0.000000e+000
      vertex   3.005556e+000 -3.694325e+000 0.000000e+000
      vertex   2.746440e+000 -3.890819e+000 0.000000e+000
    endloop
  endfacet
  facet normal 0.000000e+000 -0.000000e+000 -1.000000e+000
    outer loop
      vertex   -2.474519e+000 -4.069172e+000 0.000000e+000
      vertex   2.746440e+000 -3.890819e+000 0.000000e+000
      vertex   2.474519e+000 -4.069172e+000 0.000000e+000
    endloop
  endfacet
  facet normal 0.000000e+000 -0.000000e+000 -1.000000e+000
    outer loop
      vertex   -2.191060e+000 -4.228553e+000 0.000000e+000
      vertex   2.474519e+000 -4.069172e+000 0.000000e+000
      vertex   2.191060e+000 -4.228553e+000 0.000000e+000
    endloop
  endfacet
  facet normal 0.000000e+000 -0.000000e+000 -1.000000e+000
    outer loop
      vertex   -1.897385e+000 -4.368219e+000 0.000000e+000
      vertex   2.191060e+000 -4.228553e+000 0.000000e+000
      vertex   1.897385e+000 -4.368219e+000 0.000000e+000
    endloop
  endfacet
  facet normal 0.000000e+000 -0.000000e+000 -1.000000e+000
    outer loop
      vertex   -1.594864e+000 -4.487518e+000 0.000000e+000
      vertex   1.897385e+000 -4.368219e+000 0.000000e+000
      vertex   1.594864e+000 -4.487518e+000 0.000000e+000
    endloop
  endfacet
  facet normal 0.000000e+000 -0.000000e+000 -1.000000e+000
    outer loop
      vertex   -1.284907e+000 -4.585894e+000 0.000000e+000
      vertex   1.594864e+000 -4.487518e+000 0.000000e+000
      vertex   1.284907e+000 -4.585894e+000 0.000000e+000
    endloop
  endfacet
  facet normal 0.000000e+000 -0.000000e+000 -1.000000e+000
    outer loop
      vertex   -9.689593e-001 -4.662888e+000 0.000000e+000
      vertex   1.284907e+000 -4.585894e+000 0.000000e+000
      vertex   9.689593e-001 -4.662888e+000 0.000000e+000
    endloop
  endfacet
  facet normal 0.000000e+000 -0.000000e+000 -1.000000e+000
    outer loop
      vertex   -6.484937e-001 -4.718142e+000 0.000000e+000
      vertex   9.689593e-001 -4.662888e+000 0.000000e+000
      vertex   6.484937e-001 -4.718142e+000 0.000000e+000
    endloop
  endfacet
  facet normal 0.000000e+000 -0.000000e+000 -1.000000e+000
    outer loop
      vertex   -3.250045e-001 -4.751398e+000 0.000000e+000
      vertex   6.484937e-001 -4.718142e+000 0.000000e+000
      vertex   3.250045e-001 -4.751398e+000 0.000000e+000
    endloop
  endfacet
  facet normal 0.000000e+000 0.000000e+000 -1.000000e+000
    outer loop
      vertex   2.916190e-016 -4.762500e+000 0.000000e+000
      vertex   -3.250045e-001 -4.751398e+000 0.000000e+000
      vertex   3.250045e-001 -4.751398e+000 0.000000e+000
    endloop
  endfacet
  facet normal 0.000000e+000 -0.000000e+000 -1.000000e+000
    outer loop
      vertex   -4.751398e+000 -3.250045e-001 0.000000e+000
      vertex   4.751398e+000 -3.250045e-001 0.000000e+000
      vertex   -4.718142e+000 -6.484937e-001 0.000000e+000
    endloop
  endfacet
  facet normal 0.000000e+000 -0.000000e+000 -1.000000e+000
    outer loop
      vertex   -4.718142e+000 -6.484937e-001 0.000000e+000
      vertex   4.718142e+000 -6.484937e-001 0.000000e+000
      vertex   -4.662888e+000 -9.689593e-001 0.000000e+000
    endloop
  endfacet
  facet normal 0.000000e+000 -0.000000e+000 -1.000000e+000
    outer loop
      vertex   -4.662888e+000 -9.689593e-001 0.000000e+000
      vertex   4.662888e+000 -9.689593e-001 0.000000e+000
      vertex   -4.585894e+000 -1.284907e+000 0.000000e+000
    endloop
  endfacet
  facet normal 0.000000e+000 -0.000000e+000 -1.000000e+000
    outer loop
      vertex   -4.585894e+000 -1.284907e+000 0.000000e+000
      vertex   4.585894e+000 -1.284907e+000 0.000000e+000
      vertex   -4.487518e+000 -1.594864e+000 0.000000e+000
    endloop
  endfacet
  facet normal 0.000000e+000 -0.000000e+000 -1.000000e+000
    outer loop
      vertex   -4.487518e+000 -1.594864e+000 0.000000e+000
      vertex   4.487518e+000 -1.594864e+000 0.000000e+000
      vertex   -4.368219e+000 -1.897385e+000 0.000000e+000
    endloop
  endfacet
  facet normal 0.000000e+000 -0.000000e+000 -1.000000e+000
    outer loop
      vertex   -4.368219e+000 -1.897385e+000 0.000000e+000
      vertex   4.368219e+000 -1.897385e+000 0.000000e+000
      vertex   -4.228553e+000 -2.191060e+000 0.000000e+000
    endloop
  endfacet
  facet normal 0.000000e+000 -0.000000e+000 -1.000000e+000
    outer loop
      vertex   -4.228553e+000 -2.191060e+000 0.000000e+000
      vertex   4.228553e+000 -2.191060e+000 0.000000e+000
      vertex   -4.069172e+000 -2.474519e+000 0.000000e+000
    endloop
  endfacet
  facet normal 0.000000e+000 -0.000000e+000 -1.000000e+000
    outer loop
      vertex   -4.069172e+000 -2.474519e+000 0.000000e+000
      vertex   4.069172e+000 -2.474519e+000 0.000000e+000
      vertex   -3.890819e+000 -2.746440e+000 0.000000e+000
    endloop
  endfacet
  facet normal 0.000000e+000 -0.000000e+000 -1.000000e+000
    outer loop
      vertex   -3.890819e+000 -2.746440e+000 0.000000e+000
      vertex   3.890819e+000 -2.746440e+000 0.000000e+000
      vertex   -3.694325e+000 -3.005556e+000 0.000000e+000
    endloop
  endfacet
  facet normal 0.000000e+000 -0.000000e+000 -1.000000e+000
    outer loop
      vertex   -3.694325e+000 -3.005556e+000 0.000000e+000
      vertex   3.694325e+000 -3.005556e+000 0.000000e+000
      vertex   -3.480606e+000 -3.250659e+000 0.000000e+000
    endloop
  endfacet
  facet normal 0.000000e+000 -0.000000e+000 -1.000000e+000
    outer loop
      vertex   -3.480606e+000 -3.250659e+000 0.000000e+000
      vertex   3.480606e+000 -3.250659e+000 0.000000e+000
      vertex   -3.250659e+000 -3.480606e+000 0.000000e+000
    endloop
  endfacet
  facet normal 0.000000e+000 -0.000000e+000 -1.000000e+000
    outer loop
      vertex   -3.250659e+000 -3.480606e+000 0.000000e+000
      vertex   3.250659e+000 -3.480606e+000 0.000000e+000
      vertex   -3.005556e+000 -3.694325e+000 0.000000e+000
    endloop
  endfacet
  facet normal 0.000000e+000 -0.000000e+000 -1.000000e+000
    outer loop
      vertex   -3.005556e+000 -3.694325e+000 0.000000e+000
      vertex   3.005556e+000 -3.694325e+000 0.000000e+000
      vertex   -2.746440e+000 -3.890819e+000 0.000000e+000
    endloop
  endfacet
  facet normal 0.000000e+000 -0.000000e+000 -1.000000e+000
    outer loop
      vertex   -2.746440e+000 -3.890819e+000 0.000000e+000
      vertex   2.746440e+000 -3.890819e+000 0.000000e+000
      vertex   -2.474519e+000 -4.069172e+000 0.000000e+000
    endloop
  endfacet
  facet normal 0.000000e+000 -0.000000e+000 -1.000000e+000
    outer loop
      vertex   -2.474519e+000 -4.069172e+000 0.000000e+000
      vertex   2.474519e+000 -4.069172e+000 0.000000e+000
      vertex   -2.191060e+000 -4.228553e+000 0.000000e+000
    endloop
  endfacet
  facet normal 0.000000e+000 -0.000000e+000 -1.000000e+000
    outer loop
      vertex   -2.191060e+000 -4.228553e+000 0.000000e+000
      vertex   2.191060e+000 -4.228553e+000 0.000000e+000
      vertex   -1.897385e+000 -4.368219e+000 0.000000e+000
    endloop
  endfacet
  facet normal 0.000000e+000 -0.000000e+000 -1.000000e+000
    outer loop
      vertex   -1.897385e+000 -4.368219e+000 0.000000e+000
      vertex   1.897385e+000 -4.368219e+000 0.000000e+000
      vertex   -1.594864e+000 -4.487518e+000 0.000000e+000
    endloop
  endfacet
  facet normal 0.000000e+000 -0.000000e+000 -1.000000e+000
    outer loop
      vertex   -1.594864e+000 -4.487518e+000 0.000000e+000
      vertex   1.594864e+000 -4.487518e+000 0.000000e+000
      vertex   -1.284907e+000 -4.585894e+000 0.000000e+000
    endloop
  endfacet
  facet normal 0.000000e+000 -0.000000e+000 -1.000000e+000
    outer loop
      vertex   -1.284907e+000 -4.585894e+000 0.000000e+000
      vertex   1.284907e+000 -4.585894e+000 0.000000e+000
      vertex   -9.689593e-001 -4.662888e+000 0.000000e+000
    endloop
  endfacet
  facet normal 0.000000e+000 -0.000000e+000 -1.000000e+000
    outer loop
      vertex   -9.689593e-001 -4.662888e+000 0.000000e+000
      vertex   9.689593e-001 -4.662888e+000 0.000000e+000
      vertex   -6.484937e-001 -4.718142e+000 0.000000e+000
    endloop
  endfacet
  facet normal 0.000000e+000 -0.000000e+000 -1.000000e+000
    outer loop
      vertex   -6.484937e-001 -4.718142e+000 0.000000e+000
      vertex   6.484937e-001 -4.718142e+000 0.000000e+000
      vertex   -3.250045e-001 -4.751398e+000 0.000000e+000
    endloop
  endfacet
endsolid
