solid ascii
  facet normal -7.071068e-001 0.000000e+000 7.071068e-001
    outer loop
      vertex   -3.175000e+000 -1.270000e+000 2.540000e+000
      vertex   -3.175000e+000 0.000000e+000 2.540000e+000
      vertex   -5.080000e+000 -1.270000e+000 6.350000e-001
    endloop
  endfacet
  facet normal -7.071068e-001 0.000000e+000 7.071068e-001
    outer loop
      vertex   -5.080000e+000 -1.270000e+000 6.350000e-001
      vertex   -3.175000e+000 0.000000e+000 2.540000e+000
      vertex   -5.080000e+000 1.270000e+000 6.350000e-001
    endloop
  endfacet
  facet normal -7.071068e-001 0.000000e+000 7.071068e-001
    outer loop
      vertex   -5.080000e+000 1.270000e+000 6.350000e-001
      vertex   -3.175000e+000 0.000000e+000 2.540000e+000
      vertex   -3.175000e+000 1.270000e+000 2.540000e+000
    endloop
  endfacet
  facet normal -0.000000e+000 0.000000e+000 1.000000e+000
    outer loop
      vertex   -3.175000e+000 0.000000e+000 2.540000e+000
      vertex   -3.175000e+000 -1.270000e+000 2.540000e+000
      vertex   -3.164253e+000 -2.610183e-001 2.540000e+000
    endloop
  endfacet
  facet normal -0.000000e+000 0.000000e+000 1.000000e+000
    outer loop
      vertex   -3.164253e+000 -2.610183e-001 2.540000e+000
      vertex   -3.175000e+000 -1.270000e+000 2.540000e+000
      vertex   -3.132083e+000 -5.202695e-001 2.540000e+000
    endloop
  endfacet
  facet normal -0.000000e+000 0.000000e+000 1.000000e+000
    outer loop
      vertex   -3.132083e+000 -5.202695e-001 2.540000e+000
      vertex   -3.175000e+000 -1.270000e+000 2.540000e+000
      vertex   -3.078709e+000 -7.759984e-001 2.540000e+000
    endloop
  endfacet
  facet normal -0.000000e+000 0.000000e+000 1.000000e+000
    outer loop
      vertex   -3.078709e+000 -7.759984e-001 2.540000e+000
      vertex   -3.175000e+000 -1.270000e+000 2.540000e+000
      vertex   -3.004493e+000 -1.026474e+000 2.540000e+000
    endloop
  endfacet
  facet normal -0.000000e+000 0.000000e+000 1.000000e+000
    outer loop
      vertex   -3.004493e+000 -1.026474e+000 2.540000e+000
      vertex   -3.175000e+000 -1.270000e+000 2.540000e+000
      vertex   -2.909936e+000 -1.270000e+000 2.540000e+000
    endloop
  endfacet
  facet normal 0.000000e+000 -0.000000e+000 1.000000e+000
    outer loop
      vertex   -3.175000e+000 0.000000e+000 2.540000e+000
      vertex   -3.164253e+000 2.610183e-001 2.540000e+000
      vertex   -3.175000e+000 1.270000e+000 2.540000e+000
    endloop
  endfacet
  facet normal -0.000000e+000 0.000000e+000 1.000000e+000
    outer loop
      vertex   -3.175000e+000 1.270000e+000 2.540000e+000
      vertex   -3.164253e+000 2.610183e-001 2.540000e+000
      vertex   -3.132083e+000 5.202695e-001 2.540000e+000
    endloop
  endfacet
  facet normal 0.000000e+000 0.000000e+000 1.000000e+000
    outer loop
      vertex   -3.078709e+000 7.759984e-001 2.540000e+000
      vertex   -3.175000e+000 1.270000e+000 2.540000e+000
      vertex   -3.132083e+000 5.202695e-001 2.540000e+000
    endloop
  endfacet
  facet normal 0.000000e+000 -0.000000e+000 1.000000e+000
    outer loop
      vertex   -3.078709e+000 7.759984e-001 2.540000e+000
      vertex   -3.004493e+000 1.026474e+000 2.540000e+000
      vertex   -3.175000e+000 1.270000e+000 2.540000e+000
    endloop
  endfacet
  facet normal -0.000000e+000 0.000000e+000 1.000000e+000
    outer loop
      vertex   -3.175000e+000 1.270000e+000 2.540000e+000
      vertex   -3.004493e+000 1.026474e+000 2.540000e+000
      vertex   -2.909936e+000 1.270000e+000 2.540000e+000
    endloop
  endfacet
  facet normal -0.000000e+000 -1.000000e+000 -0.000000e+000
    outer loop
      vertex   -2.909936e+000 -1.270000e+000 2.540000e+000
      vertex   -3.175000e+000 -1.270000e+000 2.540000e+000
      vertex   -2.909936e+000 -1.270000e+000 0.000000e+000
    endloop
  endfacet
  facet normal -0.000000e+000 -1.000000e+000 0.000000e+000
    outer loop
      vertex   -2.909936e+000 -1.270000e+000 0.000000e+000
      vertex   -3.175000e+000 -1.270000e+000 2.540000e+000
      vertex   -5.080000e+000 -1.270000e+000 6.350000e-001
    endloop
  endfacet
  facet normal 0.000000e+000 -1.000000e+000 0.000000e+000
    outer loop
      vertex   -5.080000e+000 -1.270000e+000 0.000000e+000
      vertex   -2.909936e+000 -1.270000e+000 0.000000e+000
      vertex   -5.080000e+000 -1.270000e+000 6.350000e-001
    endloop
  endfacet
  facet normal 7.071068e-001 0.000000e+000 7.071068e-001
    outer loop
      vertex   3.175000e+000 1.270000e+000 2.540000e+000
      vertex   3.175000e+000 0.000000e+000 2.540000e+000
      vertex   5.080000e+000 1.270000e+000 6.350000e-001
    endloop
  endfacet
  facet normal 7.071068e-001 0.000000e+000 7.071068e-001
    outer loop
      vertex   5.080000e+000 1.270000e+000 6.350000e-001
      vertex   3.175000e+000 0.000000e+000 2.540000e+000
      vertex   5.080000e+000 -1.270000e+000 6.350000e-001
    endloop
  endfacet
  facet normal 7.071068e-001 0.000000e+000 7.071068e-001
    outer loop
      vertex   5.080000e+000 -1.270000e+000 6.350000e-001
      vertex   3.175000e+000 0.000000e+000 2.540000e+000
      vertex   3.175000e+000 -1.270000e+000 2.540000e+000
    endloop
  endfacet
  facet normal 0.000000e+000 -0.000000e+000 1.000000e+000
    outer loop
      vertex   3.175000e+000 0.000000e+000 2.540000e+000
      vertex   3.175000e+000 1.270000e+000 2.540000e+000
      vertex   3.164253e+000 2.610183e-001 2.540000e+000
    endloop
  endfacet
  facet normal 0.000000e+000 -0.000000e+000 1.000000e+000
    outer loop
      vertex   3.164253e+000 2.610183e-001 2.540000e+000
      vertex   3.175000e+000 1.270000e+000 2.540000e+000
      vertex   3.132083e+000 5.202695e-001 2.540000e+000
    endloop
  endfacet
  facet normal 0.000000e+000 -0.000000e+000 1.000000e+000
    outer loop
      vertex   3.132083e+000 5.202695e-001 2.540000e+000
      vertex   3.175000e+000 1.270000e+000 2.540000e+000
      vertex   3.078709e+000 7.759984e-001 2.540000e+000
    endloop
  endfacet
  facet normal 0.000000e+000 -0.000000e+000 1.000000e+000
    outer loop
      vertex   3.078709e+000 7.759984e-001 2.540000e+000
      vertex   3.175000e+000 1.270000e+000 2.540000e+000
      vertex   3.004493e+000 1.026474e+000 2.540000e+000
    endloop
  endfacet
  facet normal 0.000000e+000 -0.000000e+000 1.000000e+000
    outer loop
      vertex   3.004493e+000 1.026474e+000 2.540000e+000
      vertex   3.175000e+000 1.270000e+000 2.540000e+000
      vertex   2.909936e+000 1.270000e+000 2.540000e+000
    endloop
  endfacet
  facet normal 0.000000e+000 0.000000e+000 1.000000e+000
    outer loop
      vertex   3.175000e+000 0.000000e+000 2.540000e+000
      vertex   3.164253e+000 -2.610183e-001 2.540000e+000
      vertex   3.175000e+000 -1.270000e+000 2.540000e+000
    endloop
  endfacet
  facet normal 0.000000e+000 0.000000e+000 1.000000e+000
    outer loop
      vertex   3.175000e+000 -1.270000e+000 2.540000e+000
      vertex   3.164253e+000 -2.610183e-001 2.540000e+000
      vertex   3.132083e+000 -5.202695e-001 2.540000e+000
    endloop
  endfacet
  facet normal -0.000000e+000 -0.000000e+000 1.000000e+000
    outer loop
      vertex   3.078709e+000 -7.759984e-001 2.540000e+000
      vertex   3.175000e+000 -1.270000e+000 2.540000e+000
      vertex   3.132083e+000 -5.202695e-001 2.540000e+000
    endloop
  endfacet
  facet normal 0.000000e+000 0.000000e+000 1.000000e+000
    outer loop
      vertex   3.078709e+000 -7.759984e-001 2.540000e+000
      vertex   3.004493e+000 -1.026474e+000 2.540000e+000
      vertex   3.175000e+000 -1.270000e+000 2.540000e+000
    endloop
  endfacet
  facet normal 0.000000e+000 0.000000e+000 1.000000e+000
    outer loop
      vertex   3.175000e+000 -1.270000e+000 2.540000e+000
      vertex   3.004493e+000 -1.026474e+000 2.540000e+000
      vertex   2.909936e+000 -1.270000e+000 2.540000e+000
    endloop
  endfacet
  facet normal -0.000000e+000 1.000000e+000 0.000000e+000
    outer loop
      vertex   2.909936e+000 1.270000e+000 2.540000e+000
      vertex   3.175000e+000 1.270000e+000 2.540000e+000
      vertex   2.909936e+000 1.270000e+000 0.000000e+000
    endloop
  endfacet
  facet normal -0.000000e+000 1.000000e+000 0.000000e+000
    outer loop
      vertex   2.909936e+000 1.270000e+000 0.000000e+000
      vertex   3.175000e+000 1.270000e+000 2.540000e+000
      vertex   5.080000e+000 1.270000e+000 6.350000e-001
    endloop
  endfacet
  facet normal 0.000000e+000 1.000000e+000 -0.000000e+000
    outer loop
      vertex   5.080000e+000 1.270000e+000 0.000000e+000
      vertex   2.909936e+000 1.270000e+000 0.000000e+000
      vertex   5.080000e+000 1.270000e+000 6.350000e-001
    endloop
  endfacet
  facet normal 1.000000e+000 0.000000e+000 0.000000e+000
    outer loop
      vertex   5.080000e+000 1.270000e+000 6.350000e-001
      vertex   5.080000e+000 -1.270000e+000 6.350000e-001
      vertex   5.080000e+000 1.270000e+000 0.000000e+000
    endloop
  endfacet
  facet normal 1.000000e+000 0.000000e+000 0.000000e+000
    outer loop
      vertex   5.080000e+000 1.270000e+000 0.000000e+000
      vertex   5.080000e+000 -1.270000e+000 6.350000e-001
      vertex   5.080000e+000 -1.270000e+000 0.000000e+000
    endloop
  endfacet
  facet normal -0.000000e+000 -1.000000e+000 0.000000e+000
    outer loop
      vertex   5.080000e+000 -1.270000e+000 0.000000e+000
      vertex   5.080000e+000 -1.270000e+000 6.350000e-001
      vertex   2.909936e+000 -1.270000e+000 0.000000e+000
    endloop
  endfacet
  facet normal 0.000000e+000 -1.000000e+000 0.000000e+000
    outer loop
      vertex   2.909936e+000 -1.270000e+000 0.000000e+000
      vertex   5.080000e+000 -1.270000e+000 6.350000e-001
      vertex   3.175000e+000 -1.270000e+000 2.540000e+000
    endloop
  endfacet
  facet normal 0.000000e+000 -1.000000e+000 0.000000e+000
    outer loop
      vertex   2.909936e+000 -1.270000e+000 2.540000e+000
      vertex   2.909936e+000 -1.270000e+000 0.000000e+000
      vertex   3.175000e+000 -1.270000e+000 2.540000e+000
    endloop
  endfacet
  facet normal -1.000000e+000 0.000000e+000 -0.000000e+000
    outer loop
      vertex   -5.080000e+000 -1.270000e+000 6.350000e-001
      vertex   -5.080000e+000 1.270000e+000 6.350000e-001
      vertex   -5.080000e+000 -1.270000e+000 0.000000e+000
    endloop
  endfacet
  facet normal -1.000000e+000 0.000000e+000 0.000000e+000
    outer loop
      vertex   -5.080000e+000 -1.270000e+000 0.000000e+000
      vertex   -5.080000e+000 1.270000e+000 6.350000e-001
      vertex   -5.080000e+000 1.270000e+000 0.000000e+000
    endloop
  endfacet
  facet normal -0.000000e+000 1.000000e+000 0.000000e+000
    outer loop
      vertex   -5.080000e+000 1.270000e+000 0.000000e+000
      vertex   -5.080000e+000 1.270000e+000 6.350000e-001
      vertex   -2.909936e+000 1.270000e+000 0.000000e+000
    endloop
  endfacet
  facet normal 0.000000e+000 1.000000e+000 -0.000000e+000
    outer loop
      vertex   -2.909936e+000 1.270000e+000 0.000000e+000
      vertex   -5.080000e+000 1.270000e+000 6.350000e-001
      vertex   -3.175000e+000 1.270000e+000 2.540000e+000
    endloop
  endfacet
  facet normal 0.000000e+000 1.000000e+000 0.000000e+000
    outer loop
      vertex   -2.909936e+000 1.270000e+000 2.540000e+000
      vertex   -2.909936e+000 1.270000e+000 0.000000e+000
      vertex   -3.175000e+000 1.270000e+000 2.540000e+000
    endloop
  endfacet
  facet normal 9.324615e-001 3.612695e-001 7.572009e-005
    outer loop
      vertex   3.006001e+000 1.022049e+000 5.080000e+000
      vertex   3.004493e+000 1.026474e+000 2.540000e+000
      vertex   2.909936e+000 1.270000e+000 5.080000e+000
    endloop
  endfacet
  facet normal 9.587963e-001 2.840944e-001 -7.436617e-005
    outer loop
      vertex   3.006001e+000 1.022049e+000 5.080000e+000
      vertex   3.078709e+000 7.759984e-001 2.540000e+000
      vertex   3.004493e+000 1.026474e+000 2.540000e+000
    endloop
  endfacet
  facet normal 9.594214e-001 2.819761e-001 1.487323e-004
    outer loop
      vertex   3.006001e+000 1.022049e+000 5.080000e+000
      vertex   3.080981e+000 7.669287e-001 5.080000e+000
      vertex   3.078709e+000 7.759984e-001 2.540000e+000
    endloop
  endfacet
  facet normal 9.789063e-001 2.043096e-001 -1.460244e-004
    outer loop
      vertex   3.078709e+000 7.759984e-001 2.540000e+000
      vertex   3.080981e+000 7.669287e-001 5.080000e+000
      vertex   3.132083e+000 5.202695e-001 2.540000e+000
    endloop
  endfacet
  facet normal 9.796517e-001 2.007048e-001 2.190365e-004
    outer loop
      vertex   3.132083e+000 5.202695e-001 2.540000e+000
      vertex   3.080981e+000 7.669287e-001 5.080000e+000
      vertex   3.134351e+000 5.064291e-001 5.080000e+000
    endloop
  endfacet
  facet normal 9.930105e-001 1.180258e-001 2.866325e-004
    outer loop
      vertex   3.164253e+000 2.610183e-001 2.540000e+000
      vertex   3.134351e+000 5.064291e-001 5.080000e+000
      vertex   3.165735e+000 2.423772e-001 5.080000e+000
    endloop
  endfacet
  facet normal 9.994040e-001 3.451887e-002 3.515202e-004
    outer loop
      vertex   3.175000e+000 0.000000e+000 2.540000e+000
      vertex   3.165735e+000 2.423772e-001 5.080000e+000
      vertex   3.174914e+000 -2.337469e-002 5.080000e+000
    endloop
  endfacet
  facet normal 9.987874e-001 -4.923016e-002 4.136994e-004
    outer loop
      vertex   3.164253e+000 -2.610183e-001 2.540000e+000
      vertex   3.174914e+000 -2.337469e-002 5.080000e+000
      vertex   3.161823e+000 -2.889627e-001 5.080000e+000
    endloop
  endfacet
  facet normal 9.911650e-001 -1.326339e-001 4.731700e-004
    outer loop
      vertex   3.132083e+000 -5.202695e-001 2.540000e+000
      vertex   3.161823e+000 -2.889627e-001 5.080000e+000
      vertex   3.126554e+000 -5.525238e-001 5.080000e+000
    endloop
  endfacet
  facet normal 9.765903e-001 -2.151073e-001 5.299319e-004
    outer loop
      vertex   3.078709e+000 -7.759984e-001 2.540000e+000
      vertex   3.126554e+000 -5.525238e-001 5.080000e+000
      vertex   3.069355e+000 -8.122093e-001 5.080000e+000
    endloop
  endfacet
  facet normal 9.551655e-001 -2.960718e-001 5.839849e-004
    outer loop
      vertex   3.004493e+000 -1.026474e+000 2.540000e+000
      vertex   3.069355e+000 -8.122093e-001 5.080000e+000
      vertex   2.990627e+000 -1.066198e+000 5.080000e+000
    endloop
  endfacet
  facet normal 9.270409e-001 -3.749596e-001 6.353290e-004
    outer loop
      vertex   2.909936e+000 -1.270000e+000 2.540000e+000
      vertex   2.990627e+000 -1.066198e+000 5.080000e+000
      vertex   2.890921e+000 -1.312708e+000 5.080000e+000
    endloop
  endfacet
  facet normal 8.991733e-001 -4.375927e-001 -3.132033e-004
    outer loop
      vertex   2.909936e+000 -1.270000e+000 0.000000e+000
      vertex   2.890921e+000 -1.312708e+000 5.080000e+000
      vertex   2.794922e+000 -1.506332e+000 0.000000e+000
    endloop
  endfacet
  facet normal 9.135455e-001 -4.067366e-001 0.000000e+000
    outer loop
      vertex   2.909936e+000 -1.270000e+000 0.000000e+000
      vertex   2.909936e+000 -1.270000e+000 2.540000e+000
      vertex   2.890921e+000 -1.312708e+000 5.080000e+000
    endloop
  endfacet
  facet normal 9.923891e-001 1.231417e-001 -2.149745e-004
    outer loop
      vertex   3.132083e+000 5.202695e-001 2.540000e+000
      vertex   3.134351e+000 5.064291e-001 5.080000e+000
      vertex   3.164253e+000 2.610183e-001 2.540000e+000
    endloop
  endfacet
  facet normal 9.991533e-001 4.114007e-002 -2.812164e-004
    outer loop
      vertex   3.164253e+000 2.610183e-001 2.540000e+000
      vertex   3.165735e+000 2.423772e-001 5.080000e+000
      vertex   3.175000e+000 0.000000e+000 2.540000e+000
    endloop
  endfacet
  facet normal 9.991533e-001 -4.114007e-002 -3.447499e-004
    outer loop
      vertex   3.175000e+000 0.000000e+000 2.540000e+000
      vertex   3.174914e+000 -2.337469e-002 5.080000e+000
      vertex   3.164253e+000 -2.610183e-001 2.540000e+000
    endloop
  endfacet
  facet normal 9.923890e-001 -1.231417e-001 -4.055748e-004
    outer loop
      vertex   3.164253e+000 -2.610183e-001 2.540000e+000
      vertex   3.161823e+000 -2.889627e-001 5.080000e+000
      vertex   3.132083e+000 -5.202695e-001 2.540000e+000
    endloop
  endfacet
  facet normal 9.789062e-001 -2.043096e-001 -4.636910e-004
    outer loop
      vertex   3.132083e+000 -5.202695e-001 2.540000e+000
      vertex   3.126554e+000 -5.525238e-001 5.080000e+000
      vertex   3.078709e+000 -7.759984e-001 2.540000e+000
    endloop
  endfacet
  facet normal 9.587962e-001 -2.840944e-001 -5.190985e-004
    outer loop
      vertex   3.078709e+000 -7.759984e-001 2.540000e+000
      vertex   3.069355e+000 -8.122093e-001 5.080000e+000
      vertex   3.004493e+000 -1.026474e+000 2.540000e+000
    endloop
  endfacet
  facet normal 9.321951e-001 -3.619558e-001 -5.717971e-004
    outer loop
      vertex   3.004493e+000 -1.026474e+000 2.540000e+000
      vertex   2.990627e+000 -1.066198e+000 5.080000e+000
      vertex   2.909936e+000 -1.270000e+000 2.540000e+000
    endloop
  endfacet
  facet normal 8.924140e-001 -4.512174e-001 3.338386e-004
    outer loop
      vertex   2.890921e+000 -1.312708e+000 5.080000e+000
      vertex   2.770937e+000 -1.550010e+000 5.080000e+000
      vertex   2.794922e+000 -1.506332e+000 0.000000e+000
    endloop
  endfacet
  facet normal 8.598985e-001 -5.104649e-001 -3.290833e-004
    outer loop
      vertex   2.794922e+000 -1.506332e+000 0.000000e+000
      vertex   2.770937e+000 -1.550010e+000 5.080000e+000
      vertex   2.660755e+000 -1.732342e+000 0.000000e+000
    endloop
  endfacet
  facet normal 8.515273e-001 -5.243102e-001 3.494246e-004
    outer loop
      vertex   2.660755e+000 -1.732342e+000 0.000000e+000
      vertex   2.770937e+000 -1.550010e+000 5.080000e+000
      vertex   2.631518e+000 -1.776440e+000 5.080000e+000
    endloop
  endfacet
  facet normal 8.046677e-001 -5.937254e-001 3.644226e-004
    outer loop
      vertex   2.508354e+000 -1.946480e+000 0.000000e+000
      vertex   2.631518e+000 -1.776440e+000 5.080000e+000
      vertex   2.473640e+000 -1.990409e+000 5.080000e+000
    endloop
  endfacet
  facet normal 7.521639e-001 -6.589759e-001 3.788325e-004
    outer loop
      vertex   2.338764e+000 -2.147279e+000 0.000000e+000
      vertex   2.473640e+000 -1.990409e+000 5.080000e+000
      vertex   2.298412e+000 -2.190418e+000 5.080000e+000
    endloop
  endfacet
  facet normal 6.943843e-001 -7.196043e-001 3.926544e-004
    outer loop
      vertex   2.153146e+000 -2.333364e+000 0.000000e+000
      vertex   2.298412e+000 -2.190418e+000 5.080000e+000
      vertex   2.107061e+000 -2.375062e+000 5.080000e+000
    endloop
  endfacet
  facet normal 6.317341e-001 -7.751851e-001 4.058882e-004
    outer loop
      vertex   1.952774e+000 -2.503457e+000 0.000000e+000
      vertex   2.107061e+000 -2.375062e+000 5.080000e+000
      vertex   1.900932e+000 -2.543046e+000 5.080000e+000
    endloop
  endfacet
  facet normal 5.646527e-001 -8.253285e-001 4.185339e-004
    outer loop
      vertex   1.739019e+000 -2.656396e+000 0.000000e+000
      vertex   1.900932e+000 -2.543046e+000 5.080000e+000
      vertex   1.681468e+000 -2.693193e+000 5.080000e+000
    endloop
  endfacet
  facet normal 4.936106e-001 -8.696829e-001 4.305916e-004
    outer loop
      vertex   1.513347e+000 -2.791130e+000 0.000000e+000
      vertex   1.681468e+000 -2.693193e+000 5.080000e+000
      vertex   1.450210e+000 -2.824450e+000 5.080000e+000
    endloop
  endfacet
  facet normal 4.191063e-001 -9.079371e-001 4.420611e-004
    outer loop
      vertex   1.277304e+000 -2.906737e+000 0.000000e+000
      vertex   1.450210e+000 -2.824450e+000 5.080000e+000
      vertex   1.208780e+000 -2.935894e+000 5.080000e+000
    endloop
  endfacet
  facet normal 3.416622e-001 -9.398227e-001 4.529425e-004
    outer loop
      vertex   1.032508e+000 -3.002424e+000 0.000000e+000
      vertex   1.208780e+000 -2.935894e+000 5.080000e+000
      vertex   9.588717e-001 -3.026746e+000 5.080000e+000
    endloop
  endfacet
  facet normal 2.618216e-001 -9.651162e-001 4.632358e-004
    outer loop
      vertex   7.806369e-001 -3.077537e+000 0.000000e+000
      vertex   9.588717e-001 -3.026746e+000 5.080000e+000
      vertex   7.022373e-001 -3.096367e+000 5.080000e+000
    endloop
  endfacet
  facet normal 1.801445e-001 -9.836400e-001 4.729410e-004
    outer loop
      vertex   5.234157e-001 -3.131559e+000 0.000000e+000
      vertex   7.022373e-001 -3.096367e+000 5.080000e+000
      vertex   4.406771e-001 -3.144269e+000 5.080000e+000
    endloop
  endfacet
  facet normal 9.720384e-002 -9.952644e-001 4.820580e-004
    outer loop
      vertex   2.626077e-001 -3.164121e+000 0.000000e+000
      vertex   4.406771e-001 -3.144269e+000 5.080000e+000
      vertex   1.760259e-001 -3.170117e+000 5.080000e+000
    endloop
  endfacet
  facet normal 1.358136e-002 -9.999076e-001 4.905868e-004
    outer loop
      vertex   1.944127e-016 -3.175000e+000 0.000000e+000
      vertex   1.760259e-001 -3.170117e+000 5.080000e+000
      vertex   -8.985995e-002 -3.173728e+000 5.080000e+000
    endloop
  endfacet
  facet normal -7.013639e-002 -9.975373e-001 4.985275e-004
    outer loop
      vertex   -2.626077e-001 -3.164121e+000 0.000000e+000
      vertex   -8.985995e-002 -3.173728e+000 5.080000e+000
      vertex   -3.551155e-001 -3.155078e+000 5.080000e+000
    endloop
  endfacet
  facet normal -1.533622e-001 -9.881699e-001 5.058800e-004
    outer loop
      vertex   -5.234157e-001 -3.131559e+000 0.000000e+000
      vertex   -3.551155e-001 -3.155078e+000 5.080000e+000
      vertex   -6.178802e-001 -3.114298e+000 5.080000e+000
    endloop
  endfacet
  facet normal -2.355122e-001 -9.718712e-001 5.126444e-004
    outer loop
      vertex   -7.806369e-001 -3.077537e+000 0.000000e+000
      vertex   -6.178802e-001 -3.114298e+000 5.080000e+000
      vertex   -8.763109e-001 -3.051672e+000 5.080000e+000
    endloop
  endfacet
  facet normal -3.160104e-001 -9.487556e-001 5.188205e-004
    outer loop
      vertex   -1.032508e+000 -3.002424e+000 0.000000e+000
      vertex   -8.763109e-001 -3.051672e+000 5.080000e+000
      vertex   -1.128595e+000 -2.967642e+000 5.080000e+000
    endloop
  endfacet
  facet normal -3.942919e-001 -9.189851e-001 5.244085e-004
    outer loop
      vertex   -1.277304e+000 -2.906737e+000 0.000000e+000
      vertex   -1.128595e+000 -2.967642e+000 5.080000e+000
      vertex   -1.372963e+000 -2.862796e+000 5.080000e+000
    endloop
  endfacet
  facet normal -4.698077e-001 -8.827686e-001 5.294083e-004
    outer loop
      vertex   -1.513347e+000 -2.791130e+000 0.000000e+000
      vertex   -1.372963e+000 -2.862796e+000 5.080000e+000
      vertex   -1.607700e+000 -2.737869e+000 5.080000e+000
    endloop
  endfacet
  facet normal -5.420282e-001 -8.403601e-001 5.338199e-004
    outer loop
      vertex   -1.739019e+000 -2.656396e+000 0.000000e+000
      vertex   -1.607700e+000 -2.737869e+000 5.080000e+000
      vertex   -1.831161e+000 -2.593738e+000 5.080000e+000
    endloop
  endfacet
  facet normal -6.104468e-001 -7.920571e-001 5.376432e-004
    outer loop
      vertex   -1.952774e+000 -2.503457e+000 0.000000e+000
      vertex   -1.831161e+000 -2.593738e+000 5.080000e+000
      vertex   -2.041777e+000 -2.431414e+000 5.080000e+000
    endloop
  endfacet
  facet normal -6.745835e-001 -7.381984e-001 5.408784e-004
    outer loop
      vertex   -2.153146e+000 -2.333364e+000 0.000000e+000
      vertex   -2.041777e+000 -2.431414e+000 5.080000e+000
      vertex   -2.238071e+000 -2.252035e+000 5.080000e+000
    endloop
  endfacet
  facet normal -7.339885e-001 -6.791617e-001 5.435254e-004
    outer loop
      vertex   -2.338764e+000 -2.147279e+000 0.000000e+000
      vertex   -2.238071e+000 -2.252035e+000 5.080000e+000
      vertex   -2.418668e+000 -2.056860e+000 5.080000e+000
    endloop
  endfacet
  facet normal -7.882451e-001 -6.153612e-001 5.455841e-004
    outer loop
      vertex   -2.508354e+000 -1.946480e+000 0.000000e+000
      vertex   -2.418668e+000 -2.056860e+000 5.080000e+000
      vertex   -2.582299e+000 -1.847257e+000 5.080000e+000
    endloop
  endfacet
  facet normal -8.369727e-001 -5.472444e-001 5.470547e-004
    outer loop
      vertex   -2.660755e+000 -1.732342e+000 0.000000e+000
      vertex   -2.582299e+000 -1.847257e+000 5.080000e+000
      vertex   -2.727817e+000 -1.624697e+000 5.080000e+000
    endloop
  endfacet
  facet normal -8.798295e-001 -4.752891e-001 5.479370e-004
    outer loop
      vertex   -2.794922e+000 -1.506332e+000 0.000000e+000
      vertex   -2.727817e+000 -1.624697e+000 5.080000e+000
      vertex   -2.854201e+000 -1.390741e+000 5.080000e+000
    endloop
  endfacet
  facet normal -9.165146e-001 -3.999998e-001 1.096462e-003
    outer loop
      vertex   -2.909936e+000 -1.270000e+000 2.540000e+000
      vertex   -2.854201e+000 -1.390741e+000 5.080000e+000
      vertex   -2.960565e+000 -1.147031e+000 5.080000e+000
    endloop
  endfacet
  facet normal -9.467714e-001 -3.219049e-001 1.095107e-003
    outer loop
      vertex   -3.004493e+000 -1.026474e+000 2.540000e+000
      vertex   -2.960565e+000 -1.147031e+000 5.080000e+000
      vertex   -3.046163e+000 -8.952740e-001 5.080000e+000
    endloop
  endfacet
  facet normal -9.703872e-001 -2.415522e-001 1.091042e-003
    outer loop
      vertex   -3.078709e+000 -7.759984e-001 2.540000e+000
      vertex   -3.046163e+000 -8.952740e-001 5.080000e+000
      vertex   -3.110394e+000 -6.372378e-001 5.080000e+000
    endloop
  endfacet
  facet normal -9.871965e-001 -1.595051e-001 1.084266e-003
    outer loop
      vertex   -3.132083e+000 -5.202695e-001 2.540000e+000
      vertex   -3.110394e+000 -6.372378e-001 5.080000e+000
      vertex   -3.152808e+000 -3.747319e-001 5.080000e+000
    endloop
  endfacet
  facet normal -9.970813e-001 -7.633924e-002 1.074781e-003
    outer loop
      vertex   -3.164253e+000 -2.610183e-001 2.540000e+000
      vertex   -3.152808e+000 -3.747319e-001 5.080000e+000
      vertex   -3.173108e+000 -1.095974e-001 5.080000e+000
    endloop
  endfacet
  facet normal -9.999723e-001 7.362104e-003 1.062586e-003
    outer loop
      vertex   -3.175000e+000 0.000000e+000 2.540000e+000
      vertex   -3.173108e+000 -1.095974e-001 5.080000e+000
      vertex   -3.171150e+000 1.563058e-001 5.080000e+000
    endloop
  endfacet
  facet normal -9.958493e-001 9.101181e-002 1.047681e-003
    outer loop
      vertex   -3.164253e+000 2.610183e-001 2.540000e+000
      vertex   -3.171150e+000 1.563058e-001 5.080000e+000
      vertex   -3.146949e+000 4.211126e-001 5.080000e+000
    endloop
  endfacet
  facet normal -9.847410e-001 1.740231e-001 1.030065e-003
    outer loop
      vertex   -3.132083e+000 5.202695e-001 2.540000e+000
      vertex   -3.146949e+000 4.211126e-001 5.080000e+000
      vertex   -3.100675e+000 6.829656e-001 5.080000e+000
    endloop
  endfacet
  facet normal -9.667255e-001 2.558138e-001 1.009740e-003
    outer loop
      vertex   -3.078709e+000 7.759984e-001 2.540000e+000
      vertex   -3.100675e+000 6.829656e-001 5.080000e+000
      vertex   -3.032651e+000 9.400281e-001 5.080000e+000
    endloop
  endfacet
  facet normal -9.419292e-001 3.358102e-001 9.867052e-004
    outer loop
      vertex   -3.004493e+000 1.026474e+000 2.540000e+000
      vertex   -3.032651e+000 9.400281e-001 5.080000e+000
      vertex   -2.943356e+000 1.190497e+000 5.080000e+000
    endloop
  endfacet
  facet normal -9.105258e-001 4.134510e-001 9.609604e-004
    outer loop
      vertex   -2.909936e+000 1.270000e+000 2.540000e+000
      vertex   -2.943356e+000 1.190497e+000 5.080000e+000
      vertex   -2.833415e+000 1.432615e+000 5.080000e+000
    endloop
  endfacet
  facet normal -8.991732e-001 4.375927e-001 -4.633213e-004
    outer loop
      vertex   -2.909936e+000 1.270000e+000 0.000000e+000
      vertex   -2.833415e+000 1.432615e+000 5.080000e+000
      vertex   -2.794922e+000 1.506332e+000 0.000000e+000
    endloop
  endfacet
  facet normal -9.048271e-001 4.257793e-001 0.000000e+000
    outer loop
      vertex   -2.909936e+000 1.270000e+000 0.000000e+000
      vertex   -2.909936e+000 1.270000e+000 2.540000e+000
      vertex   -2.833415e+000 1.432615e+000 5.080000e+000
    endloop
  endfacet
  facet normal 8.147310e-001 -5.798389e-001 -3.443753e-004
    outer loop
      vertex   2.660755e+000 -1.732342e+000 0.000000e+000
      vertex   2.631518e+000 -1.776440e+000 5.080000e+000
      vertex   2.508354e+000 -1.946480e+000 0.000000e+000
    endloop
  endfacet
  facet normal 7.639803e-001 -6.452394e-001 -3.590793e-004
    outer loop
      vertex   2.508354e+000 -1.946480e+000 0.000000e+000
      vertex   2.473640e+000 -1.990409e+000 5.080000e+000
      vertex   2.338764e+000 -2.147279e+000 0.000000e+000
    endloop
  endfacet
  facet normal 7.079941e-001 -7.062182e-001 -3.731952e-004
    outer loop
      vertex   2.338764e+000 -2.147279e+000 0.000000e+000
      vertex   2.298412e+000 -2.190418e+000 5.080000e+000
      vertex   2.153146e+000 -2.333364e+000 0.000000e+000
    endloop
  endfacet
  facet normal 6.471562e-001 -7.623574e-001 -3.867230e-004
    outer loop
      vertex   2.153146e+000 -2.333364e+000 0.000000e+000
      vertex   2.107061e+000 -2.375062e+000 5.080000e+000
      vertex   1.952774e+000 -2.503457e+000 0.000000e+000
    endloop
  endfacet
  facet normal 5.818833e-001 -8.132722e-001 -3.996628e-004
    outer loop
      vertex   1.952774e+000 -2.503457e+000 0.000000e+000
      vertex   1.900932e+000 -2.543046e+000 5.080000e+000
      vertex   1.739019e+000 -2.656396e+000 0.000000e+000
    endloop
  endfacet
  facet normal 5.126229e-001 -8.586137e-001 -4.120145e-004
    outer loop
      vertex   1.739019e+000 -2.656396e+000 0.000000e+000
      vertex   1.681468e+000 -2.693193e+000 5.080000e+000
      vertex   1.513347e+000 -2.791130e+000 0.000000e+000
    endloop
  endfacet
  facet normal 4.398496e-001 -8.980714e-001 -4.237781e-004
    outer loop
      vertex   1.513347e+000 -2.791130e+000 0.000000e+000
      vertex   1.450210e+000 -2.824450e+000 5.080000e+000
      vertex   1.277304e+000 -2.906737e+000 0.000000e+000
    endloop
  endfacet
  facet normal 3.640620e-001 -9.313746e-001 -4.349536e-004
    outer loop
      vertex   1.277304e+000 -2.906737e+000 0.000000e+000
      vertex   1.208780e+000 -2.935894e+000 5.080000e+000
      vertex   1.032508e+000 -3.002424e+000 0.000000e+000
    endloop
  endfacet
  facet normal 2.857796e-001 -9.582953e-001 -4.455409e-004
    outer loop
      vertex   1.032508e+000 -3.002424e+000 0.000000e+000
      vertex   9.588717e-001 -3.026746e+000 5.080000e+000
      vertex   7.806369e-001 -3.077537e+000 0.000000e+000
    endloop
  endfacet
  facet normal 2.055387e-001 -9.786489e-001 -4.555401e-004
    outer loop
      vertex   7.806369e-001 -3.077537e+000 0.000000e+000
      vertex   7.022373e-001 -3.096367e+000 5.080000e+000
      vertex   5.234157e-001 -3.131559e+000 0.000000e+000
    endloop
  endfacet
  facet normal 1.238894e-001 -9.922959e-001 -4.649512e-004
    outer loop
      vertex   5.234157e-001 -3.131559e+000 0.000000e+000
      vertex   4.406771e-001 -3.144269e+000 5.080000e+000
      vertex   2.626077e-001 -3.164121e+000 0.000000e+000
    endloop
  endfacet
  facet normal 4.139101e-002 -9.991429e-001 -4.737742e-004
    outer loop
      vertex   2.626077e-001 -3.164121e+000 0.000000e+000
      vertex   1.760259e-001 -3.170117e+000 5.080000e+000
      vertex   1.944127e-016 -3.175000e+000 0.000000e+000
    endloop
  endfacet
  facet normal -4.139101e-002 -9.991429e-001 -4.820089e-004
    outer loop
      vertex   1.944127e-016 -3.175000e+000 0.000000e+000
      vertex   -8.985995e-002 -3.173728e+000 5.080000e+000
      vertex   -2.626077e-001 -3.164121e+000 0.000000e+000
    endloop
  endfacet
  facet normal -1.238894e-001 -9.922959e-001 -4.896555e-004
    outer loop
      vertex   -2.626077e-001 -3.164121e+000 0.000000e+000
      vertex   -3.551155e-001 -3.155078e+000 5.080000e+000
      vertex   -5.234157e-001 -3.131559e+000 0.000000e+000
    endloop
  endfacet
  facet normal -2.055387e-001 -9.786489e-001 -4.967140e-004
    outer loop
      vertex   -5.234157e-001 -3.131559e+000 0.000000e+000
      vertex   -6.178802e-001 -3.114298e+000 5.080000e+000
      vertex   -7.806369e-001 -3.077537e+000 0.000000e+000
    endloop
  endfacet
  facet normal -2.857796e-001 -9.582952e-001 -5.031842e-004
    outer loop
      vertex   -7.806369e-001 -3.077537e+000 0.000000e+000
      vertex   -8.763109e-001 -3.051672e+000 5.080000e+000
      vertex   -1.032508e+000 -3.002424e+000 0.000000e+000
    endloop
  endfacet
  facet normal -3.640620e-001 -9.313746e-001 -5.090663e-004
    outer loop
      vertex   -1.032508e+000 -3.002424e+000 0.000000e+000
      vertex   -1.128595e+000 -2.967642e+000 5.080000e+000
      vertex   -1.277304e+000 -2.906737e+000 0.000000e+000
    endloop
  endfacet
  facet normal -4.398496e-001 -8.980713e-001 -5.143602e-004
    outer loop
      vertex   -1.277304e+000 -2.906737e+000 0.000000e+000
      vertex   -1.372963e+000 -2.862796e+000 5.080000e+000
      vertex   -1.513347e+000 -2.791130e+000 0.000000e+000
    endloop
  endfacet
  facet normal -5.126229e-001 -8.586137e-001 -5.190659e-004
    outer loop
      vertex   -1.513347e+000 -2.791130e+000 0.000000e+000
      vertex   -1.607700e+000 -2.737869e+000 5.080000e+000
      vertex   -1.739019e+000 -2.656396e+000 0.000000e+000
    endloop
  endfacet
  facet normal -5.818833e-001 -8.132721e-001 -5.231833e-004
    outer loop
      vertex   -1.739019e+000 -2.656396e+000 0.000000e+000
      vertex   -1.831161e+000 -2.593738e+000 5.080000e+000
      vertex   -1.952774e+000 -2.503457e+000 0.000000e+000
    endloop
  endfacet
  facet normal -6.471561e-001 -7.623573e-001 -5.267126e-004
    outer loop
      vertex   -1.952774e+000 -2.503457e+000 0.000000e+000
      vertex   -2.041777e+000 -2.431414e+000 5.080000e+000
      vertex   -2.153146e+000 -2.333364e+000 0.000000e+000
    endloop
  endfacet
  facet normal -7.079941e-001 -7.062182e-001 -5.296537e-004
    outer loop
      vertex   -2.153146e+000 -2.333364e+000 0.000000e+000
      vertex   -2.238071e+000 -2.252035e+000 5.080000e+000
      vertex   -2.338764e+000 -2.147279e+000 0.000000e+000
    endloop
  endfacet
  facet normal -7.639803e-001 -6.452394e-001 -5.320065e-004
    outer loop
      vertex   -2.338764e+000 -2.147279e+000 0.000000e+000
      vertex   -2.418668e+000 -2.056860e+000 5.080000e+000
      vertex   -2.508354e+000 -1.946480e+000 0.000000e+000
    endloop
  endfacet
  facet normal -8.147310e-001 -5.798389e-001 -5.337712e-004
    outer loop
      vertex   -2.508354e+000 -1.946480e+000 0.000000e+000
      vertex   -2.582299e+000 -1.847257e+000 5.080000e+000
      vertex   -2.660755e+000 -1.732342e+000 0.000000e+000
    endloop
  endfacet
  facet normal -8.598985e-001 -5.104648e-001 -5.349476e-004
    outer loop
      vertex   -2.660755e+000 -1.732342e+000 0.000000e+000
      vertex   -2.727817e+000 -1.624697e+000 5.080000e+000
      vertex   -2.794922e+000 -1.506332e+000 0.000000e+000
    endloop
  endfacet
  facet normal -9.021596e-001 -4.314018e-001 -7.112524e-004
    outer loop
      vertex   -2.794922e+000 -1.506332e+000 0.000000e+000
      vertex   -2.854201e+000 -1.390741e+000 5.080000e+000
      vertex   -2.909936e+000 -1.270000e+000 2.540000e+000
    endloop
  endfacet
  facet normal -8.991733e-001 -4.375927e-001 0.000000e+000
    outer loop
      vertex   -2.909936e+000 -1.270000e+000 0.000000e+000
      vertex   -2.794922e+000 -1.506332e+000 0.000000e+000
      vertex   -2.909936e+000 -1.270000e+000 2.540000e+000
    endloop
  endfacet
  facet normal -9.321947e-001 -3.619557e-001 -1.057925e-003
    outer loop
      vertex   -2.909936e+000 -1.270000e+000 2.540000e+000
      vertex   -2.960565e+000 -1.147031e+000 5.080000e+000
      vertex   -3.004493e+000 -1.026474e+000 2.540000e+000
    endloop
  endfacet
  facet normal -9.587958e-001 -2.840943e-001 -1.055214e-003
    outer loop
      vertex   -3.004493e+000 -1.026474e+000 2.540000e+000
      vertex   -3.046163e+000 -8.952740e-001 5.080000e+000
      vertex   -3.078709e+000 -7.759984e-001 2.540000e+000
    endloop
  endfacet
  facet normal -9.789058e-001 -2.043095e-001 -1.049794e-003
    outer loop
      vertex   -3.078709e+000 -7.759984e-001 2.540000e+000
      vertex   -3.110394e+000 -6.372378e-001 5.080000e+000
      vertex   -3.132083e+000 -5.202695e-001 2.540000e+000
    endloop
  endfacet
  facet normal -9.923886e-001 -1.231416e-001 -1.041664e-003
    outer loop
      vertex   -3.132083e+000 -5.202695e-001 2.540000e+000
      vertex   -3.152808e+000 -3.747319e-001 5.080000e+000
      vertex   -3.164253e+000 -2.610183e-001 2.540000e+000
    endloop
  endfacet
  facet normal -9.991529e-001 -4.114005e-002 -1.030824e-003
    outer loop
      vertex   -3.164253e+000 -2.610183e-001 2.540000e+000
      vertex   -3.173108e+000 -1.095974e-001 5.080000e+000
      vertex   -3.175000e+000 0.000000e+000 2.540000e+000
    endloop
  endfacet
  facet normal -9.991529e-001 4.114005e-002 -1.017274e-003
    outer loop
      vertex   -3.175000e+000 0.000000e+000 2.540000e+000
      vertex   -3.171150e+000 1.563058e-001 5.080000e+000
      vertex   -3.164253e+000 2.610183e-001 2.540000e+000
    endloop
  endfacet
  facet normal -9.923886e-001 1.231416e-001 -1.001013e-003
    outer loop
      vertex   -3.164253e+000 2.610183e-001 2.540000e+000
      vertex   -3.146949e+000 4.211126e-001 5.080000e+000
      vertex   -3.132083e+000 5.202695e-001 2.540000e+000
    endloop
  endfacet
  facet normal -9.789058e-001 2.043095e-001 -9.820431e-004
    outer loop
      vertex   -3.132083e+000 5.202695e-001 2.540000e+000
      vertex   -3.100675e+000 6.829656e-001 5.080000e+000
      vertex   -3.078709e+000 7.759984e-001 2.540000e+000
    endloop
  endfacet
  facet normal -9.587959e-001 2.840943e-001 -9.603630e-004
    outer loop
      vertex   -3.078709e+000 7.759984e-001 2.540000e+000
      vertex   -3.032651e+000 9.400281e-001 5.080000e+000
      vertex   -3.004493e+000 1.026474e+000 2.540000e+000
    endloop
  endfacet
  facet normal -9.321948e-001 3.619557e-001 -9.359731e-004
    outer loop
      vertex   -3.004493e+000 1.026474e+000 2.540000e+000
      vertex   -2.943356e+000 1.190497e+000 5.080000e+000
      vertex   -2.909936e+000 1.270000e+000 2.540000e+000
    endloop
  endfacet
  facet normal -8.727361e-001 4.881920e-001 4.712588e-004
    outer loop
      vertex   -2.833415e+000 1.432615e+000 5.080000e+000
      vertex   -2.703599e+000 1.664685e+000 5.080000e+000
      vertex   -2.794922e+000 1.506332e+000 0.000000e+000
    endloop
  endfacet
  facet normal -8.598985e-001 5.104649e-001 -4.538057e-004
    outer loop
      vertex   -2.794922e+000 1.506332e+000 0.000000e+000
      vertex   -2.703599e+000 1.664685e+000 5.080000e+000
      vertex   -2.660755e+000 1.732342e+000 0.000000e+000
    endloop
  endfacet
  facet normal -8.288245e-001 5.595085e-001 4.614491e-004
    outer loop
      vertex   -2.660755e+000 1.732342e+000 0.000000e+000
      vertex   -2.703599e+000 1.664685e+000 5.080000e+000
      vertex   -2.554820e+000 1.885078e+000 5.080000e+000
    endloop
  endfacet
  facet normal -7.790992e-001 6.269005e-001 4.510513e-004
    outer loop
      vertex   -2.508354e+000 1.946480e+000 0.000000e+000
      vertex   -2.554820e+000 1.885078e+000 5.080000e+000
      vertex   -2.388121e+000 2.092249e+000 5.080000e+000
    endloop
  endfacet
  facet normal -7.239091e-001 6.898952e-001 4.400653e-004
    outer loop
      vertex   -2.338764e+000 2.147279e+000 0.000000e+000
      vertex   -2.388121e+000 2.092249e+000 5.080000e+000
      vertex   -2.204670e+000 2.284744e+000 5.080000e+000
    endloop
  endfacet
  facet normal -6.636413e-001 7.480508e-001 4.284912e-004
    outer loop
      vertex   -2.153146e+000 2.333364e+000 0.000000e+000
      vertex   -2.204670e+000 2.284744e+000 5.080000e+000
      vertex   -2.005756e+000 2.461213e+000 5.080000e+000
    endloop
  endfacet
  facet normal -5.987185e-001 8.009594e-001 4.163291e-004
    outer loop
      vertex   -1.952774e+000 2.503457e+000 0.000000e+000
      vertex   -2.005756e+000 2.461213e+000 5.080000e+000
      vertex   -1.792772e+000 2.620418e+000 5.080000e+000
    endloop
  endfacet
  facet normal -5.295962e-001 8.482498e-001 4.035788e-004
    outer loop
      vertex   -1.739019e+000 2.656396e+000 0.000000e+000
      vertex   -1.792772e+000 2.620418e+000 5.080000e+000
      vertex   -1.567214e+000 2.761243e+000 5.080000e+000
    endloop
  endfacet
  facet normal -4.567591e-001 8.895903e-001 3.902404e-004
    outer loop
      vertex   -1.513347e+000 2.791130e+000 0.000000e+000
      vertex   -1.567214e+000 2.761243e+000 5.080000e+000
      vertex   -1.330663e+000 2.882700e+000 5.080000e+000
    endloop
  endfacet
  facet normal -3.807182e-001 9.246910e-001 3.763140e-004
    outer loop
      vertex   -1.277304e+000 2.906737e+000 0.000000e+000
      vertex   -1.330663e+000 2.882700e+000 5.080000e+000
      vertex   -1.084778e+000 2.983937e+000 5.080000e+000
    endloop
  endfacet
  facet normal -3.020068e-001 9.533057e-001 3.617996e-004
    outer loop
      vertex   -1.032508e+000 3.002424e+000 0.000000e+000
      vertex   -1.084778e+000 2.983937e+000 5.080000e+000
      vertex   -8.312837e-001 3.064244e+000 5.080000e+000
    endloop
  endfacet
  facet normal -2.211771e-001 9.752336e-001 3.466970e-004
    outer loop
      vertex   -7.806369e-001 3.077537e+000 0.000000e+000
      vertex   -8.312837e-001 3.064244e+000 5.080000e+000
      vertex   -5.719589e-001 3.123057e+000 5.080000e+000
    endloop
  endfacet
  facet normal -1.387959e-001 9.903209e-001 3.310065e-004
    outer loop
      vertex   -5.234157e-001 3.131559e+000 0.000000e+000
      vertex   -5.719589e-001 3.123057e+000 5.080000e+000
      vertex   -3.086222e-001 3.159965e+000 5.080000e+000
    endloop
  endfacet
  facet normal -5.544123e-002 9.984619e-001 3.147280e-004
    outer loop
      vertex   -2.626077e-001 3.164121e+000 0.000000e+000
      vertex   -3.086222e-001 3.159965e+000 5.080000e+000
      vertex   -4.312082e-002 3.174707e+000 5.080000e+000
    endloop
  endfacet
  facet normal 2.830234e-002 9.995994e-001 2.978614e-004
    outer loop
      vertex   -5.832380e-016 3.175000e+000 0.000000e+000
      vertex   -4.312082e-002 3.174707e+000 5.080000e+000
      vertex   2.226831e-001 3.167181e+000 5.080000e+000
    endloop
  endfacet
  facet normal 1.118474e-001 9.937254e-001 2.804069e-004
    outer loop
      vertex   2.626077e-001 3.164121e+000 0.000000e+000
      vertex   2.226831e-001 3.167181e+000 5.080000e+000
      vertex   4.869250e-001 3.137440e+000 5.080000e+000
    endloop
  endfacet
  facet normal 1.946079e-001 9.808811e-001 2.623644e-004
    outer loop
      vertex   5.234157e-001 3.131559e+000 0.000000e+000
      vertex   4.869250e-001 3.137440e+000 5.080000e+000
      vertex   7.477515e-001 3.085692e+000 5.080000e+000
    endloop
  endfacet
  facet normal 2.760034e-001 9.611566e-001 2.437340e-004
    outer loop
      vertex   7.806369e-001 3.077537e+000 0.000000e+000
      vertex   7.477515e-001 3.085692e+000 5.080000e+000
      vertex   1.003333e+000 3.012299e+000 5.080000e+000
    endloop
  endfacet
  facet normal 3.554630e-001 9.346903e-001 2.245156e-004
    outer loop
      vertex   1.032508e+000 3.002424e+000 0.000000e+000
      vertex   1.003333e+000 3.012299e+000 5.080000e+000
      vertex   1.251877e+000 2.917778e+000 5.080000e+000
    endloop
  endfacet
  facet normal 4.324292e-001 9.016679e-001 2.047093e-004
    outer loop
      vertex   1.277304e+000 2.906737e+000 0.000000e+000
      vertex   1.251877e+000 2.917778e+000 5.080000e+000
      vertex   1.491640e+000 2.802791e+000 5.080000e+000
    endloop
  endfacet
  facet normal 5.063622e-001 8.623209e-001 1.843151e-004
    outer loop
      vertex   1.513347e+000 2.791130e+000 0.000000e+000
      vertex   1.491640e+000 2.802791e+000 5.080000e+000
      vertex   1.720940e+000 2.668144e+000 5.080000e+000
    endloop
  endfacet
  facet normal 5.767435e-001 8.169253e-001 1.633331e-004
    outer loop
      vertex   1.739019e+000 2.656396e+000 0.000000e+000
      vertex   1.720940e+000 2.668144e+000 5.080000e+000
      vertex   1.938169e+000 2.514782e+000 5.080000e+000
    endloop
  endfacet
  facet normal 6.430793e-001 7.657996e-001 1.417632e-004
    outer loop
      vertex   1.952774e+000 2.503457e+000 0.000000e+000
      vertex   1.938169e+000 2.514782e+000 5.080000e+000
      vertex   2.141803e+000 2.343780e+000 5.080000e+000
    endloop
  endfacet
  facet normal 7.049044e-001 7.093023e-001 1.196054e-004
    outer loop
      vertex   2.153146e+000 2.333364e+000 0.000000e+000
      vertex   2.141803e+000 2.343780e+000 5.080000e+000
      vertex   2.330414e+000 2.156339e+000 5.080000e+000
    endloop
  endfacet
  facet normal 7.617851e-001 6.478298e-001 9.685989e-005
    outer loop
      vertex   2.338764e+000 2.147279e+000 0.000000e+000
      vertex   2.330414e+000 2.156339e+000 5.080000e+000
      vertex   2.502678e+000 1.953772e+000 5.080000e+000
    endloop
  endfacet
  facet normal 8.133224e-001 5.818133e-001 7.352655e-005
    outer loop
      vertex   2.508354e+000 1.946480e+000 0.000000e+000
      vertex   2.502678e+000 1.953772e+000 5.080000e+000
      vertex   2.657389e+000 1.737501e+000 5.080000e+000
    endloop
  endfacet
  facet normal 8.591548e-001 5.117157e-001 4.960544e-005
    outer loop
      vertex   2.660755e+000 1.732342e+000 0.000000e+000
      vertex   2.657389e+000 1.737501e+000 5.080000e+000
      vertex   2.793459e+000 1.509043e+000 5.080000e+000
    endloop
  endfacet
  facet normal 8.990665e-001 4.378120e-001 2.524265e-005
    outer loop
      vertex   2.794922e+000 1.506332e+000 0.000000e+000
      vertex   2.793459e+000 1.509043e+000 5.080000e+000
      vertex   2.909936e+000 1.270000e+000 2.540000e+000
    endloop
  endfacet
  facet normal 8.991733e-001 4.375927e-001 0.000000e+000
    outer loop
      vertex   2.909936e+000 1.270000e+000 0.000000e+000
      vertex   2.794922e+000 1.506332e+000 0.000000e+000
      vertex   2.909936e+000 1.270000e+000 2.540000e+000
    endloop
  endfacet
  facet normal -8.147310e-001 5.798389e-001 -4.437019e-004
    outer loop
      vertex   -2.660755e+000 1.732342e+000 0.000000e+000
      vertex   -2.554820e+000 1.885078e+000 5.080000e+000
      vertex   -2.508354e+000 1.946480e+000 0.000000e+000
    endloop
  endfacet
  facet normal -7.639803e-001 6.452394e-001 -4.330100e-004
    outer loop
      vertex   -2.508354e+000 1.946480e+000 0.000000e+000
      vertex   -2.388121e+000 2.092249e+000 5.080000e+000
      vertex   -2.338764e+000 2.147279e+000 0.000000e+000
    endloop
  endfacet
  facet normal -7.079941e-001 7.062182e-001 -4.217300e-004
    outer loop
      vertex   -2.338764e+000 2.147279e+000 0.000000e+000
      vertex   -2.204670e+000 2.284744e+000 5.080000e+000
      vertex   -2.153146e+000 2.333364e+000 0.000000e+000
    endloop
  endfacet
  facet normal -6.471562e-001 7.623574e-001 -4.098619e-004
    outer loop
      vertex   -2.153146e+000 2.333364e+000 0.000000e+000
      vertex   -2.005756e+000 2.461213e+000 5.080000e+000
      vertex   -1.952774e+000 2.503457e+000 0.000000e+000
    endloop
  endfacet
  facet normal -5.818833e-001 8.132722e-001 -3.974057e-004
    outer loop
      vertex   -1.952774e+000 2.503457e+000 0.000000e+000
      vertex   -1.792772e+000 2.620418e+000 5.080000e+000
      vertex   -1.739019e+000 2.656396e+000 0.000000e+000
    endloop
  endfacet
  facet normal -5.126229e-001 8.586138e-001 -3.843614e-004
    outer loop
      vertex   -1.739019e+000 2.656396e+000 0.000000e+000
      vertex   -1.567214e+000 2.761243e+000 5.080000e+000
      vertex   -1.513347e+000 2.791130e+000 0.000000e+000
    endloop
  endfacet
  facet normal -4.398496e-001 8.980714e-001 -3.707290e-004
    outer loop
      vertex   -1.513347e+000 2.791130e+000 0.000000e+000
      vertex   -1.330663e+000 2.882700e+000 5.080000e+000
      vertex   -1.277304e+000 2.906737e+000 0.000000e+000
    endloop
  endfacet
  facet normal -3.640620e-001 9.313746e-001 -3.565085e-004
    outer loop
      vertex   -1.277304e+000 2.906737e+000 0.000000e+000
      vertex   -1.084778e+000 2.983937e+000 5.080000e+000
      vertex   -1.032508e+000 3.002424e+000 0.000000e+000
    endloop
  endfacet
  facet normal -2.857796e-001 9.582953e-001 -3.417001e-004
    outer loop
      vertex   -1.032508e+000 3.002424e+000 0.000000e+000
      vertex   -8.312837e-001 3.064244e+000 5.080000e+000
      vertex   -7.806369e-001 3.077537e+000 0.000000e+000
    endloop
  endfacet
  facet normal -2.055388e-001 9.786489e-001 -3.263035e-004
    outer loop
      vertex   -7.806369e-001 3.077537e+000 0.000000e+000
      vertex   -5.719589e-001 3.123057e+000 5.080000e+000
      vertex   -5.234157e-001 3.131559e+000 0.000000e+000
    endloop
  endfacet
  facet normal -1.238894e-001 9.922960e-001 -3.103190e-004
    outer loop
      vertex   -5.234157e-001 3.131559e+000 0.000000e+000
      vertex   -3.086222e-001 3.159965e+000 5.080000e+000
      vertex   -2.626077e-001 3.164121e+000 0.000000e+000
    endloop
  endfacet
  facet normal -4.139101e-002 9.991430e-001 -2.937464e-004
    outer loop
      vertex   -2.626077e-001 3.164121e+000 0.000000e+000
      vertex   -4.312082e-002 3.174707e+000 5.080000e+000
      vertex   -5.832380e-016 3.175000e+000 0.000000e+000
    endloop
  endfacet
  facet normal 4.139101e-002 9.991430e-001 -2.765859e-004
    outer loop
      vertex   -5.832380e-016 3.175000e+000 0.000000e+000
      vertex   2.226831e-001 3.167181e+000 5.080000e+000
      vertex   2.626077e-001 3.164121e+000 0.000000e+000
    endloop
  endfacet
  facet normal 1.238894e-001 9.922960e-001 -2.588374e-004
    outer loop
      vertex   2.626077e-001 3.164121e+000 0.000000e+000
      vertex   4.869250e-001 3.137440e+000 5.080000e+000
      vertex   5.234157e-001 3.131559e+000 0.000000e+000
    endloop
  endfacet
  facet normal 2.055388e-001 9.786489e-001 -2.405009e-004
    outer loop
      vertex   5.234157e-001 3.131559e+000 0.000000e+000
      vertex   7.477515e-001 3.085692e+000 5.080000e+000
      vertex   7.806369e-001 3.077537e+000 0.000000e+000
    endloop
  endfacet
  facet normal 2.857796e-001 9.582953e-001 -2.215765e-004
    outer loop
      vertex   7.806369e-001 3.077537e+000 0.000000e+000
      vertex   1.003333e+000 3.012299e+000 5.080000e+000
      vertex   1.032508e+000 3.002424e+000 0.000000e+000
    endloop
  endfacet
  facet normal 3.640620e-001 9.313747e-001 -2.020642e-004
    outer loop
      vertex   1.032508e+000 3.002424e+000 0.000000e+000
      vertex   1.251877e+000 2.917778e+000 5.080000e+000
      vertex   1.277304e+000 2.906737e+000 0.000000e+000
    endloop
  endfacet
  facet normal 4.398496e-001 8.980714e-001 -1.819639e-004
    outer loop
      vertex   1.277304e+000 2.906737e+000 0.000000e+000
      vertex   1.491640e+000 2.802791e+000 5.080000e+000
      vertex   1.513347e+000 2.791130e+000 0.000000e+000
    endloop
  endfacet
  facet normal 5.126230e-001 8.586138e-001 -1.612758e-004
    outer loop
      vertex   1.513347e+000 2.791130e+000 0.000000e+000
      vertex   1.720940e+000 2.668144e+000 5.080000e+000
      vertex   1.739019e+000 2.656396e+000 0.000000e+000
    endloop
  endfacet
  facet normal 5.818834e-001 8.132722e-001 -1.399999e-004
    outer loop
      vertex   1.739019e+000 2.656396e+000 0.000000e+000
      vertex   1.938169e+000 2.514782e+000 5.080000e+000
      vertex   1.952774e+000 2.503457e+000 0.000000e+000
    endloop
  endfacet
  facet normal 6.471562e-001 7.623574e-001 -1.181360e-004
    outer loop
      vertex   1.952774e+000 2.503457e+000 0.000000e+000
      vertex   2.141803e+000 2.343780e+000 5.080000e+000
      vertex   2.153146e+000 2.333364e+000 0.000000e+000
    endloop
  endfacet
  facet normal 7.079942e-001 7.062183e-001 -9.568439e-005
    outer loop
      vertex   2.153146e+000 2.333364e+000 0.000000e+000
      vertex   2.330414e+000 2.156339e+000 5.080000e+000
      vertex   2.338764e+000 2.147279e+000 0.000000e+000
    endloop
  endfacet
  facet normal 7.639804e-001 6.452395e-001 -7.264494e-005
    outer loop
      vertex   2.338764e+000 2.147279e+000 0.000000e+000
      vertex   2.502678e+000 1.953772e+000 5.080000e+000
      vertex   2.508354e+000 1.946480e+000 0.000000e+000
    endloop
  endfacet
  facet normal 8.147311e-001 5.798390e-001 -4.901771e-005
    outer loop
      vertex   2.508354e+000 1.946480e+000 0.000000e+000
      vertex   2.657389e+000 1.737501e+000 5.080000e+000
      vertex   2.660755e+000 1.732342e+000 0.000000e+000
    endloop
  endfacet
  facet normal 8.989609e-001 4.380288e-001 0.000000e+000
    outer loop
      vertex   2.793459e+000 1.509043e+000 5.080000e+000
      vertex   2.909936e+000 1.270000e+000 5.080000e+000
      vertex   2.909936e+000 1.270000e+000 2.540000e+000
    endloop
  endfacet
  facet normal 9.321952e-001 3.619559e-001 -0.000000e+000
    outer loop
      vertex   2.909936e+000 1.270000e+000 2.540000e+000
      vertex   2.909936e+000 1.270000e+000 5.080000e+000
      vertex   3.004493e+000 1.026474e+000 2.540000e+000
    endloop
  endfacet
  facet normal 8.598986e-001 5.104649e-001 -2.480272e-005
    outer loop
      vertex   2.794922e+000 1.506332e+000 0.000000e+000
      vertex   2.660755e+000 1.732342e+000 0.000000e+000
      vertex   2.793459e+000 1.509043e+000 5.080000e+000
    endloop
  endfacet
  facet normal 0.000000e+000 0.000000e+000 1.000000e+000
    outer loop
      vertex   2.793459e+000 1.509043e+000 5.080000e+000
      vertex   -2.833415e+000 1.432615e+000 5.080000e+000
      vertex   2.909936e+000 1.270000e+000 5.080000e+000
    endloop
  endfacet
  facet normal 0.000000e+000 0.000000e+000 1.000000e+000
    outer loop
      vertex   2.793459e+000 1.509043e+000 5.080000e+000
      vertex   -2.703599e+000 1.664685e+000 5.080000e+000
      vertex   -2.833415e+000 1.432615e+000 5.080000e+000
    endloop
  endfacet
  facet normal 0.000000e+000 0.000000e+000 1.000000e+000
    outer loop
      vertex   2.793459e+000 1.509043e+000 5.080000e+000
      vertex   2.657389e+000 1.737501e+000 5.080000e+000
      vertex   -2.703599e+000 1.664685e+000 5.080000e+000
    endloop
  endfacet
  facet normal 0.000000e+000 -0.000000e+000 1.000000e+000
    outer loop
      vertex   -2.703599e+000 1.664685e+000 5.080000e+000
      vertex   2.657389e+000 1.737501e+000 5.080000e+000
      vertex   -2.554820e+000 1.885078e+000 5.080000e+000
    endloop
  endfacet
  facet normal -0.000000e+000 -0.000000e+000 1.000000e+000
    outer loop
      vertex   -2.554820e+000 1.885078e+000 5.080000e+000
      vertex   2.657389e+000 1.737501e+000 5.080000e+000
      vertex   2.502678e+000 1.953772e+000 5.080000e+000
    endloop
  endfacet
  facet normal -0.000000e+000 -0.000000e+000 1.000000e+000
    outer loop
      vertex   -2.388121e+000 2.092249e+000 5.080000e+000
      vertex   2.502678e+000 1.953772e+000 5.080000e+000
      vertex   2.330414e+000 2.156339e+000 5.080000e+000
    endloop
  endfacet
  facet normal -0.000000e+000 -0.000000e+000 1.000000e+000
    outer loop
      vertex   -2.204670e+000 2.284744e+000 5.080000e+000
      vertex   2.330414e+000 2.156339e+000 5.080000e+000
      vertex   2.141803e+000 2.343780e+000 5.080000e+000
    endloop
  endfacet
  facet normal -0.000000e+000 -0.000000e+000 1.000000e+000
    outer loop
      vertex   -2.005756e+000 2.461213e+000 5.080000e+000
      vertex   2.141803e+000 2.343780e+000 5.080000e+000
      vertex   1.938169e+000 2.514782e+000 5.080000e+000
    endloop
  endfacet
  facet normal -0.000000e+000 -0.000000e+000 1.000000e+000
    outer loop
      vertex   -1.792772e+000 2.620418e+000 5.080000e+000
      vertex   1.938169e+000 2.514782e+000 5.080000e+000
      vertex   1.720940e+000 2.668144e+000 5.080000e+000
    endloop
  endfacet
  facet normal -0.000000e+000 -0.000000e+000 1.000000e+000
    outer loop
      vertex   -1.567214e+000 2.761243e+000 5.080000e+000
      vertex   1.720940e+000 2.668144e+000 5.080000e+000
      vertex   1.491640e+000 2.802791e+000 5.080000e+000
    endloop
  endfacet
  facet normal -0.000000e+000 -0.000000e+000 1.000000e+000
    outer loop
      vertex   -1.330663e+000 2.882700e+000 5.080000e+000
      vertex   1.491640e+000 2.802791e+000 5.080000e+000
      vertex   1.251877e+000 2.917778e+000 5.080000e+000
    endloop
  endfacet
  facet normal -0.000000e+000 -0.000000e+000 1.000000e+000
    outer loop
      vertex   -1.084778e+000 2.983937e+000 5.080000e+000
      vertex   1.251877e+000 2.917778e+000 5.080000e+000
      vertex   1.003333e+000 3.012299e+000 5.080000e+000
    endloop
  endfacet
  facet normal -0.000000e+000 -0.000000e+000 1.000000e+000
    outer loop
      vertex   -8.312837e-001 3.064244e+000 5.080000e+000
      vertex   1.003333e+000 3.012299e+000 5.080000e+000
      vertex   7.477515e-001 3.085692e+000 5.080000e+000
    endloop
  endfacet
  facet normal -0.000000e+000 -0.000000e+000 1.000000e+000
    outer loop
      vertex   -5.719589e-001 3.123057e+000 5.080000e+000
      vertex   7.477515e-001 3.085692e+000 5.080000e+000
      vertex   4.869250e-001 3.137440e+000 5.080000e+000
    endloop
  endfacet
  facet normal -0.000000e+000 -0.000000e+000 1.000000e+000
    outer loop
      vertex   -3.086222e-001 3.159965e+000 5.080000e+000
      vertex   4.869250e-001 3.137440e+000 5.080000e+000
      vertex   2.226831e-001 3.167181e+000 5.080000e+000
    endloop
  endfacet
  facet normal -0.000000e+000 0.000000e+000 1.000000e+000
    outer loop
      vertex   -4.312082e-002 3.174707e+000 5.080000e+000
      vertex   -3.086222e-001 3.159965e+000 5.080000e+000
      vertex   2.226831e-001 3.167181e+000 5.080000e+000
    endloop
  endfacet
  facet normal 0.000000e+000 -0.000000e+000 1.000000e+000
    outer loop
      vertex   -2.554820e+000 1.885078e+000 5.080000e+000
      vertex   2.502678e+000 1.953772e+000 5.080000e+000
      vertex   -2.388121e+000 2.092249e+000 5.080000e+000
    endloop
  endfacet
  facet normal 0.000000e+000 -0.000000e+000 1.000000e+000
    outer loop
      vertex   -2.388121e+000 2.092249e+000 5.080000e+000
      vertex   2.330414e+000 2.156339e+000 5.080000e+000
      vertex   -2.204670e+000 2.284744e+000 5.080000e+000
    endloop
  endfacet
  facet normal 0.000000e+000 -0.000000e+000 1.000000e+000
    outer loop
      vertex   -2.204670e+000 2.284744e+000 5.080000e+000
      vertex   2.141803e+000 2.343780e+000 5.080000e+000
      vertex   -2.005756e+000 2.461213e+000 5.080000e+000
    endloop
  endfacet
  facet normal 0.000000e+000 -0.000000e+000 1.000000e+000
    outer loop
      vertex   -2.005756e+000 2.461213e+000 5.080000e+000
      vertex   1.938169e+000 2.514782e+000 5.080000e+000
      vertex   -1.792772e+000 2.620418e+000 5.080000e+000
    endloop
  endfacet
  facet normal 0.000000e+000 -0.000000e+000 1.000000e+000
    outer loop
      vertex   -1.792772e+000 2.620418e+000 5.080000e+000
      vertex   1.720940e+000 2.668144e+000 5.080000e+000
      vertex   -1.567214e+000 2.761243e+000 5.080000e+000
    endloop
  endfacet
  facet normal 0.000000e+000 -0.000000e+000 1.000000e+000
    outer loop
      vertex   -1.567214e+000 2.761243e+000 5.080000e+000
      vertex   1.491640e+000 2.802791e+000 5.080000e+000
      vertex   -1.330663e+000 2.882700e+000 5.080000e+000
    endloop
  endfacet
  facet normal 0.000000e+000 -0.000000e+000 1.000000e+000
    outer loop
      vertex   -1.330663e+000 2.882700e+000 5.080000e+000
      vertex   1.251877e+000 2.917778e+000 5.080000e+000
      vertex   -1.084778e+000 2.983937e+000 5.080000e+000
    endloop
  endfacet
  facet normal 0.000000e+000 -0.000000e+000 1.000000e+000
    outer loop
      vertex   -1.084778e+000 2.983937e+000 5.080000e+000
      vertex   1.003333e+000 3.012299e+000 5.080000e+000
      vertex   -8.312837e-001 3.064244e+000 5.080000e+000
    endloop
  endfacet
  facet normal 0.000000e+000 -0.000000e+000 1.000000e+000
    outer loop
      vertex   -8.312837e-001 3.064244e+000 5.080000e+000
      vertex   7.477515e-001 3.085692e+000 5.080000e+000
      vertex   -5.719589e-001 3.123057e+000 5.080000e+000
    endloop
  endfacet
  facet normal 0.000000e+000 -0.000000e+000 1.000000e+000
    outer loop
      vertex   -5.719589e-001 3.123057e+000 5.080000e+000
      vertex   4.869250e-001 3.137440e+000 5.080000e+000
      vertex   -3.086222e-001 3.159965e+000 5.080000e+000
    endloop
  endfacet
  facet normal -0.000000e+000 0.000000e+000 1.000000e+000
    outer loop
      vertex   -2.833415e+000 1.432615e+000 5.080000e+000
      vertex   -2.943356e+000 1.190497e+000 5.080000e+000
      vertex   2.909936e+000 1.270000e+000 5.080000e+000
    endloop
  endfacet
  facet normal 0.000000e+000 0.000000e+000 1.000000e+000
    outer loop
      vertex   2.909936e+000 1.270000e+000 5.080000e+000
      vertex   -2.943356e+000 1.190497e+000 5.080000e+000
      vertex   3.006001e+000 1.022049e+000 5.080000e+000
    endloop
  endfacet
  facet normal 0.000000e+000 0.000000e+000 1.000000e+000
    outer loop
      vertex   3.006001e+000 1.022049e+000 5.080000e+000
      vertex   -2.943356e+000 1.190497e+000 5.080000e+000
      vertex   -3.032651e+000 9.400281e-001 5.080000e+000
    endloop
  endfacet
  facet normal 0.000000e+000 0.000000e+000 1.000000e+000
    outer loop
      vertex   3.080981e+000 7.669287e-001 5.080000e+000
      vertex   -3.032651e+000 9.400281e-001 5.080000e+000
      vertex   -3.100675e+000 6.829656e-001 5.080000e+000
    endloop
  endfacet
  facet normal 0.000000e+000 0.000000e+000 1.000000e+000
    outer loop
      vertex   3.134351e+000 5.064291e-001 5.080000e+000
      vertex   -3.100675e+000 6.829656e-001 5.080000e+000
      vertex   -3.146949e+000 4.211126e-001 5.080000e+000
    endloop
  endfacet
  facet normal 0.000000e+000 0.000000e+000 1.000000e+000
    outer loop
      vertex   3.165735e+000 2.423772e-001 5.080000e+000
      vertex   -3.146949e+000 4.211126e-001 5.080000e+000
      vertex   -3.171150e+000 1.563058e-001 5.080000e+000
    endloop
  endfacet
  facet normal 0.000000e+000 0.000000e+000 1.000000e+000
    outer loop
      vertex   3.174914e+000 -2.337469e-002 5.080000e+000
      vertex   -3.171150e+000 1.563058e-001 5.080000e+000
      vertex   -3.173108e+000 -1.095974e-001 5.080000e+000
    endloop
  endfacet
  facet normal 0.000000e+000 0.000000e+000 1.000000e+000
    outer loop
      vertex   3.161823e+000 -2.889627e-001 5.080000e+000
      vertex   -3.173108e+000 -1.095974e-001 5.080000e+000
      vertex   -3.152808e+000 -3.747319e-001 5.080000e+000
    endloop
  endfacet
  facet normal 0.000000e+000 0.000000e+000 1.000000e+000
    outer loop
      vertex   3.126554e+000 -5.525238e-001 5.080000e+000
      vertex   -3.152808e+000 -3.747319e-001 5.080000e+000
      vertex   -3.110394e+000 -6.372378e-001 5.080000e+000
    endloop
  endfacet
  facet normal 0.000000e+000 0.000000e+000 1.000000e+000
    outer loop
      vertex   3.069355e+000 -8.122093e-001 5.080000e+000
      vertex   -3.110394e+000 -6.372378e-001 5.080000e+000
      vertex   -3.046163e+000 -8.952740e-001 5.080000e+000
    endloop
  endfacet
  facet normal 0.000000e+000 0.000000e+000 1.000000e+000
    outer loop
      vertex   2.990627e+000 -1.066198e+000 5.080000e+000
      vertex   -3.046163e+000 -8.952740e-001 5.080000e+000
      vertex   -2.960565e+000 -1.147031e+000 5.080000e+000
    endloop
  endfacet
  facet normal 0.000000e+000 0.000000e+000 1.000000e+000
    outer loop
      vertex   2.890921e+000 -1.312708e+000 5.080000e+000
      vertex   -2.960565e+000 -1.147031e+000 5.080000e+000
      vertex   -2.854201e+000 -1.390741e+000 5.080000e+000
    endloop
  endfacet
  facet normal 0.000000e+000 0.000000e+000 1.000000e+000
    outer loop
      vertex   2.770937e+000 -1.550010e+000 5.080000e+000
      vertex   -2.854201e+000 -1.390741e+000 5.080000e+000
      vertex   -2.727817e+000 -1.624697e+000 5.080000e+000
    endloop
  endfacet
  facet normal 0.000000e+000 0.000000e+000 1.000000e+000
    outer loop
      vertex   2.631518e+000 -1.776440e+000 5.080000e+000
      vertex   -2.727817e+000 -1.624697e+000 5.080000e+000
      vertex   -2.582299e+000 -1.847257e+000 5.080000e+000
    endloop
  endfacet
  facet normal 0.000000e+000 0.000000e+000 1.000000e+000
    outer loop
      vertex   2.473640e+000 -1.990409e+000 5.080000e+000
      vertex   -2.582299e+000 -1.847257e+000 5.080000e+000
      vertex   -2.418668e+000 -2.056860e+000 5.080000e+000
    endloop
  endfacet
  facet normal 0.000000e+000 0.000000e+000 1.000000e+000
    outer loop
      vertex   2.298412e+000 -2.190418e+000 5.080000e+000
      vertex   -2.418668e+000 -2.056860e+000 5.080000e+000
      vertex   -2.238071e+000 -2.252035e+000 5.080000e+000
    endloop
  endfacet
  facet normal 0.000000e+000 0.000000e+000 1.000000e+000
    outer loop
      vertex   2.107061e+000 -2.375062e+000 5.080000e+000
      vertex   -2.238071e+000 -2.252035e+000 5.080000e+000
      vertex   -2.041777e+000 -2.431414e+000 5.080000e+000
    endloop
  endfacet
  facet normal 0.000000e+000 0.000000e+000 1.000000e+000
    outer loop
      vertex   1.900932e+000 -2.543046e+000 5.080000e+000
      vertex   -2.041777e+000 -2.431414e+000 5.080000e+000
      vertex   -1.831161e+000 -2.593738e+000 5.080000e+000
    endloop
  endfacet
  facet normal 0.000000e+000 0.000000e+000 1.000000e+000
    outer loop
      vertex   1.681468e+000 -2.693193e+000 5.080000e+000
      vertex   -1.831161e+000 -2.593738e+000 5.080000e+000
      vertex   -1.607700e+000 -2.737869e+000 5.080000e+000
    endloop
  endfacet
  facet normal 0.000000e+000 0.000000e+000 1.000000e+000
    outer loop
      vertex   1.450210e+000 -2.824450e+000 5.080000e+000
      vertex   -1.607700e+000 -2.737869e+000 5.080000e+000
      vertex   -1.372963e+000 -2.862796e+000 5.080000e+000
    endloop
  endfacet
  facet normal 0.000000e+000 0.000000e+000 1.000000e+000
    outer loop
      vertex   1.208780e+000 -2.935894e+000 5.080000e+000
      vertex   -1.372963e+000 -2.862796e+000 5.080000e+000
      vertex   -1.128595e+000 -2.967642e+000 5.080000e+000
    endloop
  endfacet
  facet normal 0.000000e+000 0.000000e+000 1.000000e+000
    outer loop
      vertex   9.588717e-001 -3.026746e+000 5.080000e+000
      vertex   -1.128595e+000 -2.967642e+000 5.080000e+000
      vertex   -8.763109e-001 -3.051672e+000 5.080000e+000
    endloop
  endfacet
  facet normal 0.000000e+000 0.000000e+000 1.000000e+000
    outer loop
      vertex   7.022373e-001 -3.096367e+000 5.080000e+000
      vertex   -8.763109e-001 -3.051672e+000 5.080000e+000
      vertex   -6.178802e-001 -3.114298e+000 5.080000e+000
    endloop
  endfacet
  facet normal 0.000000e+000 0.000000e+000 1.000000e+000
    outer loop
      vertex   4.406771e-001 -3.144269e+000 5.080000e+000
      vertex   -6.178802e-001 -3.114298e+000 5.080000e+000
      vertex   -3.551155e-001 -3.155078e+000 5.080000e+000
    endloop
  endfacet
  facet normal 0.000000e+000 0.000000e+000 1.000000e+000
    outer loop
      vertex   1.760259e-001 -3.170117e+000 5.080000e+000
      vertex   -3.551155e-001 -3.155078e+000 5.080000e+000
      vertex   -8.985995e-002 -3.173728e+000 5.080000e+000
    endloop
  endfacet
  facet normal 0.000000e+000 -0.000000e+000 1.000000e+000
    outer loop
      vertex   1.760259e-001 -3.170117e+000 5.080000e+000
      vertex   4.406771e-001 -3.144269e+000 5.080000e+000
      vertex   -3.551155e-001 -3.155078e+000 5.080000e+000
    endloop
  endfacet
  facet normal 0.000000e+000 0.000000e+000 1.000000e+000
    outer loop
      vertex   3.006001e+000 1.022049e+000 5.080000e+000
      vertex   -3.032651e+000 9.400281e-001 5.080000e+000
      vertex   3.080981e+000 7.669287e-001 5.080000e+000
    endloop
  endfacet
  facet normal 0.000000e+000 0.000000e+000 1.000000e+000
    outer loop
      vertex   3.080981e+000 7.669287e-001 5.080000e+000
      vertex   -3.100675e+000 6.829656e-001 5.080000e+000
      vertex   3.134351e+000 5.064291e-001 5.080000e+000
    endloop
  endfacet
  facet normal 0.000000e+000 0.000000e+000 1.000000e+000
    outer loop
      vertex   3.134351e+000 5.064291e-001 5.080000e+000
      vertex   -3.146949e+000 4.211126e-001 5.080000e+000
      vertex   3.165735e+000 2.423772e-001 5.080000e+000
    endloop
  endfacet
  facet normal 0.000000e+000 0.000000e+000 1.000000e+000
    outer loop
      vertex   3.165735e+000 2.423772e-001 5.080000e+000
      vertex   -3.171150e+000 1.563058e-001 5.080000e+000
      vertex   3.174914e+000 -2.337469e-002 5.080000e+000
    endloop
  endfacet
  facet normal 0.000000e+000 0.000000e+000 1.000000e+000
    outer loop
      vertex   3.174914e+000 -2.337469e-002 5.080000e+000
      vertex   -3.173108e+000 -1.095974e-001 5.080000e+000
      vertex   3.161823e+000 -2.889627e-001 5.080000e+000
    endloop
  endfacet
  facet normal 0.000000e+000 0.000000e+000 1.000000e+000
    outer loop
      vertex   3.161823e+000 -2.889627e-001 5.080000e+000
      vertex   -3.152808e+000 -3.747319e-001 5.080000e+000
      vertex   3.126554e+000 -5.525238e-001 5.080000e+000
    endloop
  endfacet
  facet normal 0.000000e+000 0.000000e+000 1.000000e+000
    outer loop
      vertex   3.126554e+000 -5.525238e-001 5.080000e+000
      vertex   -3.110394e+000 -6.372378e-001 5.080000e+000
      vertex   3.069355e+000 -8.122093e-001 5.080000e+000
    endloop
  endfacet
  facet normal 0.000000e+000 0.000000e+000 1.000000e+000
    outer loop
      vertex   3.069355e+000 -8.122093e-001 5.080000e+000
      vertex   -3.046163e+000 -8.952740e-001 5.080000e+000
      vertex   2.990627e+000 -1.066198e+000 5.080000e+000
    endloop
  endfacet
  facet normal 0.000000e+000 0.000000e+000 1.000000e+000
    outer loop
      vertex   2.990627e+000 -1.066198e+000 5.080000e+000
      vertex   -2.960565e+000 -1.147031e+000 5.080000e+000
      vertex   2.890921e+000 -1.312708e+000 5.080000e+000
    endloop
  endfacet
  facet normal 0.000000e+000 0.000000e+000 1.000000e+000
    outer loop
      vertex   2.890921e+000 -1.312708e+000 5.080000e+000
      vertex   -2.854201e+000 -1.390741e+000 5.080000e+000
      vertex   2.770937e+000 -1.550010e+000 5.080000e+000
    endloop
  endfacet
  facet normal 0.000000e+000 0.000000e+000 1.000000e+000
    outer loop
      vertex   2.770937e+000 -1.550010e+000 5.080000e+000
      vertex   -2.727817e+000 -1.624697e+000 5.080000e+000
      vertex   2.631518e+000 -1.776440e+000 5.080000e+000
    endloop
  endfacet
  facet normal 0.000000e+000 0.000000e+000 1.000000e+000
    outer loop
      vertex   2.631518e+000 -1.776440e+000 5.080000e+000
      vertex   -2.582299e+000 -1.847257e+000 5.080000e+000
      vertex   2.473640e+000 -1.990409e+000 5.080000e+000
    endloop
  endfacet
  facet normal 0.000000e+000 0.000000e+000 1.000000e+000
    outer loop
      vertex   2.473640e+000 -1.990409e+000 5.080000e+000
      vertex   -2.418668e+000 -2.056860e+000 5.080000e+000
      vertex   2.298412e+000 -2.190418e+000 5.080000e+000
    endloop
  endfacet
  facet normal 0.000000e+000 0.000000e+000 1.000000e+000
    outer loop
      vertex   2.298412e+000 -2.190418e+000 5.080000e+000
      vertex   -2.238071e+000 -2.252035e+000 5.080000e+000
      vertex   2.107061e+000 -2.375062e+000 5.080000e+000
    endloop
  endfacet
  facet normal 0.000000e+000 0.000000e+000 1.000000e+000
    outer loop
      vertex   2.107061e+000 -2.375062e+000 5.080000e+000
      vertex   -2.041777e+000 -2.431414e+000 5.080000e+000
      vertex   1.900932e+000 -2.543046e+000 5.080000e+000
    endloop
  endfacet
  facet normal 0.000000e+000 0.000000e+000 1.000000e+000
    outer loop
      vertex   1.900932e+000 -2.543046e+000 5.080000e+000
      vertex   -1.831161e+000 -2.593738e+000 5.080000e+000
      vertex   1.681468e+000 -2.693193e+000 5.080000e+000
    endloop
  endfacet
  facet normal 0.000000e+000 0.000000e+000 1.000000e+000
    outer loop
      vertex   1.681468e+000 -2.693193e+000 5.080000e+000
      vertex   -1.607700e+000 -2.737869e+000 5.080000e+000
      vertex   1.450210e+000 -2.824450e+000 5.080000e+000
    endloop
  endfacet
  facet normal 0.000000e+000 0.000000e+000 1.000000e+000
    outer loop
      vertex   1.450210e+000 -2.824450e+000 5.080000e+000
      vertex   -1.372963e+000 -2.862796e+000 5.080000e+000
      vertex   1.208780e+000 -2.935894e+000 5.080000e+000
    endloop
  endfacet
  facet normal 0.000000e+000 0.000000e+000 1.000000e+000
    outer loop
      vertex   1.208780e+000 -2.935894e+000 5.080000e+000
      vertex   -1.128595e+000 -2.967642e+000 5.080000e+000
      vertex   9.588717e-001 -3.026746e+000 5.080000e+000
    endloop
  endfacet
  facet normal 0.000000e+000 0.000000e+000 1.000000e+000
    outer loop
      vertex   9.588717e-001 -3.026746e+000 5.080000e+000
      vertex   -8.763109e-001 -3.051672e+000 5.080000e+000
      vertex   7.022373e-001 -3.096367e+000 5.080000e+000
    endloop
  endfacet
  facet normal 0.000000e+000 0.000000e+000 1.000000e+000
    outer loop
      vertex   7.022373e-001 -3.096367e+000 5.080000e+000
      vertex   -6.178802e-001 -3.114298e+000 5.080000e+000
      vertex   4.406771e-001 -3.144269e+000 5.080000e+000
    endloop
  endfacet
  facet normal 0.000000e+000 -0.000000e+000 -1.000000e+000
    outer loop
      vertex   -2.794922e+000 1.506332e+000 0.000000e+000
      vertex   2.794922e+000 1.506332e+000 0.000000e+000
      vertex   -2.909936e+000 1.270000e+000 0.000000e+000
    endloop
  endfacet
  facet normal 0.000000e+000 0.000000e+000 -1.000000e+000
    outer loop
      vertex   -2.794922e+000 1.506332e+000 0.000000e+000
      vertex   2.660755e+000 1.732342e+000 0.000000e+000
      vertex   2.794922e+000 1.506332e+000 0.000000e+000
    endloop
  endfacet
  facet normal 0.000000e+000 0.000000e+000 -1.000000e+000
    outer loop
      vertex   -2.794922e+000 1.506332e+000 0.000000e+000
      vertex   -2.660755e+000 1.732342e+000 0.000000e+000
      vertex   2.660755e+000 1.732342e+000 0.000000e+000
    endloop
  endfacet
  facet normal -0.000000e+000 0.000000e+000 -1.000000e+000
    outer loop
      vertex   2.660755e+000 1.732342e+000 0.000000e+000
      vertex   -2.660755e+000 1.732342e+000 0.000000e+000
      vertex   2.508354e+000 1.946480e+000 0.000000e+000
    endloop
  endfacet
  facet normal -0.000000e+000 0.000000e+000 -1.000000e+000
    outer loop
      vertex   2.508354e+000 1.946480e+000 0.000000e+000
      vertex   -2.660755e+000 1.732342e+000 0.000000e+000
      vertex   -2.508354e+000 1.946480e+000 0.000000e+000
    endloop
  endfacet
  facet normal -0.000000e+000 0.000000e+000 -1.000000e+000
    outer loop
      vertex   2.338764e+000 2.147279e+000 0.000000e+000
      vertex   -2.508354e+000 1.946480e+000 0.000000e+000
      vertex   -2.338764e+000 2.147279e+000 0.000000e+000
    endloop
  endfacet
  facet normal -0.000000e+000 0.000000e+000 -1.000000e+000
    outer loop
      vertex   2.153146e+000 2.333364e+000 0.000000e+000
      vertex   -2.338764e+000 2.147279e+000 0.000000e+000
      vertex   -2.153146e+000 2.333364e+000 0.000000e+000
    endloop
  endfacet
  facet normal -0.000000e+000 0.000000e+000 -1.000000e+000
    outer loop
      vertex   1.952774e+000 2.503457e+000 0.000000e+000
      vertex   -2.153146e+000 2.333364e+000 0.000000e+000
      vertex   -1.952774e+000 2.503457e+000 0.000000e+000
    endloop
  endfacet
  facet normal -0.000000e+000 0.000000e+000 -1.000000e+000
    outer loop
      vertex   1.739019e+000 2.656396e+000 0.000000e+000
      vertex   -1.952774e+000 2.503457e+000 0.000000e+000
      vertex   -1.739019e+000 2.656396e+000 0.000000e+000
    endloop
  endfacet
  facet normal -0.000000e+000 0.000000e+000 -1.000000e+000
    outer loop
      vertex   1.513347e+000 2.791130e+000 0.000000e+000
      vertex   -1.739019e+000 2.656396e+000 0.000000e+000
      vertex   -1.513347e+000 2.791130e+000 0.000000e+000
    endloop
  endfacet
  facet normal -0.000000e+000 0.000000e+000 -1.000000e+000
    outer loop
      vertex   1.277304e+000 2.906737e+000 0.000000e+000
      vertex   -1.513347e+000 2.791130e+000 0.000000e+000
      vertex   -1.277304e+000 2.906737e+000 0.000000e+000
    endloop
  endfacet
  facet normal -0.000000e+000 0.000000e+000 -1.000000e+000
    outer loop
      vertex   1.032508e+000 3.002424e+000 0.000000e+000
      vertex   -1.277304e+000 2.906737e+000 0.000000e+000
      vertex   -1.032508e+000 3.002424e+000 0.000000e+000
    endloop
  endfacet
  facet normal -0.000000e+000 0.000000e+000 -1.000000e+000
    outer loop
      vertex   7.806369e-001 3.077537e+000 0.000000e+000
      vertex   -1.032508e+000 3.002424e+000 0.000000e+000
      vertex   -7.806369e-001 3.077537e+000 0.000000e+000
    endloop
  endfacet
  facet normal -0.000000e+000 0.000000e+000 -1.000000e+000
    outer loop
      vertex   5.234157e-001 3.131559e+000 0.000000e+000
      vertex   -7.806369e-001 3.077537e+000 0.000000e+000
      vertex   -5.234157e-001 3.131559e+000 0.000000e+000
    endloop
  endfacet
  facet normal -0.000000e+000 0.000000e+000 -1.000000e+000
    outer loop
      vertex   2.626077e-001 3.164121e+000 0.000000e+000
      vertex   -5.234157e-001 3.131559e+000 0.000000e+000
      vertex   -2.626077e-001 3.164121e+000 0.000000e+000
    endloop
  endfacet
  facet normal -0.000000e+000 -0.000000e+000 -1.000000e+000
    outer loop
      vertex   -5.832380e-016 3.175000e+000 0.000000e+000
      vertex   2.626077e-001 3.164121e+000 0.000000e+000
      vertex   -2.626077e-001 3.164121e+000 0.000000e+000
    endloop
  endfacet
  facet normal 0.000000e+000 0.000000e+000 -1.000000e+000
    outer loop
      vertex   2.508354e+000 1.946480e+000 0.000000e+000
      vertex   -2.508354e+000 1.946480e+000 0.000000e+000
      vertex   2.338764e+000 2.147279e+000 0.000000e+000
    endloop
  endfacet
  facet normal -0.000000e+000 0.000000e+000 -1.000000e+000
    outer loop
      vertex   2.338764e+000 2.147279e+000 0.000000e+000
      vertex   -2.338764e+000 2.147279e+000 0.000000e+000
      vertex   2.153146e+000 2.333364e+000 0.000000e+000
    endloop
  endfacet
  facet normal -0.000000e+000 0.000000e+000 -1.000000e+000
    outer loop
      vertex   2.153146e+000 2.333364e+000 0.000000e+000
      vertex   -2.153146e+000 2.333364e+000 0.000000e+000
      vertex   1.952774e+000 2.503457e+000 0.000000e+000
    endloop
  endfacet
  facet normal -0.000000e+000 0.000000e+000 -1.000000e+000
    outer loop
      vertex   1.952774e+000 2.503457e+000 0.000000e+000
      vertex   -1.952774e+000 2.503457e+000 0.000000e+000
      vertex   1.739019e+000 2.656396e+000 0.000000e+000
    endloop
  endfacet
  facet normal -0.000000e+000 0.000000e+000 -1.000000e+000
    outer loop
      vertex   1.739019e+000 2.656396e+000 0.000000e+000
      vertex   -1.739019e+000 2.656396e+000 0.000000e+000
      vertex   1.513347e+000 2.791130e+000 0.000000e+000
    endloop
  endfacet
  facet normal -0.000000e+000 0.000000e+000 -1.000000e+000
    outer loop
      vertex   1.513347e+000 2.791130e+000 0.000000e+000
      vertex   -1.513347e+000 2.791130e+000 0.000000e+000
      vertex   1.277304e+000 2.906737e+000 0.000000e+000
    endloop
  endfacet
  facet normal -0.000000e+000 0.000000e+000 -1.000000e+000
    outer loop
      vertex   1.277304e+000 2.906737e+000 0.000000e+000
      vertex   -1.277304e+000 2.906737e+000 0.000000e+000
      vertex   1.032508e+000 3.002424e+000 0.000000e+000
    endloop
  endfacet
  facet normal -0.000000e+000 0.000000e+000 -1.000000e+000
    outer loop
      vertex   1.032508e+000 3.002424e+000 0.000000e+000
      vertex   -1.032508e+000 3.002424e+000 0.000000e+000
      vertex   7.806369e-001 3.077537e+000 0.000000e+000
    endloop
  endfacet
  facet normal -0.000000e+000 0.000000e+000 -1.000000e+000
    outer loop
      vertex   7.806369e-001 3.077537e+000 0.000000e+000
      vertex   -7.806369e-001 3.077537e+000 0.000000e+000
      vertex   5.234157e-001 3.131559e+000 0.000000e+000
    endloop
  endfacet
  facet normal 0.000000e+000 0.000000e+000 -1.000000e+000
    outer loop
      vertex   5.234157e-001 3.131559e+000 0.000000e+000
      vertex   -5.234157e-001 3.131559e+000 0.000000e+000
      vertex   2.626077e-001 3.164121e+000 0.000000e+000
    endloop
  endfacet
  facet normal -0.000000e+000 -0.000000e+000 -1.000000e+000
    outer loop
      vertex   2.794922e+000 1.506332e+000 0.000000e+000
      vertex   2.909936e+000 1.270000e+000 0.000000e+000
      vertex   -2.909936e+000 1.270000e+000 0.000000e+000
    endloop
  endfacet
  facet normal 0.000000e+000 -0.000000e+000 -1.000000e+000
    outer loop
      vertex   -2.909936e+000 1.270000e+000 0.000000e+000
      vertex   2.909936e+000 1.270000e+000 0.000000e+000
      vertex   -2.909936e+000 -1.270000e+000 0.000000e+000
    endloop
  endfacet
  facet normal 0.000000e+000 0.000000e+000 -1.000000e+000
    outer loop
      vertex   -5.080000e+000 -1.270000e+000 0.000000e+000
      vertex   -2.909936e+000 1.270000e+000 0.000000e+000
      vertex   -2.909936e+000 -1.270000e+000 0.000000e+000
    endloop
  endfacet
  facet normal 0.000000e+000 0.000000e+000 -1.000000e+000
    outer loop
      vertex   -5.080000e+000 -1.270000e+000 0.000000e+000
      vertex   -5.080000e+000 1.270000e+000 0.000000e+000
      vertex   -2.909936e+000 1.270000e+000 0.000000e+000
    endloop
  endfacet
  facet normal 0.000000e+000 0.000000e+000 -1.000000e+000
    outer loop
      vertex   -2.909936e+000 -1.270000e+000 0.000000e+000
      vertex   2.909936e+000 1.270000e+000 0.000000e+000
      vertex   2.909936e+000 -1.270000e+000 0.000000e+000
    endloop
  endfacet
  facet normal 0.000000e+000 -0.000000e+000 -1.000000e+000
    outer loop
      vertex   -2.794922e+000 -1.506332e+000 0.000000e+000
      vertex   2.909936e+000 -1.270000e+000 0.000000e+000
      vertex   2.794922e+000 -1.506332e+000 0.000000e+000
    endloop
  endfacet
  facet normal 0.000000e+000 -0.000000e+000 -1.000000e+000
    outer loop
      vertex   -2.660755e+000 -1.732342e+000 0.000000e+000
      vertex   2.794922e+000 -1.506332e+000 0.000000e+000
      vertex   2.660755e+000 -1.732342e+000 0.000000e+000
    endloop
  endfacet
  facet normal 0.000000e+000 -0.000000e+000 -1.000000e+000
    outer loop
      vertex   -2.508354e+000 -1.946480e+000 0.000000e+000
      vertex   2.660755e+000 -1.732342e+000 0.000000e+000
      vertex   2.508354e+000 -1.946480e+000 0.000000e+000
    endloop
  endfacet
  facet normal 0.000000e+000 -0.000000e+000 -1.000000e+000
    outer loop
      vertex   -2.338764e+000 -2.147279e+000 0.000000e+000
      vertex   2.508354e+000 -1.946480e+000 0.000000e+000
      vertex   2.338764e+000 -2.147279e+000 0.000000e+000
    endloop
  endfacet
  facet normal 0.000000e+000 -0.000000e+000 -1.000000e+000
    outer loop
      vertex   -2.153146e+000 -2.333364e+000 0.000000e+000
      vertex   2.338764e+000 -2.147279e+000 0.000000e+000
      vertex   2.153146e+000 -2.333364e+000 0.000000e+000
    endloop
  endfacet
  facet normal 0.000000e+000 -0.000000e+000 -1.000000e+000
    outer loop
      vertex   -1.952774e+000 -2.503457e+000 0.000000e+000
      vertex   2.153146e+000 -2.333364e+000 0.000000e+000
      vertex   1.952774e+000 -2.503457e+000 0.000000e+000
    endloop
  endfacet
  facet normal 0.000000e+000 -0.000000e+000 -1.000000e+000
    outer loop
      vertex   -1.739019e+000 -2.656396e+000 0.000000e+000
      vertex   1.952774e+000 -2.503457e+000 0.000000e+000
      vertex   1.739019e+000 -2.656396e+000 0.000000e+000
    endloop
  endfacet
  facet normal 0.000000e+000 -0.000000e+000 -1.000000e+000
    outer loop
      vertex   -1.513347e+000 -2.791130e+000 0.000000e+000
      vertex   1.739019e+000 -2.656396e+000 0.000000e+000
      vertex   1.513347e+000 -2.791130e+000 0.000000e+000
    endloop
  endfacet
  facet normal 0.000000e+000 -0.000000e+000 -1.000000e+000
    outer loop
      vertex   -1.277304e+000 -2.906737e+000 0.000000e+000
      vertex   1.513347e+000 -2.791130e+000 0.000000e+000
      vertex   1.277304e+000 -2.906737e+000 0.000000e+000
    endloop
  endfacet
  facet normal 0.000000e+000 -0.000000e+000 -1.000000e+000
    outer loop
      vertex   -1.032508e+000 -3.002424e+000 0.000000e+000
      vertex   1.277304e+000 -2.906737e+000 0.000000e+000
      vertex   1.032508e+000 -3.002424e+000 0.000000e+000
    endloop
  endfacet
  facet normal 0.000000e+000 -0.000000e+000 -1.000000e+000
    outer loop
      vertex   -7.806369e-001 -3.077537e+000 0.000000e+000
      vertex   1.032508e+000 -3.002424e+000 0.000000e+000
      vertex   7.806369e-001 -3.077537e+000 0.000000e+000
    endloop
  endfacet
  facet normal 0.000000e+000 -0.000000e+000 -1.000000e+000
    outer loop
      vertex   -5.234157e-001 -3.131559e+000 0.000000e+000
      vertex   7.806369e-001 -3.077537e+000 0.000000e+000
      vertex   5.234157e-001 -3.131559e+000 0.000000e+000
    endloop
  endfacet
  facet normal 0.000000e+000 -0.000000e+000 -1.000000e+000
    outer loop
      vertex   -2.626077e-001 -3.164121e+000 0.000000e+000
      vertex   5.234157e-001 -3.131559e+000 0.000000e+000
      vertex   2.626077e-001 -3.164121e+000 0.000000e+000
    endloop
  endfacet
  facet normal 0.000000e+000 0.000000e+000 -1.000000e+000
    outer loop
      vertex   1.944127e-016 -3.175000e+000 0.000000e+000
      vertex   -2.626077e-001 -3.164121e+000 0.000000e+000
      vertex   2.626077e-001 -3.164121e+000 0.000000e+000
    endloop
  endfacet
  facet normal 0.000000e+000 0.000000e+000 -1.000000e+000
    outer loop
      vertex   5.080000e+000 -1.270000e+000 0.000000e+000
      vertex   2.909936e+000 -1.270000e+000 0.000000e+000
      vertex   5.080000e+000 1.270000e+000 0.000000e+000
    endloop
  endfacet
  facet normal -0.000000e+000 0.000000e+000 -1.000000e+000
    outer loop
      vertex   5.080000e+000 1.270000e+000 0.000000e+000
      vertex   2.909936e+000 -1.270000e+000 0.000000e+000
      vertex   2.909936e+000 1.270000e+000 0.000000e+000
    endloop
  endfacet
  facet normal 0.000000e+000 -0.000000e+000 -1.000000e+000
    outer loop
      vertex   -2.909936e+000 -1.270000e+000 0.000000e+000
      vertex   2.909936e+000 -1.270000e+000 0.000000e+000
      vertex   -2.794922e+000 -1.506332e+000 0.000000e+000
    endloop
  endfacet
  facet normal 0.000000e+000 -0.000000e+000 -1.000000e+000
    outer loop
      vertex   -2.794922e+000 -1.506332e+000 0.000000e+000
      vertex   2.794922e+000 -1.506332e+000 0.000000e+000
      vertex   -2.660755e+000 -1.732342e+000 0.000000e+000
    endloop
  endfacet
  facet normal 0.000000e+000 -0.000000e+000 -1.000000e+000
    outer loop
      vertex   -2.660755e+000 -1.732342e+000 0.000000e+000
      vertex   2.660755e+000 -1.732342e+000 0.000000e+000
      vertex   -2.508354e+000 -1.946480e+000 0.000000e+000
    endloop
  endfacet
  facet normal 0.000000e+000 -0.000000e+000 -1.000000e+000
    outer loop
      vertex   -2.508354e+000 -1.946480e+000 0.000000e+000
      vertex   2.508354e+000 -1.946480e+000 0.000000e+000
      vertex   -2.338764e+000 -2.147279e+000 0.000000e+000
    endloop
  endfacet
  facet normal 0.000000e+000 -0.000000e+000 -1.000000e+000
    outer loop
      vertex   -2.338764e+000 -2.147279e+000 0.000000e+000
      vertex   2.338764e+000 -2.147279e+000 0.000000e+000
      vertex   -2.153146e+000 -2.333364e+000 0.000000e+000
    endloop
  endfacet
  facet normal 0.000000e+000 -0.000000e+000 -1.000000e+000
    outer loop
      vertex   -2.153146e+000 -2.333364e+000 0.000000e+000
      vertex   2.153146e+000 -2.333364e+000 0.000000e+000
      vertex   -1.952774e+000 -2.503457e+000 0.000000e+000
    endloop
  endfacet
  facet normal 0.000000e+000 -0.000000e+000 -1.000000e+000
    outer loop
      vertex   -1.952774e+000 -2.503457e+000 0.000000e+000
      vertex   1.952774e+000 -2.503457e+000 0.000000e+000
      vertex   -1.739019e+000 -2.656396e+000 0.000000e+000
    endloop
  endfacet
  facet normal 0.000000e+000 -0.000000e+000 -1.000000e+000
    outer loop
      vertex   -1.739019e+000 -2.656396e+000 0.000000e+000
      vertex   1.739019e+000 -2.656396e+000 0.000000e+000
      vertex   -1.513347e+000 -2.791130e+000 0.000000e+000
    endloop
  endfacet
  facet normal 0.000000e+000 -0.000000e+000 -1.000000e+000
    outer loop
      vertex   -1.513347e+000 -2.791130e+000 0.000000e+000
      vertex   1.513347e+000 -2.791130e+000 0.000000e+000
      vertex   -1.277304e+000 -2.906737e+000 0.000000e+000
    endloop
  endfacet
  facet normal 0.000000e+000 -0.000000e+000 -1.000000e+000
    outer loop
      vertex   -1.277304e+000 -2.906737e+000 0.000000e+000
      vertex   1.277304e+000 -2.906737e+000 0.000000e+000
      vertex   -1.032508e+000 -3.002424e+000 0.000000e+000
    endloop
  endfacet
  facet normal 0.000000e+000 -0.000000e+000 -1.000000e+000
    outer loop
      vertex   -1.032508e+000 -3.002424e+000 0.000000e+000
      vertex   1.032508e+000 -3.002424e+000 0.000000e+000
      vertex   -7.806369e-001 -3.077537e+000 0.000000e+000
    endloop
  endfacet
  facet normal 0.000000e+000 -0.000000e+000 -1.000000e+000
    outer loop
      vertex   -7.806369e-001 -3.077537e+000 0.000000e+000
      vertex   7.806369e-001 -3.077537e+000 0.000000e+000
      vertex   -5.234157e-001 -3.131559e+000 0.000000e+000
    endloop
  endfacet
  facet normal 0.000000e+000 -0.000000e+000 -1.000000e+000
    outer loop
      vertex   -5.234157e-001 -3.131559e+000 0.000000e+000
      vertex   5.234157e-001 -3.131559e+000 0.000000e+000
      vertex   -2.626077e-001 -3.164121e+000 0.000000e+000
    endloop
  endfacet
endsolid
